<svg width="1000" height="80" viewBox="0 0 1000 80" fill="none" xmlns="http://www.w3.org/2000/svg">
<path d="M3.84 16.992H2.064V33H3.84V25.176H12.048V33H13.824V16.992H12.048V23.496H3.84V16.992ZM25.1546 24.456C24.6986 23.856 23.6666 22.8 21.7466 22.8C19.2026 22.8 16.8986 24.576 16.8986 28.008C16.8986 31.512 19.2266 33.288 21.7466 33.288C23.4986 33.288 24.5786 32.352 25.1546 31.608V33H26.8826V23.04H25.1546V24.456ZM21.9386 24.336C23.4746 24.336 25.2506 25.464 25.2506 28.032C25.2506 30 24.0506 31.752 21.9386 31.752C19.8746 31.752 18.6746 30.144 18.6746 28.008C18.6746 25.584 20.2346 24.336 21.9386 24.336ZM34.8114 23.04V27.12L31.0674 23.04H29.0514L33.3714 27.648L28.6194 33H30.7794L34.4754 28.8L34.8114 29.136V33H36.5394V29.136L36.8754 28.8L40.5714 33H42.7314L37.9794 27.648L42.2994 23.04H40.2834L36.5394 27.12V23.04H34.8114ZM44.4523 23.04V33.696L51.2683 26.352V33H52.9963V22.272L46.1803 29.616V23.04H44.4523ZM55.1128 33H56.8888L58.1608 26.832L61.5928 33.696L64.9768 26.832L66.2968 33H68.0728L65.6728 22.272L61.6408 30.384L57.5128 22.272L55.1128 33ZM77.8187 24.456C77.3627 23.856 76.3307 22.8 74.4107 22.8C71.8667 22.8 69.5627 24.576 69.5627 28.008C69.5627 31.512 71.8907 33.288 74.4107 33.288C76.1627 33.288 77.2427 32.352 77.8187 31.608V33H79.5467V23.04H77.8187V24.456ZM74.6027 24.336C76.1387 24.336 77.9147 25.464 77.9147 28.032C77.9147 30 76.7147 31.752 74.6027 31.752C72.5387 31.752 71.3387 30.144 71.3387 28.008C71.3387 25.584 72.8987 24.336 74.6027 24.336ZM81.6675 33H83.7315L86.5635 28.992H87.6195V33H89.3475V23.04H85.8675C84.8835 23.04 83.8035 23.064 82.9395 23.88C82.3875 24.384 82.0515 25.176 82.0515 26.112C82.0515 27.048 82.4355 27.72 82.8435 28.104C83.5635 28.8 84.6435 28.896 84.7635 28.896L81.6675 33ZM87.6195 27.552H85.9875C85.5795 27.552 84.9555 27.576 84.4515 27.264C84.0195 27 83.8275 26.592 83.8275 26.064C83.8275 25.416 84.1635 25.032 84.4515 24.84C84.8115 24.624 85.3155 24.576 86.0115 24.576H87.6195V27.552ZM106.114 33.288C110.746 33.288 114.442 29.76 114.442 25.008C114.442 20.232 110.722 16.728 106.114 16.728C101.506 16.728 97.7859 20.232 97.7859 25.008C97.7859 29.76 101.482 33.288 106.114 33.288ZM106.114 18.408C109.714 18.408 112.618 21.336 112.618 25.008C112.618 28.68 109.714 31.608 106.114 31.608C102.514 31.608 99.6099 28.68 99.6099 25.008C99.6099 21.336 102.514 18.408 106.114 18.408ZM125.073 23.76C124.593 23.424 123.561 22.8 121.977 22.8C118.905 22.8 116.649 25.032 116.649 28.08C116.649 31.08 118.881 33.288 121.977 33.288C122.913 33.288 124.065 33.048 125.145 32.256V30.192C124.233 31.296 122.961 31.752 121.929 31.752C120.153 31.752 118.425 30.48 118.425 28.056C118.425 25.632 120.105 24.336 121.953 24.336C122.841 24.336 124.161 24.672 125.073 25.824V23.76ZM134.324 24.624V23.04H126.356V24.624H129.476V33H131.204V24.624H134.324ZM143.467 24.456C143.011 23.856 141.979 22.8 140.059 22.8C137.515 22.8 135.211 24.576 135.211 28.008C135.211 31.512 137.539 33.288 140.059 33.288C141.811 33.288 142.891 32.352 143.467 31.608V33H145.195V23.04H143.467V24.456ZM140.251 24.336C141.787 24.336 143.563 25.464 143.563 28.032C143.563 30 142.363 31.752 140.251 31.752C138.187 31.752 136.987 30.144 136.987 28.008C136.987 25.584 138.547 24.336 140.251 24.336ZM148.468 23.04V33H152.764C153.556 33 154.516 32.784 155.116 32.328C155.668 31.896 156.148 31.128 156.148 30.072C156.148 29.304 155.908 28.68 155.356 28.152C154.876 27.696 154.396 27.552 154.108 27.48C154.708 27.096 155.188 26.472 155.188 25.488C155.188 24.48 154.684 23.904 154.324 23.616C153.628 23.064 152.764 23.04 152.236 23.04H148.468ZM150.196 27.096V24.576H151.732C152.26 24.576 152.716 24.552 153.124 24.816C153.388 25.008 153.604 25.296 153.604 25.776C153.604 26.376 153.316 26.664 153.124 26.808C152.74 27.072 152.188 27.096 152.02 27.096H150.196ZM150.196 31.464V28.536H152.404C152.884 28.536 153.532 28.56 153.964 28.896C154.3 29.16 154.468 29.568 154.468 30.024C154.468 30.48 154.204 30.888 153.892 31.128C153.46 31.44 152.812 31.464 152.332 31.464H150.196ZM158.78 23.04V33.696L165.596 26.352V33H167.324V22.272L160.508 29.616V23.04H158.78ZM177.121 24.624V23.04H169.153V24.624H172.273V33H174.001V24.624H177.121ZM178.937 33H182.417C183.401 33 184.481 32.976 185.345 32.16C185.777 31.752 186.233 31.008 186.233 29.928C186.233 28.92 185.849 28.224 185.465 27.84C184.577 26.928 183.329 26.856 182.441 26.856H180.665V23.04H178.937V33ZM180.665 31.464V28.392H182.297C182.849 28.392 183.401 28.392 183.833 28.68C184.337 28.992 184.457 29.496 184.457 29.928C184.457 30.696 184.025 31.056 183.809 31.2C183.401 31.44 182.849 31.464 182.273 31.464H180.665ZM195.444 25.584C195.684 25.152 195.996 24.888 196.26 24.72C196.764 24.408 197.244 24.336 197.628 24.336C197.94 24.336 198.492 24.336 198.9 24.696C199.164 24.912 199.332 25.296 199.332 25.728C199.332 26.184 199.068 26.472 198.804 26.64C198.66 26.736 198.3 26.904 197.508 26.904H196.668V28.488H197.676C198.132 28.488 198.804 28.488 199.308 28.824C199.644 29.04 199.908 29.424 199.908 29.976C199.908 30.696 199.548 31.152 199.212 31.368C198.684 31.728 197.916 31.752 197.532 31.752C197.004 31.752 196.452 31.656 195.9 31.248C195.348 30.84 195.108 30.36 195.012 30.12L193.524 30.744C193.812 31.368 194.268 32.016 194.844 32.448C195.684 33.096 196.62 33.288 197.508 33.288C198.588 33.288 199.62 33.048 200.34 32.52C201.156 31.92 201.636 30.984 201.636 29.952C201.636 29.184 201.348 28.56 200.94 28.128C200.7 27.864 200.292 27.6 199.788 27.48C200.292 27.168 200.916 26.568 200.916 25.392C200.916 24.696 200.7 24.048 200.052 23.496C199.308 22.872 198.492 22.8 197.7 22.8C197.052 22.8 196.284 22.896 195.516 23.352C195.036 23.64 194.58 24.12 194.244 24.6L195.444 25.584ZM211.905 24.456C211.449 23.856 210.417 22.8 208.497 22.8C205.953 22.8 203.649 24.576 203.649 28.008C203.649 31.512 205.977 33.288 208.497 33.288C210.249 33.288 211.329 32.352 211.905 31.608V33H213.633V23.04H211.905V24.456ZM208.689 24.336C210.225 24.336 212.001 25.464 212.001 28.032C212.001 30 210.801 31.752 208.689 31.752C206.625 31.752 205.425 30.144 205.425 28.008C205.425 25.584 206.985 24.336 208.689 24.336ZM215.753 33H217.817L220.649 28.992H221.705V33H223.433V23.04H219.953C218.969 23.04 217.889 23.064 217.025 23.88C216.473 24.384 216.137 25.176 216.137 26.112C216.137 27.048 216.521 27.72 216.929 28.104C217.649 28.8 218.729 28.896 218.849 28.896L215.753 33ZM221.705 27.552H220.073C219.665 27.552 219.041 27.576 218.537 27.264C218.105 27 217.913 26.592 217.913 26.064C217.913 25.416 218.249 25.032 218.537 24.84C218.897 24.624 219.401 24.576 220.097 24.576H221.705V27.552ZM226.702 23.04V33H230.998C231.79 33 232.75 32.784 233.35 32.328C233.902 31.896 234.382 31.128 234.382 30.072C234.382 29.304 234.142 28.68 233.59 28.152C233.11 27.696 232.63 27.552 232.342 27.48C232.942 27.096 233.422 26.472 233.422 25.488C233.422 24.48 232.918 23.904 232.558 23.616C231.862 23.064 230.998 23.04 230.47 23.04H226.702ZM228.43 27.096V24.576H229.966C230.494 24.576 230.95 24.552 231.358 24.816C231.622 25.008 231.838 25.296 231.838 25.776C231.838 26.376 231.55 26.664 231.358 26.808C230.974 27.072 230.422 27.096 230.254 27.096H228.43ZM228.43 31.464V28.536H230.638C231.118 28.536 231.766 28.56 232.198 28.896C232.534 29.16 232.702 29.568 232.702 30.024C232.702 30.48 232.438 30.888 232.126 31.128C231.694 31.44 231.046 31.464 230.566 31.464H228.43ZM237.015 23.04V33H238.743V29.136L239.271 28.632L243.159 33H245.415L240.567 27.48L244.887 23.04H242.775L238.743 27.12V23.04H237.015ZM247.116 38.52H249.036L256.356 23.04H254.436L251.196 30.168L247.668 23.04H245.7L250.284 32.064L247.116 38.52ZM256.607 36.192L257.735 36.648L260.159 31.224L258.575 30.648L256.607 36.192ZM268.699 33H270.763L273.595 28.992H274.651V33H276.379V23.04H272.899C271.915 23.04 270.835 23.064 269.971 23.88C269.419 24.384 269.083 25.176 269.083 26.112C269.083 27.048 269.467 27.72 269.875 28.104C270.595 28.8 271.675 28.896 271.795 28.896L268.699 33ZM274.651 27.552H273.019C272.611 27.552 271.987 27.576 271.483 27.264C271.051 27 270.859 26.592 270.859 26.064C270.859 25.416 271.195 25.032 271.483 24.84C271.843 24.624 272.347 24.576 273.043 24.576H274.651V27.552ZM285.249 23.04V33H286.977V24.624H291.537V33H293.265V23.04H285.249ZM298.251 31.608C298.995 32.568 300.123 33.288 301.731 33.288C304.755 33.288 306.507 30.816 306.507 28.08C306.507 25.392 304.779 22.8 301.659 22.8C300.939 22.8 299.427 22.968 298.251 24.432V23.04H296.523V38.52H298.251V31.608ZM301.491 31.752C299.451 31.752 298.155 30.096 298.155 28.056C298.155 25.656 299.859 24.336 301.467 24.336C303.075 24.336 304.731 25.632 304.731 28.08C304.731 30.072 303.507 31.752 301.491 31.752ZM309.155 23.04V33.696L315.971 26.352V33H317.699V22.272L310.883 29.616V23.04H309.155ZM320.968 33H322.696V28.704H327.4V33H329.128V23.04H327.4V27.12H322.696V23.04H320.968V33ZM332.382 23.04V33.696L339.198 26.352V33H340.926V22.272L334.11 29.616V23.04H332.382ZM343.043 33H344.819L346.09 26.832L349.523 33.696L352.907 26.832L354.227 33H356.003L353.603 22.272L349.571 30.384L345.443 22.272L343.043 33ZM365.748 24.456C365.292 23.856 364.26 22.8 362.34 22.8C359.796 22.8 357.492 24.576 357.492 28.008C357.492 31.512 359.82 33.288 362.34 33.288C364.092 33.288 365.172 32.352 365.748 31.608V33H367.476V23.04H365.748V24.456ZM362.532 24.336C364.068 24.336 365.844 25.464 365.844 28.032C365.844 30 364.644 31.752 362.532 31.752C360.468 31.752 359.268 30.144 359.268 28.008C359.268 25.584 360.828 24.336 362.532 24.336ZM372.477 27.12V23.04H370.749V33H372.477V28.704H374.181C374.301 29.904 374.805 30.816 375.285 31.416C376.029 32.352 377.325 33.288 379.389 33.288C382.437 33.288 384.669 31.08 384.669 28.056C384.669 25.032 382.461 22.8 379.389 22.8C377.805 22.8 376.485 23.376 375.621 24.288C374.997 24.936 374.445 25.92 374.277 27.12H372.477ZM379.389 24.336C381.213 24.336 382.893 25.632 382.893 28.056C382.893 30.48 381.189 31.752 379.389 31.752C377.637 31.752 375.957 30.504 375.957 28.056C375.957 25.68 377.541 24.336 379.389 24.336Z" fill="#434343"/>
<path d="M1.608 65.52H3.528L10.848 50.04H8.928L5.688 57.168L2.16 50.04H0.192L4.776 59.064L1.608 65.52ZM20.4711 50.76C19.9911 50.424 18.9591 49.8 17.3751 49.8C14.3031 49.8 12.0471 52.032 12.0471 55.08C12.0471 58.08 14.2791 60.288 17.3751 60.288C18.3111 60.288 19.4631 60.048 20.5431 59.256V57.192C19.6311 58.296 18.3591 58.752 17.3271 58.752C15.5511 58.752 13.8231 57.48 13.8231 55.056C13.8231 52.632 15.5031 51.336 17.3511 51.336C18.2391 51.336 19.5591 51.672 20.4711 52.824V50.76ZM30.7305 50.04H23.7225V56.112C23.7225 56.712 23.6985 57.336 23.3865 57.816C23.1945 58.128 22.7865 58.464 22.1385 58.464C22.0185 58.464 21.8745 58.44 21.7545 58.416V60C21.9225 60.024 22.1145 60.048 22.2825 60.048C23.6265 60.048 24.3705 59.376 24.6825 58.992C25.4505 58.056 25.4505 56.952 25.4505 56.112V51.624H29.0025V60H30.7305V50.04ZM38.6552 60.288C41.6792 60.288 43.9352 58.08 43.9352 55.056C43.9352 52.032 41.7032 49.8 38.6552 49.8C35.6072 49.8 33.3752 52.032 33.3752 55.056C33.3752 58.08 35.6312 60.288 38.6552 60.288ZM38.6552 51.336C40.4792 51.336 42.1592 52.608 42.1592 55.056C42.1592 57.48 40.4552 58.752 38.6552 58.752C36.8792 58.752 35.1512 57.504 35.1512 55.056C35.1512 52.632 36.8312 51.336 38.6552 51.336ZM46.5851 50.04V60H50.8811C51.6731 60 52.6331 59.784 53.2331 59.328C53.7851 58.896 54.2651 58.128 54.2651 57.072C54.2651 56.304 54.0251 55.68 53.4731 55.152C52.9931 54.696 52.5131 54.552 52.2251 54.48C52.8251 54.096 53.3051 53.472 53.3051 52.488C53.3051 51.48 52.8011 50.904 52.4411 50.616C51.7451 50.064 50.8811 50.04 50.3531 50.04H46.5851ZM48.3131 54.096V51.576H49.8491C50.3771 51.576 50.8331 51.552 51.2411 51.816C51.5051 52.008 51.7211 52.296 51.7211 52.776C51.7211 53.376 51.4331 53.664 51.2411 53.808C50.8571 54.072 50.3051 54.096 50.1371 54.096H48.3131ZM48.3131 58.464V55.536H50.5211C51.0011 55.536 51.6491 55.56 52.0811 55.896C52.4171 56.16 52.5851 56.568 52.5851 57.024C52.5851 57.48 52.3211 57.888 52.0091 58.128C51.5771 58.44 50.9291 58.464 50.4491 58.464H48.3131ZM56.8976 50.04V60.696L63.7136 53.352V60H65.4416V49.272L58.6256 56.616V50.04H56.8976ZM67.5581 60H69.6221L72.4541 55.992H73.5101V60H75.2381V50.04H71.7581C70.7741 50.04 69.6941 50.064 68.8301 50.88C68.2781 51.384 67.9421 52.176 67.9421 53.112C67.9421 54.048 68.3261 54.72 68.7341 55.104C69.4541 55.8 70.5341 55.896 70.6541 55.896L67.5581 60ZM73.5101 54.552H71.8781C71.4701 54.552 70.8461 54.576 70.3421 54.264C69.9101 54 69.7181 53.592 69.7181 53.064C69.7181 52.416 70.0541 52.032 70.3421 51.84C70.7021 51.624 71.2061 51.576 71.9021 51.576H73.5101V54.552ZM84.1086 50.04V60H85.8366V51.624H90.3966V60H92.1246V50.04H84.1086ZM100.038 60.288C103.062 60.288 105.318 58.08 105.318 55.056C105.318 52.032 103.086 49.8 100.038 49.8C96.99 49.8 94.758 52.032 94.758 55.056C94.758 58.08 97.014 60.288 100.038 60.288ZM100.038 51.336C101.862 51.336 103.542 52.608 103.542 55.056C103.542 57.48 101.838 58.752 100.038 58.752C98.262 58.752 96.534 57.504 96.534 55.056C96.534 52.632 98.214 51.336 100.038 51.336ZM115.504 50.04H108.496V56.112C108.496 56.712 108.472 57.336 108.16 57.816C107.968 58.128 107.56 58.464 106.912 58.464C106.792 58.464 106.648 58.44 106.528 58.416V60C106.696 60.024 106.888 60.048 107.056 60.048C108.4 60.048 109.144 59.376 109.456 58.992C110.224 58.056 110.224 56.952 110.224 56.112V51.624H113.776V60H115.504V50.04ZM118.773 60H122.253C123.237 60 124.317 59.976 125.181 59.16C125.613 58.752 126.069 58.008 126.069 56.928C126.069 55.92 125.685 55.224 125.301 54.84C124.413 53.928 123.165 53.856 122.277 53.856H120.501V50.04H118.773V60ZM120.501 58.464V55.392H122.133C122.685 55.392 123.237 55.392 123.669 55.68C124.173 55.992 124.293 56.496 124.293 56.928C124.293 57.696 123.861 58.056 123.645 58.2C123.237 58.44 122.685 58.464 122.109 58.464H120.501ZM129.678 52.584C129.918 52.152 130.23 51.888 130.494 51.72C130.998 51.408 131.478 51.336 131.862 51.336C132.174 51.336 132.726 51.336 133.134 51.696C133.398 51.912 133.566 52.296 133.566 52.728C133.566 53.184 133.302 53.472 133.038 53.64C132.894 53.736 132.534 53.904 131.742 53.904H130.902V55.488H131.91C132.366 55.488 133.038 55.488 133.542 55.824C133.878 56.04 134.142 56.424 134.142 56.976C134.142 57.696 133.782 58.152 133.446 58.368C132.918 58.728 132.15 58.752 131.766 58.752C131.238 58.752 130.686 58.656 130.134 58.248C129.582 57.84 129.342 57.36 129.246 57.12L127.758 57.744C128.046 58.368 128.502 59.016 129.078 59.448C129.918 60.096 130.854 60.288 131.742 60.288C132.822 60.288 133.854 60.048 134.574 59.52C135.39 58.92 135.87 57.984 135.87 56.952C135.87 56.184 135.582 55.56 135.174 55.128C134.934 54.864 134.526 54.6 134.022 54.48C134.526 54.168 135.15 53.568 135.15 52.392C135.15 51.696 134.934 51.048 134.286 50.496C133.542 49.872 132.726 49.8 131.934 49.8C131.286 49.8 130.518 49.896 129.75 50.352C129.27 50.64 128.814 51.12 128.478 51.6L129.678 52.584ZM143.163 60.288C146.187 60.288 148.443 58.08 148.443 55.056C148.443 52.032 146.211 49.8 143.163 49.8C140.115 49.8 137.883 52.032 137.883 55.056C137.883 58.08 140.139 60.288 143.163 60.288ZM143.163 51.336C144.987 51.336 146.667 52.608 146.667 55.056C146.667 57.48 144.963 58.752 143.163 58.752C141.387 58.752 139.659 57.504 139.659 55.056C139.659 52.632 141.339 51.336 143.163 51.336ZM151.093 50.04V60H155.389C156.181 60 157.141 59.784 157.741 59.328C158.293 58.896 158.773 58.128 158.773 57.072C158.773 56.304 158.533 55.68 157.981 55.152C157.501 54.696 157.021 54.552 156.733 54.48C157.333 54.096 157.813 53.472 157.813 52.488C157.813 51.48 157.309 50.904 156.949 50.616C156.253 50.064 155.389 50.04 154.861 50.04H151.093ZM152.821 54.096V51.576H154.357C154.885 51.576 155.341 51.552 155.749 51.816C156.013 52.008 156.229 52.296 156.229 52.776C156.229 53.376 155.941 53.664 155.749 53.808C155.365 54.072 154.813 54.096 154.645 54.096H152.821ZM152.821 58.464V55.536H155.029C155.509 55.536 156.157 55.56 156.589 55.896C156.925 56.16 157.093 56.568 157.093 57.024C157.093 57.48 156.829 57.888 156.517 58.128C156.085 58.44 155.437 58.464 154.957 58.464H152.821ZM169.037 51.456C168.581 50.856 167.549 49.8 165.629 49.8C163.085 49.8 160.781 51.576 160.781 55.008C160.781 58.512 163.109 60.288 165.629 60.288C167.381 60.288 168.461 59.352 169.037 58.608V60H170.765V50.04H169.037V51.456ZM165.821 51.336C167.357 51.336 169.133 52.464 169.133 55.032C169.133 57 167.933 58.752 165.821 58.752C163.757 58.752 162.557 57.144 162.557 55.008C162.557 52.584 164.117 51.336 165.821 51.336ZM180.566 51.624V50.04H172.598V51.624H175.718V60H177.446V51.624H180.566ZM189.54 56.664C189.324 57.144 188.964 57.648 188.508 58.032C187.932 58.512 187.284 58.752 186.468 58.752C184.74 58.752 183.324 57.432 183.3 55.368H191.052C191.1 54.048 190.74 52.512 190.116 51.624C189.516 50.76 188.292 49.8 186.348 49.8C183.348 49.8 181.524 52.104 181.524 55.08C181.524 58.776 184.044 60.288 186.444 60.288C187.716 60.288 188.844 59.88 189.756 59.064C190.26 58.608 190.692 58.008 190.98 57.456L189.54 56.664ZM183.42 53.928C183.684 52.44 184.884 51.336 186.348 51.336C187.812 51.336 188.988 52.368 189.276 53.928H183.42ZM201.238 50.04H194.23V56.112C194.23 56.712 194.206 57.336 193.894 57.816C193.702 58.128 193.294 58.464 192.646 58.464C192.526 58.464 192.382 58.44 192.262 58.416V60C192.43 60.024 192.622 60.048 192.79 60.048C194.134 60.048 194.878 59.376 195.19 58.992C195.958 58.056 195.958 56.952 195.958 56.112V51.624H199.51V60H201.238V50.04ZM204.507 60H207.987C208.971 60 210.051 59.976 210.915 59.16C211.347 58.752 211.803 58.008 211.803 56.928C211.803 55.92 211.419 55.224 211.035 54.84C210.147 53.928 208.899 53.856 208.011 53.856H206.235V50.04H204.507V60ZM206.235 58.464V55.392H207.867C208.419 55.392 208.971 55.392 209.403 55.68C209.907 55.992 210.027 56.496 210.027 56.928C210.027 57.696 209.595 58.056 209.379 58.2C208.971 58.44 208.419 58.464 207.843 58.464H206.235ZM221.916 50.76C221.436 50.424 220.404 49.8 218.82 49.8C215.748 49.8 213.492 52.032 213.492 55.08C213.492 58.08 215.724 60.288 218.82 60.288C219.756 60.288 220.908 60.048 221.988 59.256V57.192C221.076 58.296 219.804 58.752 218.772 58.752C216.996 58.752 215.268 57.48 215.268 55.056C215.268 52.632 216.948 51.336 218.796 51.336C219.684 51.336 221.004 51.672 221.916 52.824V50.76ZM224.64 50.04V60H226.368V56.136L226.896 55.632L230.784 60H233.04L228.192 54.48L232.512 50.04H230.4L226.368 54.12V50.04H224.64ZM238.952 60.288C241.976 60.288 244.232 58.08 244.232 55.056C244.232 52.032 242 49.8 238.952 49.8C235.904 49.8 233.672 52.032 233.672 55.056C233.672 58.08 235.928 60.288 238.952 60.288ZM238.952 51.336C240.776 51.336 242.456 52.608 242.456 55.056C242.456 57.48 240.752 58.752 238.952 58.752C237.176 58.752 235.448 57.504 235.448 55.056C235.448 52.632 237.128 51.336 238.952 51.336ZM246.882 60H248.61V51.624H252.786V50.04H246.882V60ZM258.663 60.288C261.687 60.288 263.943 58.08 263.943 55.056C263.943 52.032 261.711 49.8 258.663 49.8C255.615 49.8 253.383 52.032 253.383 55.056C253.383 58.08 255.639 60.288 258.663 60.288ZM258.663 51.336C260.487 51.336 262.167 52.608 262.167 55.056C262.167 57.48 260.463 58.752 258.663 58.752C256.887 58.752 255.159 57.504 255.159 55.056C255.159 52.632 256.839 51.336 258.663 51.336ZM279.995 50.76C279.515 50.424 278.483 49.8 276.898 49.8C273.827 49.8 271.571 52.032 271.571 55.08C271.571 58.08 273.803 60.288 276.898 60.288C277.835 60.288 278.987 60.048 280.067 59.256V57.192C279.155 58.296 277.883 58.752 276.851 58.752C275.075 58.752 273.347 57.48 273.347 55.056C273.347 52.632 275.027 51.336 276.875 51.336C277.763 51.336 279.083 51.672 279.995 52.824V50.76ZM287.116 60.288C290.14 60.288 292.396 58.08 292.396 55.056C292.396 52.032 290.164 49.8 287.116 49.8C284.068 49.8 281.836 52.032 281.836 55.056C281.836 58.08 284.092 60.288 287.116 60.288ZM287.116 51.336C288.94 51.336 290.62 52.608 290.62 55.056C290.62 57.48 288.916 58.752 287.116 58.752C285.34 58.752 283.612 57.504 283.612 55.056C283.612 52.632 285.292 51.336 287.116 51.336ZM295.046 60H296.774V51.624H300.95V50.04H295.046V60ZM309.988 50.04H302.98V56.112C302.98 56.712 302.956 57.336 302.644 57.816C302.452 58.128 302.044 58.464 301.396 58.464C301.276 58.464 301.132 58.44 301.012 58.416V60C301.18 60.024 301.372 60.048 301.54 60.048C302.884 60.048 303.628 59.376 303.94 58.992C304.708 58.056 304.708 56.952 304.708 56.112V51.624H308.26V60H309.988V50.04ZM320.889 51.456C320.433 50.856 319.401 49.8 317.481 49.8C314.937 49.8 312.633 51.576 312.633 55.008C312.633 58.512 314.961 60.288 317.481 60.288C319.233 60.288 320.313 59.352 320.889 58.608V60H322.617V50.04H320.889V51.456ZM317.673 51.336C319.209 51.336 320.985 52.464 320.985 55.032C320.985 57 319.785 58.752 317.673 58.752C315.609 58.752 314.409 57.144 314.409 55.008C314.409 52.584 315.969 51.336 317.673 51.336ZM325.89 60H338.754V50.04H337.026V58.416H333.186V50.04H331.458V58.416H327.618V50.04H325.89V60ZM349.407 56.664C349.191 57.144 348.831 57.648 348.375 58.032C347.799 58.512 347.151 58.752 346.335 58.752C344.607 58.752 343.191 57.432 343.167 55.368H350.919C350.967 54.048 350.607 52.512 349.983 51.624C349.383 50.76 348.159 49.8 346.215 49.8C343.215 49.8 341.391 52.104 341.391 55.08C341.391 58.776 343.911 60.288 346.311 60.288C347.583 60.288 348.711 59.88 349.623 59.064C350.127 58.608 350.559 58.008 350.847 57.456L349.407 56.664ZM343.287 53.928C343.551 52.44 344.751 51.336 346.215 51.336C347.679 51.336 348.855 52.368 349.143 53.928H343.287ZM353.57 60H355.298V55.704H360.002V60H361.73V50.04H360.002V54.12H355.298V50.04H353.57V60ZM364.984 50.04V60.696L371.8 53.352V60H373.528V49.272L366.712 56.616V50.04H364.984ZM375.644 60H377.708L380.54 55.992H381.596V60H383.324V50.04H379.844C378.86 50.04 377.78 50.064 376.916 50.88C376.364 51.384 376.028 52.176 376.028 53.112C376.028 54.048 376.412 54.72 376.82 55.104C377.54 55.8 378.62 55.896 378.74 55.896L375.644 60ZM381.596 54.552H379.964C379.556 54.552 378.932 54.576 378.428 54.264C377.996 54 377.804 53.592 377.804 53.064C377.804 52.416 378.14 52.032 378.428 51.84C378.788 51.624 379.292 51.576 379.988 51.576H381.596V54.552ZM396.851 60.288C399.875 60.288 402.131 58.08 402.131 55.056C402.131 52.032 399.899 49.8 396.851 49.8C393.803 49.8 391.571 52.032 391.571 55.056C391.571 58.08 393.827 60.288 396.851 60.288ZM396.851 51.336C398.675 51.336 400.355 52.608 400.355 55.056C400.355 57.48 398.651 58.752 396.851 58.752C395.075 58.752 393.347 57.504 393.347 55.056C393.347 52.632 395.027 51.336 396.851 51.336ZM410.382 50.04V60H412.11V51.624H416.67V60H418.398V50.04H410.382ZM429.047 56.664C428.831 57.144 428.471 57.648 428.015 58.032C427.439 58.512 426.791 58.752 425.975 58.752C424.247 58.752 422.831 57.432 422.807 55.368H430.559C430.607 54.048 430.247 52.512 429.623 51.624C429.023 50.76 427.799 49.8 425.855 49.8C422.855 49.8 421.031 52.104 421.031 55.08C421.031 58.776 423.551 60.288 425.951 60.288C427.223 60.288 428.351 59.88 429.263 59.064C429.767 58.608 430.199 58.008 430.487 57.456L429.047 56.664ZM422.927 53.928C423.191 52.44 424.391 51.336 425.855 51.336C427.319 51.336 428.495 52.368 428.783 53.928H422.927ZM434.938 58.608C435.682 59.568 436.81 60.288 438.418 60.288C441.442 60.288 443.194 57.816 443.194 55.08C443.194 52.392 441.466 49.8 438.346 49.8C437.626 49.8 436.114 49.968 434.938 51.432V50.04H433.21V65.52H434.938V58.608ZM438.178 58.752C436.138 58.752 434.842 57.096 434.842 55.056C434.842 52.656 436.546 51.336 438.154 51.336C439.762 51.336 441.418 52.632 441.418 55.08C441.418 57.072 440.194 58.752 438.178 58.752ZM453.235 56.664C453.019 57.144 452.659 57.648 452.203 58.032C451.627 58.512 450.979 58.752 450.163 58.752C448.435 58.752 447.019 57.432 446.995 55.368H454.747C454.795 54.048 454.435 52.512 453.811 51.624C453.211 50.76 451.987 49.8 450.043 49.8C447.043 49.8 445.219 52.104 445.219 55.08C445.219 58.776 447.739 60.288 450.139 60.288C451.411 60.288 452.539 59.88 453.451 59.064C453.955 58.608 454.387 58.008 454.675 57.456L453.235 56.664ZM447.115 53.928C447.379 52.44 448.579 51.336 450.043 51.336C451.507 51.336 452.683 52.368 452.971 53.928H447.115ZM458.118 50.04V54.48C458.118 55.488 458.046 56.424 457.71 57.12C457.374 57.816 456.726 58.392 455.862 58.416V62.64H457.446V60H465.03V62.64H466.614V58.416H465.126V50.04H458.118ZM463.398 58.416H458.646C459.582 57.6 459.846 56.52 459.846 55.368V51.624H463.398V58.416ZM476.069 51.456C475.613 50.856 474.581 49.8 472.661 49.8C470.117 49.8 467.813 51.576 467.813 55.008C467.813 58.512 470.141 60.288 472.661 60.288C474.413 60.288 475.493 59.352 476.069 58.608V60H477.797V50.04H476.069V51.456ZM472.853 51.336C474.389 51.336 476.165 52.464 476.165 55.032C476.165 57 474.965 58.752 472.853 58.752C470.789 58.752 469.589 57.144 469.589 55.008C469.589 52.584 471.149 51.336 472.853 51.336ZM486.398 60H488.126V50.04H486.398V54.504C485.654 54.648 484.886 54.72 484.238 54.72C483.71 54.72 483.038 54.672 482.726 54.072C482.558 53.784 482.51 53.256 482.51 52.896V50.04H480.782V53.136C480.782 54.096 480.95 54.984 481.622 55.584C482.39 56.28 483.542 56.304 484.046 56.304C484.742 56.304 485.773 56.184 486.398 56.088V60ZM498.774 56.664C498.558 57.144 498.198 57.648 497.742 58.032C497.166 58.512 496.518 58.752 495.702 58.752C493.974 58.752 492.558 57.432 492.534 55.368H500.286C500.334 54.048 499.974 52.512 499.35 51.624C498.75 50.76 497.526 49.8 495.582 49.8C492.582 49.8 490.758 52.104 490.758 55.08C490.758 58.776 493.278 60.288 495.678 60.288C496.95 60.288 498.078 59.88 498.99 59.064C499.494 58.608 499.926 58.008 500.214 57.456L498.774 56.664ZM492.654 53.928C492.918 52.44 494.118 51.336 495.582 51.336C497.046 51.336 498.222 52.368 498.51 53.928H492.654ZM508.538 50.04V60H510.266V51.624H514.826V60H516.554V50.04H508.538ZM527.204 56.664C526.988 57.144 526.628 57.648 526.172 58.032C525.596 58.512 524.948 58.752 524.132 58.752C522.404 58.752 520.988 57.432 520.964 55.368H528.716C528.764 54.048 528.404 52.512 527.78 51.624C527.18 50.76 525.956 49.8 524.012 49.8C521.012 49.8 519.188 52.104 519.188 55.08C519.188 58.776 521.708 60.288 524.108 60.288C525.38 60.288 526.508 59.88 527.42 59.064C527.924 58.608 528.356 58.008 528.644 57.456L527.204 56.664ZM521.084 53.928C521.348 52.44 522.548 51.336 524.012 51.336C525.476 51.336 526.652 52.368 526.94 53.928H521.084ZM533.094 58.608C533.838 59.568 534.966 60.288 536.574 60.288C539.598 60.288 541.35 57.816 541.35 55.08C541.35 52.392 539.622 49.8 536.502 49.8C535.782 49.8 534.27 49.968 533.094 51.432V50.04H531.366V65.52H533.094V58.608ZM536.334 58.752C534.294 58.752 532.998 57.096 532.998 55.056C532.998 52.656 534.702 51.336 536.31 51.336C537.918 51.336 539.574 52.632 539.574 55.08C539.574 57.072 538.35 58.752 536.334 58.752ZM551.799 50.76C551.319 50.424 550.287 49.8 548.703 49.8C545.631 49.8 543.375 52.032 543.375 55.08C543.375 58.08 545.607 60.288 548.703 60.288C549.639 60.288 550.791 60.048 551.871 59.256V57.192C550.959 58.296 549.687 58.752 548.655 58.752C546.879 58.752 545.151 57.48 545.151 55.056C545.151 52.632 546.831 51.336 548.679 51.336C549.567 51.336 550.887 51.672 551.799 52.824V50.76ZM558.921 60.288C561.945 60.288 564.201 58.08 564.201 55.056C564.201 52.032 561.969 49.8 558.921 49.8C555.873 49.8 553.641 52.032 553.641 55.056C553.641 58.08 555.897 60.288 558.921 60.288ZM558.921 51.336C560.745 51.336 562.425 52.608 562.425 55.056C562.425 57.48 560.721 58.752 558.921 58.752C557.145 58.752 555.417 57.504 555.417 55.056C555.417 52.632 557.097 51.336 558.921 51.336ZM566.851 60H568.579V55.704H573.283V60H575.011V50.04H573.283V54.12H568.579V50.04H566.851V60ZM585.897 51.456C585.441 50.856 584.409 49.8 582.489 49.8C579.945 49.8 577.641 51.576 577.641 55.008C577.641 58.512 579.969 60.288 582.489 60.288C584.241 60.288 585.321 59.352 585.897 58.608V60H587.625V50.04H585.897V51.456ZM582.681 51.336C584.217 51.336 585.993 52.464 585.993 55.032C585.993 57 584.793 58.752 582.681 58.752C580.617 58.752 579.417 57.144 579.417 55.008C579.417 52.584 580.977 51.336 582.681 51.336ZM598.434 50.04H591.426V56.112C591.426 56.712 591.402 57.336 591.09 57.816C590.898 58.128 590.49 58.464 589.842 58.464C589.722 58.464 589.578 58.44 589.458 58.416V60C589.626 60.024 589.818 60.048 589.986 60.048C591.33 60.048 592.074 59.376 592.386 58.992C593.154 58.056 593.154 56.952 593.154 56.112V51.624H596.706V60H598.434V50.04ZM601.702 60H605.182C606.166 60 607.246 59.976 608.11 59.16C608.542 58.752 608.998 58.008 608.998 56.928C608.998 55.92 608.614 55.224 608.23 54.84C607.342 53.928 606.094 53.856 605.206 53.856H603.43V50.04H601.702V60ZM603.43 58.464V55.392H605.062C605.614 55.392 606.166 55.392 606.598 55.68C607.102 55.992 607.222 56.496 607.222 56.928C607.222 57.696 606.79 58.056 606.574 58.2C606.166 58.44 605.614 58.464 605.038 58.464H603.43ZM611.312 60H613.04V55.704H617.744V60H619.472V50.04H617.744V54.12H613.04V50.04H611.312V60ZM622.726 60H626.206C627.19 60 628.27 59.976 629.134 59.16C629.566 58.752 630.022 58.008 630.022 56.928C630.022 55.92 629.638 55.224 629.254 54.84C628.366 53.928 627.118 53.856 626.23 53.856H624.454V50.04H622.726V60ZM624.454 58.464V55.392H626.086C626.638 55.392 627.19 55.392 627.622 55.68C628.126 55.992 628.246 56.496 628.246 56.928C628.246 57.696 627.814 58.056 627.598 58.2C627.19 58.44 626.638 58.464 626.062 58.464H624.454ZM631.222 60H632.95V50.04H631.222V60ZM634.762 60H636.874L640.018 55.944L643.162 60H645.274L641.146 54.696L644.794 50.04H642.682L640.066 53.424L637.498 50.04H635.386L639.01 54.672L634.762 60ZM653.422 50.04V54.48C653.422 55.488 653.35 56.424 653.014 57.12C652.678 57.816 652.03 58.392 651.166 58.416V62.64H652.75V60H660.334V62.64H661.918V58.416H660.43V50.04H653.422ZM658.702 58.416H653.95C654.886 57.6 655.15 56.52 655.15 55.368V51.624H658.702V58.416ZM671.373 51.456C670.917 50.856 669.885 49.8 667.965 49.8C665.421 49.8 663.117 51.576 663.117 55.008C663.117 58.512 665.445 60.288 667.965 60.288C669.717 60.288 670.797 59.352 671.373 58.608V60H673.101V50.04H671.373V51.456ZM668.157 51.336C669.693 51.336 671.469 52.464 671.469 55.032C671.469 57 670.269 58.752 668.157 58.752C666.093 58.752 664.893 57.144 664.893 55.008C664.893 52.584 666.453 51.336 668.157 51.336ZM676.374 60H678.102V55.704H682.806V60H684.534V50.04H682.806V54.12H678.102V50.04H676.374V60ZM687.788 60H689.516V55.704H694.22V60H695.948V50.04H694.22V54.12H689.516V50.04H687.788V60ZM699.202 60H702.682C703.666 60 704.746 59.976 705.61 59.16C706.042 58.752 706.498 58.008 706.498 56.928C706.498 55.92 706.114 55.224 705.73 54.84C704.842 53.928 703.594 53.856 702.706 53.856H700.93V50.04H699.202V60ZM700.93 58.464V55.392H702.562C703.114 55.392 703.666 55.392 704.098 55.68C704.602 55.992 704.722 56.496 704.722 56.928C704.722 57.696 704.29 58.056 704.074 58.2C703.666 58.44 703.114 58.464 702.538 58.464H700.93ZM707.698 60H709.426V50.04H707.698V60ZM711.239 60H713.351L716.495 55.944L719.639 60H721.751L717.623 54.696L721.271 50.04H719.159L716.543 53.424L713.975 50.04H711.863L715.487 54.672L711.239 60Z" fill="#0057B3"/>
<g filter="url(#filter0_d_60_332)">
<rect x="748" y="4" width="244" height="64" rx="5" fill="#0057B3" shape-rendering="crispEdges"/>
<path d="M797.859 27.704C793.059 27.704 789.531 31.304 789.531 36.008C789.531 40.712 793.059 44.312 797.859 44.312C802.659 44.312 806.187 40.712 806.187 36.008C806.187 31.304 802.659 27.704 797.859 27.704ZM797.859 42.056C794.427 42.056 791.979 39.56 791.979 36.008C791.979 32.456 794.427 29.96 797.859 29.96C801.291 29.96 803.739 32.456 803.739 36.008C803.739 39.56 801.291 42.056 797.859 42.056ZM816.652 34.352C815.572 33.752 814.66 33.632 813.892 33.632C811.9 33.632 810.628 34.328 809.836 35.12C809.092 35.864 808.3 37.136 808.3 39.032C808.3 40.88 809.02 42.08 809.74 42.824C810.7 43.832 811.9 44.312 813.58 44.312C815.14 44.312 816.076 43.88 816.652 43.52V40.904C815.836 41.816 814.708 42.2 813.748 42.2C812.884 42.2 812.14 41.888 811.612 41.384C811.156 40.928 810.7 40.136 810.7 38.96C810.7 37.832 811.132 37.064 811.564 36.632C811.996 36.2 812.692 35.744 813.796 35.744C814.516 35.744 815.572 35.936 816.652 36.992V34.352ZM826.1 36.056V33.896H817.844V36.056H820.796V44H823.148V36.056H826.1ZM834.923 35.072C833.963 33.824 832.667 33.632 831.923 33.632C829.259 33.632 827.003 35.648 827.003 38.936C827.003 41.72 828.779 44.312 831.899 44.312C832.619 44.312 833.891 44.144 834.923 42.944V44H837.275V33.896H834.923V35.072ZM832.211 35.744C833.699 35.744 835.067 36.8 835.067 39.008C835.067 41.12 833.699 42.2 832.211 42.2C830.507 42.2 829.403 40.736 829.403 38.984C829.403 37.184 830.507 35.744 832.211 35.744ZM840.258 33.896V44H844.986C845.442 44 846.474 43.952 847.314 43.328C847.818 42.944 848.418 42.248 848.418 41.024C848.418 40.112 848.082 39.488 847.626 39.08C847.242 38.744 846.738 38.504 846.258 38.408C847.074 38 847.458 37.256 847.458 36.44C847.458 35.384 846.882 34.784 846.522 34.496C845.754 33.92 844.818 33.896 844.218 33.896H840.258ZM842.61 37.832V35.816H843.762C844.122 35.816 844.482 35.792 844.794 36.008C845.034 36.176 845.202 36.44 845.202 36.8C845.202 37.04 845.13 37.376 844.746 37.616C844.674 37.664 844.362 37.832 843.81 37.832H842.61ZM842.61 42.08V39.752H844.434C844.77 39.752 845.25 39.776 845.61 40.016C845.85 40.16 846.066 40.448 846.066 40.904C846.066 41.36 845.802 41.648 845.586 41.792C845.226 42.032 844.746 42.08 844.362 42.08H842.61ZM850.875 33.896V44.768L857.787 38.12V44H860.139V32.984L853.227 39.632V33.896H850.875ZM870.069 36.056V33.896H861.813V36.056H864.765V44H867.117V36.056H870.069ZM871.758 44H875.43C876.438 44 877.494 44 878.382 43.136C878.838 42.68 879.294 41.888 879.294 40.712C879.294 40.112 879.174 39.248 878.502 38.504C877.59 37.496 876.438 37.472 875.454 37.472H874.11V33.896H871.758V44ZM874.11 41.984V39.488H875.214C875.574 39.488 876.054 39.488 876.438 39.728C876.726 39.92 876.942 40.232 876.942 40.736C876.942 41.36 876.582 41.648 876.414 41.768C876.102 41.96 875.646 41.984 875.19 41.984H874.11ZM888.336 36.512C888.624 36.2 888.936 35.984 889.224 35.84C889.68 35.624 890.064 35.552 890.544 35.552C890.856 35.552 891.336 35.576 891.672 35.816C891.888 35.96 892.104 36.248 892.104 36.68C892.104 37.184 891.864 37.424 891.672 37.568C891.384 37.76 890.856 37.832 890.52 37.832H889.632V39.752H890.688C891.264 39.752 891.96 39.752 892.368 40.184C892.56 40.376 892.68 40.664 892.68 41C892.68 41.336 892.536 41.648 892.32 41.888C891.888 42.32 891.12 42.392 890.712 42.392C890.16 42.392 889.608 42.272 889.2 42.008C888.816 41.768 888.504 41.36 888.312 40.952L886.44 41.912C886.824 42.8 887.448 43.376 888.024 43.712C888.936 44.24 889.944 44.312 890.664 44.312C892.296 44.312 893.424 43.952 894.216 43.16C894.792 42.584 895.08 41.864 895.08 40.928C895.08 40.424 894.96 39.776 894.432 39.248C894.072 38.888 893.52 38.624 892.968 38.504C893.256 38.384 893.616 38.192 893.928 37.784C894.288 37.328 894.36 36.896 894.36 36.392C894.36 35.528 894.072 34.88 893.304 34.328C892.488 33.752 891.6 33.632 890.736 33.632C890.088 33.632 889.2 33.704 888.36 34.064C887.664 34.376 887.16 34.784 886.824 35.192L888.336 36.512ZM904.931 35.072C903.971 33.824 902.675 33.632 901.931 33.632C899.267 33.632 897.011 35.648 897.011 38.936C897.011 41.72 898.787 44.312 901.907 44.312C902.627 44.312 903.899 44.144 904.931 42.944V44H907.283V33.896H904.931V35.072ZM902.219 35.744C903.707 35.744 905.075 36.8 905.075 39.008C905.075 41.12 903.707 42.2 902.219 42.2C900.515 42.2 899.411 40.736 899.411 38.984C899.411 37.184 900.515 35.744 902.219 35.744ZM908.969 44H911.729L914.489 40.28H914.969V44H917.321V33.896H913.553C912.521 33.896 911.489 33.992 910.625 34.808C909.833 35.552 909.689 36.488 909.689 37.136C909.689 37.856 909.881 38.6 910.529 39.224C910.913 39.584 911.465 39.896 912.137 39.992L908.969 44ZM914.969 38.36H913.577C913.001 38.36 912.569 38.312 912.281 38.12C912.041 37.952 911.801 37.64 911.801 37.136C911.801 36.68 912.065 36.32 912.377 36.128C912.713 35.936 913.145 35.912 913.601 35.912H914.969V38.36ZM920.297 33.896V44H925.025C925.481 44 926.513 43.952 927.353 43.328C927.857 42.944 928.457 42.248 928.457 41.024C928.457 40.112 928.121 39.488 927.665 39.08C927.281 38.744 926.777 38.504 926.297 38.408C927.113 38 927.497 37.256 927.497 36.44C927.497 35.384 926.921 34.784 926.561 34.496C925.793 33.92 924.857 33.896 924.257 33.896H920.297ZM922.649 37.832V35.816H923.801C924.161 35.816 924.521 35.792 924.833 36.008C925.073 36.176 925.241 36.44 925.241 36.8C925.241 37.04 925.169 37.376 924.785 37.616C924.713 37.664 924.401 37.832 923.849 37.832H922.649ZM922.649 42.08V39.752H924.473C924.809 39.752 925.289 39.776 925.649 40.016C925.889 40.16 926.105 40.448 926.105 40.904C926.105 41.36 925.841 41.648 925.625 41.792C925.265 42.032 924.785 42.08 924.401 42.08H922.649ZM930.914 33.896V44H933.266V40.232L933.65 39.848L937.01 44H939.986L935.33 38.312L939.746 33.896H936.626L933.266 37.496V33.896H930.914ZM940.787 49.496H943.427L951.467 33.896H948.827L945.899 39.8L943.019 33.896H940.187L944.507 42.416L940.787 49.496Z" fill="white"/>
</g>
<defs>
<filter id="filter0_d_60_332" x="740" y="0" width="260" height="80" filterUnits="userSpaceOnUse" color-interpolation-filters="sRGB">
<feFlood flood-opacity="0" result="BackgroundImageFix"/>
<feColorMatrix in="SourceAlpha" type="matrix" values="0 0 0 0 0 0 0 0 0 0 0 0 0 0 0 0 0 0 127 0" result="hardAlpha"/>
<feOffset dy="4"/>
<feGaussianBlur stdDeviation="4"/>
<feComposite in2="hardAlpha" operator="out"/>
<feColorMatrix type="matrix" values="0 0 0 0 0 0 0 0 0 0 0 0 0 0 0 0 0 0 0.15 0"/>
<feBlend mode="normal" in2="BackgroundImageFix" result="effect1_dropShadow_60_332"/>
<feBlend mode="normal" in="SourceGraphic" in2="effect1_dropShadow_60_332" result="shape"/>
</filter>
</defs>
</svg>
