<svg width="260" height="80" viewBox="0 0 260 80" fill="none" xmlns="http://www.w3.org/2000/svg">
<g filter="url(#filter0_d_60_331)">
<rect x="8" y="4" width="244" height="64" rx="5" fill="#0057B3" shape-rendering="crispEdges"/>
<path d="M57.8589 27.704C53.0589 27.704 49.5309 31.304 49.5309 36.008C49.5309 40.712 53.0589 44.312 57.8589 44.312C62.6589 44.312 66.1869 40.712 66.1869 36.008C66.1869 31.304 62.6589 27.704 57.8589 27.704ZM57.8589 42.056C54.4269 42.056 51.9789 39.56 51.9789 36.008C51.9789 32.456 54.4269 29.96 57.8589 29.96C61.2909 29.96 63.7389 32.456 63.7389 36.008C63.7389 39.56 61.2909 42.056 57.8589 42.056ZM76.6518 34.352C75.5718 33.752 74.6598 33.632 73.8918 33.632C71.8998 33.632 70.6278 34.328 69.8358 35.12C69.0918 35.864 68.2998 37.136 68.2998 39.032C68.2998 40.88 69.0198 42.08 69.7398 42.824C70.6998 43.832 71.8998 44.312 73.5798 44.312C75.1398 44.312 76.0758 43.88 76.6518 43.52V40.904C75.8358 41.816 74.7078 42.2 73.7478 42.2C72.8838 42.2 72.1398 41.888 71.6118 41.384C71.1558 40.928 70.6998 40.136 70.6998 38.96C70.6998 37.832 71.1318 37.064 71.5638 36.632C71.9958 36.2 72.6918 35.744 73.7958 35.744C74.5158 35.744 75.5718 35.936 76.6518 36.992V34.352ZM86.1003 36.056V33.896H77.8443V36.056H80.7963V44H83.1483V36.056H86.1003ZM94.923 35.072C93.963 33.824 92.667 33.632 91.923 33.632C89.259 33.632 87.003 35.648 87.003 38.936C87.003 41.72 88.779 44.312 91.899 44.312C92.619 44.312 93.891 44.144 94.923 42.944V44H97.275V33.896H94.923V35.072ZM92.211 35.744C93.699 35.744 95.067 36.8 95.067 39.008C95.067 41.12 93.699 42.2 92.211 42.2C90.507 42.2 89.403 40.736 89.403 38.984C89.403 37.184 90.507 35.744 92.211 35.744ZM100.258 33.896V44H104.986C105.442 44 106.474 43.952 107.314 43.328C107.818 42.944 108.418 42.248 108.418 41.024C108.418 40.112 108.082 39.488 107.626 39.08C107.242 38.744 106.738 38.504 106.258 38.408C107.074 38 107.458 37.256 107.458 36.44C107.458 35.384 106.882 34.784 106.522 34.496C105.754 33.92 104.818 33.896 104.218 33.896H100.258ZM102.61 37.832V35.816H103.762C104.122 35.816 104.482 35.792 104.794 36.008C105.034 36.176 105.202 36.44 105.202 36.8C105.202 37.04 105.13 37.376 104.746 37.616C104.674 37.664 104.362 37.832 103.81 37.832H102.61ZM102.61 42.08V39.752H104.434C104.77 39.752 105.25 39.776 105.61 40.016C105.85 40.16 106.066 40.448 106.066 40.904C106.066 41.36 105.802 41.648 105.586 41.792C105.226 42.032 104.746 42.08 104.362 42.08H102.61ZM110.875 33.896V44.768L117.787 38.12V44H120.139V32.984L113.227 39.632V33.896H110.875ZM130.069 36.056V33.896H121.813V36.056H124.765V44H127.117V36.056H130.069ZM131.758 44H135.43C136.438 44 137.494 44 138.382 43.136C138.838 42.68 139.294 41.888 139.294 40.712C139.294 40.112 139.174 39.248 138.502 38.504C137.59 37.496 136.438 37.472 135.454 37.472H134.11V33.896H131.758V44ZM134.11 41.984V39.488H135.214C135.574 39.488 136.054 39.488 136.438 39.728C136.726 39.92 136.942 40.232 136.942 40.736C136.942 41.36 136.582 41.648 136.414 41.768C136.102 41.96 135.646 41.984 135.19 41.984H134.11ZM148.336 36.512C148.624 36.2 148.936 35.984 149.224 35.84C149.68 35.624 150.064 35.552 150.544 35.552C150.856 35.552 151.336 35.576 151.672 35.816C151.888 35.96 152.104 36.248 152.104 36.68C152.104 37.184 151.864 37.424 151.672 37.568C151.384 37.76 150.856 37.832 150.52 37.832H149.632V39.752H150.688C151.264 39.752 151.96 39.752 152.368 40.184C152.56 40.376 152.68 40.664 152.68 41C152.68 41.336 152.536 41.648 152.32 41.888C151.888 42.32 151.12 42.392 150.712 42.392C150.16 42.392 149.608 42.272 149.2 42.008C148.816 41.768 148.504 41.36 148.312 40.952L146.44 41.912C146.824 42.8 147.448 43.376 148.024 43.712C148.936 44.24 149.944 44.312 150.664 44.312C152.296 44.312 153.424 43.952 154.216 43.16C154.792 42.584 155.08 41.864 155.08 40.928C155.08 40.424 154.96 39.776 154.432 39.248C154.072 38.888 153.52 38.624 152.968 38.504C153.256 38.384 153.616 38.192 153.928 37.784C154.288 37.328 154.36 36.896 154.36 36.392C154.36 35.528 154.072 34.88 153.304 34.328C152.488 33.752 151.6 33.632 150.736 33.632C150.088 33.632 149.2 33.704 148.36 34.064C147.664 34.376 147.16 34.784 146.824 35.192L148.336 36.512ZM164.931 35.072C163.971 33.824 162.675 33.632 161.931 33.632C159.267 33.632 157.011 35.648 157.011 38.936C157.011 41.72 158.787 44.312 161.907 44.312C162.627 44.312 163.899 44.144 164.931 42.944V44H167.283V33.896H164.931V35.072ZM162.219 35.744C163.707 35.744 165.075 36.8 165.075 39.008C165.075 41.12 163.707 42.2 162.219 42.2C160.515 42.2 159.411 40.736 159.411 38.984C159.411 37.184 160.515 35.744 162.219 35.744ZM168.969 44H171.729L174.489 40.28H174.969V44H177.321V33.896H173.553C172.521 33.896 171.489 33.992 170.625 34.808C169.833 35.552 169.689 36.488 169.689 37.136C169.689 37.856 169.881 38.6 170.529 39.224C170.913 39.584 171.465 39.896 172.137 39.992L168.969 44ZM174.969 38.36H173.577C173.001 38.36 172.569 38.312 172.281 38.12C172.041 37.952 171.801 37.64 171.801 37.136C171.801 36.68 172.065 36.32 172.377 36.128C172.713 35.936 173.145 35.912 173.601 35.912H174.969V38.36ZM180.297 33.896V44H185.025C185.481 44 186.513 43.952 187.353 43.328C187.857 42.944 188.457 42.248 188.457 41.024C188.457 40.112 188.121 39.488 187.665 39.08C187.281 38.744 186.777 38.504 186.297 38.408C187.113 38 187.497 37.256 187.497 36.44C187.497 35.384 186.921 34.784 186.561 34.496C185.793 33.92 184.857 33.896 184.257 33.896H180.297ZM182.649 37.832V35.816H183.801C184.161 35.816 184.521 35.792 184.833 36.008C185.073 36.176 185.241 36.44 185.241 36.8C185.241 37.04 185.169 37.376 184.785 37.616C184.713 37.664 184.401 37.832 183.849 37.832H182.649ZM182.649 42.08V39.752H184.473C184.809 39.752 185.289 39.776 185.649 40.016C185.889 40.16 186.105 40.448 186.105 40.904C186.105 41.36 185.841 41.648 185.625 41.792C185.265 42.032 184.785 42.08 184.401 42.08H182.649ZM190.914 33.896V44H193.266V40.232L193.65 39.848L197.01 44H199.986L195.33 38.312L199.746 33.896H196.626L193.266 37.496V33.896H190.914ZM200.787 49.496H203.427L211.467 33.896H208.827L205.899 39.8L203.019 33.896H200.187L204.507 42.416L200.787 49.496Z" fill="white"/>
</g>
<defs>
<filter id="filter0_d_60_331" x="0" y="0" width="260" height="80" filterUnits="userSpaceOnUse" color-interpolation-filters="sRGB">
<feFlood flood-opacity="0" result="BackgroundImageFix"/>
<feColorMatrix in="SourceAlpha" type="matrix" values="0 0 0 0 0 0 0 0 0 0 0 0 0 0 0 0 0 0 127 0" result="hardAlpha"/>
<feOffset dy="4"/>
<feGaussianBlur stdDeviation="4"/>
<feComposite in2="hardAlpha" operator="out"/>
<feColorMatrix type="matrix" values="0 0 0 0 0 0 0 0 0 0 0 0 0 0 0 0 0 0 0.15 0"/>
<feBlend mode="normal" in2="BackgroundImageFix" result="effect1_dropShadow_60_331"/>
<feBlend mode="normal" in="SourceGraphic" in2="effect1_dropShadow_60_331" result="shape"/>
</filter>
</defs>
</svg>
