<svg width="194" height="46" viewBox="0 0 194 46" fill="none" xmlns="http://www.w3.org/2000/svg">
<path d="M6.81 11.99H2.19V32H6.81V23.12L13.98 32H19.92L11.19 21.47L19.29 11.99H13.65L6.81 20.33V11.99ZM35.9002 25.31C35.9002 23.6 35.2402 21.68 33.8902 20.33C32.6902 19.13 30.6502 18.17 28.0402 18.17C25.4302 18.17 23.3902 19.13 22.1902 20.33C20.8402 21.68 20.1802 23.6 20.1802 25.31C20.1802 27.02 20.8402 28.94 22.1902 30.29C23.3902 31.49 25.4302 32.45 28.0402 32.45C30.6502 32.45 32.6902 31.49 33.8902 30.29C35.2402 28.94 35.9002 27.02 35.9002 25.31ZM28.0402 21.83C29.0302 21.83 29.8402 22.16 30.4702 22.79C31.1002 23.42 31.4602 24.23 31.4602 25.31C31.4602 26.39 31.1002 27.2 30.4702 27.83C29.8402 28.46 29.0302 28.79 28.0702 28.79C26.9302 28.79 26.1502 28.37 25.6102 27.83C25.1002 27.32 24.6202 26.54 24.6202 25.31C24.6202 24.23 24.9802 23.42 25.6102 22.79C26.2402 22.16 27.0502 21.83 28.0402 21.83ZM38.5941 32H42.9141V26.75H47.7441V32H52.0641V18.62H47.7441V23.27H42.9141V18.62H38.5941V32ZM65.4605 18.92C64.3205 18.38 63.2405 18.17 62.0705 18.17C60.2405 18.17 58.4705 18.65 56.9705 20.06C55.7105 21.26 54.7505 23.06 54.7505 25.34C54.7505 27.77 55.8305 29.45 56.8505 30.44C58.0805 31.64 59.7905 32.45 62.0405 32.45C63.2405 32.45 64.3205 32.27 65.4605 31.64V27.74C64.4705 28.58 63.4505 28.79 62.7005 28.79C61.7405 28.79 60.7505 28.43 60.0905 27.71C59.5505 27.14 59.1905 26.3 59.1905 25.31C59.1905 24.23 59.6105 23.36 60.1805 22.79C60.4805 22.49 61.2905 21.83 62.6405 21.83C63.3305 21.83 64.4105 21.98 65.4605 22.85V18.92ZM68.3904 38.87H73.2504L84.0204 18.62H79.1604L75.4704 25.88L71.6904 18.62H66.7104L73.1004 30.29L68.3904 38.87ZM98.6663 18.62H86.7563V26.03C86.7563 27.53 86.3063 28.04 86.2163 28.16C85.6763 28.76 84.6863 28.7 84.1463 28.55V31.97C84.7163 32.12 85.1963 32.18 85.8263 32.18C86.9963 32.18 88.3763 32.03 89.5163 30.77C90.1763 30.02 90.8363 28.76 90.8363 26.21V22.1H94.3463V32H98.6663V18.62ZM106.342 23.21V18.62H102.022V32H109.342C110.452 32 111.922 31.91 113.032 30.83C114.082 29.81 114.232 28.46 114.232 27.5C114.232 26.69 114.112 25.43 113.152 24.47C112.792 24.11 111.712 23.21 109.522 23.21H106.342ZM106.342 28.94V26.27H108.142C108.412 26.27 109.042 26.3 109.432 26.6C109.582 26.72 109.852 27.02 109.852 27.56C109.852 27.95 109.702 28.34 109.432 28.58C109.042 28.94 108.442 28.94 108.112 28.94H106.342ZM126.076 22.1V18.62H114.556V22.1H118.156V32H122.476V22.1H126.076ZM138.268 20.12C137.038 18.44 135.208 18.17 134.068 18.17C132.208 18.17 130.588 18.83 129.418 20C128.188 21.23 127.348 23.15 127.348 25.4C127.348 27.17 127.888 28.91 129.298 30.41C130.768 31.97 132.388 32.45 134.308 32.45C135.418 32.45 137.098 32.18 138.268 30.38V32H142.588V18.62H138.268V20.12ZM135.148 21.89C135.928 21.89 136.888 22.19 137.548 22.82C138.178 23.42 138.538 24.32 138.538 25.28C138.538 26.42 138.058 27.26 137.488 27.8C136.918 28.37 136.108 28.73 135.238 28.73C134.218 28.73 133.288 28.31 132.688 27.68C132.298 27.26 131.788 26.48 131.788 25.28C131.788 24.08 132.328 23.3 132.778 22.85C133.348 22.28 134.218 21.89 135.148 21.89ZM145.938 32H157.488V35.78H161.328V28.52H159.138V18.62H154.818V28.52H150.258V18.62H145.938V32ZM163.194 18.62V32H167.214L172.914 24.23V32H177.234V18.62H173.214L167.514 26.27V18.62H163.194ZM179.456 32H184.136L187.256 27.53H187.676V32H191.996V18.62H185.606C184.196 18.62 182.456 18.77 181.196 20C180.236 20.96 179.966 22.16 179.966 23.3C179.966 24.29 180.146 25.19 180.986 26C181.586 26.6 182.426 27.02 183.296 27.17L179.456 32ZM187.676 24.71H186.236C185.996 24.71 185.156 24.68 184.706 24.29C184.556 24.14 184.286 23.81 184.286 23.24C184.286 22.67 184.496 22.25 184.796 22.01C185.186 21.71 185.786 21.68 186.146 21.68H187.676V24.71Z" fill="#FFAA1A"/>
<rect y="44" width="73" height="2" fill="#FFAA1A"/>
</svg>
