<svg width="28" height="26" viewBox="0 0 28 26" fill="none" xmlns="http://www.w3.org/2000/svg">
<g clip-path="url(#clip0_30_235)">
<path d="M14.6997 1.13446H14.6935C7.83729 1.13446 2.26184 6.71146 2.26184 13.5692C2.26184 16.2894 3.13849 18.8105 4.62911 20.8576L3.07943 25.4771L7.85905 23.9492C9.8253 25.2517 12.1708 26.004 14.6997 26.004C21.556 26.004 27.1314 20.4255 27.1314 13.5692C27.1314 6.71301 21.556 1.13446 14.6997 1.13446ZM21.9352 18.6939C21.6352 19.541 20.4446 20.2436 19.4949 20.4488C18.8452 20.5871 17.9965 20.6975 15.1396 19.5131C11.4853 17.9991 9.13206 14.2858 8.94865 14.0449C8.773 13.8039 7.47201 12.0786 7.47201 10.2942C7.47201 8.50984 8.3782 7.64096 8.74347 7.26792C9.04346 6.96171 9.5393 6.82182 10.0149 6.82182C10.1688 6.82182 10.3071 6.82959 10.4315 6.83581C10.7968 6.85135 10.9802 6.87311 11.2211 7.44977C11.5211 8.17255 12.2516 9.95694 12.3387 10.1404C12.4273 10.3238 12.5159 10.5725 12.3915 10.8134C12.275 11.0621 12.1724 11.1724 11.9889 11.3838C11.8055 11.5952 11.6314 11.7569 11.448 11.9838C11.2802 12.1812 11.0905 12.3926 11.3019 12.7579C11.5133 13.1154 12.2439 14.3076 13.3195 15.265C14.7075 16.5007 15.8329 16.8955 16.2354 17.0634C16.5354 17.1878 16.8929 17.1582 17.1121 16.9251C17.3903 16.6251 17.7338 16.1277 18.0835 15.6381C18.3322 15.2868 18.6462 15.2433 18.9757 15.3676C19.3115 15.4842 21.0881 16.3624 21.4534 16.5443C21.8186 16.7277 22.0596 16.8147 22.1482 16.9686C22.2352 17.1225 22.2352 17.8453 21.9352 18.6939Z" fill="#FFAA1A"/>
</g>
<g clip-path="url(#clip1_30_235)">
<path d="M21.3382 3.53641C19.0601 1.2584 16.0321 0.00402832 12.8103 0.00402832C12.8101 0.00402832 12.8094 0.00402832 12.8092 0.00402832C11.2157 0.00421806 9.66291 0.312735 8.19413 0.92123C6.72517 1.52973 5.40913 2.40955 4.28227 3.53641C2.00444 5.81424 0.750072 8.84286 0.750072 12.0643C0.750072 13.9854 1.21361 15.8945 2.09191 17.5956L0.064732 23.3868C-0.078142 23.7953 0.0229892 24.2393 0.329229 24.5453C0.543445 24.7598 0.825399 24.8736 1.11532 24.8736C1.2396 24.8736 1.36521 24.8527 1.48778 24.8098L7.27902 22.7829C8.98003 23.6612 10.8892 24.1247 12.8103 24.1247C16.0317 24.1247 19.0601 22.8701 21.3382 20.5923C23.616 18.3145 24.8705 15.2859 24.8705 12.0645C24.8705 8.84286 23.6162 5.81424 21.3382 3.53641ZM20.3067 19.5609C18.3044 21.5634 15.642 22.666 12.8103 22.666C11.078 22.666 9.35705 22.2375 7.83344 21.4266C7.55717 21.2797 7.23063 21.2545 6.93748 21.3571L1.676 23.1986L3.51762 17.9371C3.62026 17.6436 3.59484 17.317 3.44798 17.0409C2.63722 15.5177 2.2086 13.7968 2.2086 12.0643C2.2086 9.23259 3.31137 6.57016 5.31369 4.56784C7.31583 2.5657 9.97787 1.46294 12.8094 1.46256H12.8103C15.6422 1.46256 18.3044 2.56533 20.3067 4.56784C22.3092 6.57016 23.412 9.2324 23.412 12.0643C23.412 14.8961 22.3092 17.5586 20.3067 19.5609Z" fill="#434343"/>
<path d="M17.2923 13.1416C16.7375 12.5868 15.8347 12.5868 15.2799 13.1416L14.6731 13.7484C13.1664 12.9274 11.9472 11.7081 11.126 10.2014L11.7327 9.59461C12.2877 9.03981 12.2877 8.13703 11.7327 7.58223L10.0976 5.94706C9.54277 5.39226 8.63999 5.39226 8.08519 5.94706L6.77712 7.25512C6.02784 8.0044 5.99046 9.29255 6.67182 10.8824C7.26342 12.2627 8.34608 13.7799 9.72036 15.1542C11.0946 16.5285 12.6118 17.6111 13.9922 18.2027C14.7475 18.5264 15.4346 18.6879 16.0283 18.6879C16.6842 18.6879 17.2261 18.4907 17.6194 18.0974L18.9275 16.7892V16.7894C19.1963 16.5205 19.3443 16.1632 19.3443 15.7832C19.3443 15.4029 19.1963 15.0456 18.9275 14.777L17.2923 13.1416ZM16.588 17.066C16.3742 17.2798 15.7165 17.3548 14.5669 16.8622C13.3529 16.3419 11.998 15.369 10.7518 14.1228C9.50558 12.8765 8.53278 11.5218 8.01252 10.3078C7.51976 9.15821 7.59471 8.50038 7.80855 8.28655L9.09157 7.00353L10.6763 8.58842L9.91675 9.34814C9.57332 9.69157 9.4904 10.2124 9.71069 10.6443C10.7093 12.6024 12.2722 14.1653 14.2303 15.1639C14.6623 15.3841 15.1832 15.3014 15.5266 14.9578L16.2861 14.1983L17.871 15.7832L16.588 17.066Z" fill="#434343"/>
</g>
<defs>
<clipPath id="clip0_30_235">
<rect width="24.8696" height="24.8696" fill="white" transform="translate(2.26184 1.13446)"/>
</clipPath>
<clipPath id="clip1_30_235">
<rect width="24.8696" height="24.8696" fill="white" transform="translate(0.000976562 0.00402832)"/>
</clipPath>
</defs>
</svg>
