<svg width="437" height="351" viewBox="0 0 437 351" fill="none" xmlns="http://www.w3.org/2000/svg">
<g filter="url(#filter0_d_52_294)">
<rect x="16.75" y="12" width="403.75" height="319" rx="5" fill="white"/>
</g>
<path d="M16.75 17C16.75 14.2386 18.9886 12 21.75 12H415.5C418.261 12 420.5 14.2386 420.5 17V70H16.75V17Z" fill="#0057B3"/>
<path d="M37.2734 97.99V118H42.2534C43.6334 118 45.4634 117.94 47.0534 116.68C48.1334 115.84 49.0934 114.28 49.0934 112.36C49.0934 110.44 48.0734 108.01 45.2834 107.32C47.0534 106.12 47.2634 104.38 47.2634 103.39C47.2634 100.96 46.0934 99.73 45.4634 99.25C43.9934 98.08 41.9834 97.99 40.8734 97.99H37.2734ZM39.4934 100.09H41.2334C41.8634 100.09 45.1034 100.15 45.1034 103.45C45.1034 106.54 42.3434 106.78 41.1734 106.78H39.4934V100.09ZM39.4934 108.76H41.7734C43.3634 108.76 44.4134 108.94 45.1634 109.36C45.9434 109.78 46.8734 110.71 46.8734 112.3C46.8734 113.5 46.3334 114.49 45.5534 115.06C44.5934 115.81 43.3334 115.9 42.0434 115.9H39.4934V108.76ZM52.6416 118H56.9916C58.2216 118 59.5716 117.97 60.6516 116.95C61.1916 116.44 61.7616 115.51 61.7616 114.16C61.7616 112.9 61.2816 112.03 60.8016 111.55C59.6916 110.41 58.1316 110.32 57.0216 110.32H54.8016V105.55H52.6416V118ZM54.8016 116.08V112.24H56.8416C57.5316 112.24 58.2216 112.24 58.7616 112.6C59.3916 112.99 59.5416 113.62 59.5416 114.16C59.5416 115.12 59.0016 115.57 58.7316 115.75C58.2216 116.05 57.5316 116.08 56.8116 116.08H54.8016ZM63.2616 118H65.4216V105.55H63.2616V118ZM69.4873 105.55V118H71.6473V107.53H77.3473V118H79.5073V105.55H69.4873ZM89.3991 118.36C93.1791 118.36 95.9991 115.6 95.9991 111.82C95.9991 108.04 93.2091 105.25 89.3991 105.25C85.5891 105.25 82.7991 108.04 82.7991 111.82C82.7991 115.6 85.6191 118.36 89.3991 118.36ZM89.3991 107.17C91.6791 107.17 93.7791 108.76 93.7791 111.82C93.7791 114.85 91.6491 116.44 89.3991 116.44C87.1791 116.44 85.0191 114.88 85.0191 111.82C85.0191 108.79 87.1191 107.17 89.3991 107.17ZM108.731 105.55H99.9715V113.14C99.9715 113.89 99.9415 114.67 99.5515 115.27C99.3115 115.66 98.8015 116.08 97.9915 116.08C97.8415 116.08 97.6615 116.05 97.5115 116.02V118C97.7215 118.03 97.9615 118.06 98.1715 118.06C99.8515 118.06 100.781 117.22 101.171 116.74C102.131 115.57 102.131 114.19 102.131 113.14V107.53H106.571V118H108.731V105.55ZM112.817 118H114.977V112.63H120.857V118H123.017V105.55H120.857V110.65H114.977V105.55H112.817V118ZM125.645 118H128.225L131.765 112.99H133.085V118H135.245V105.55H130.895C129.665 105.55 128.315 105.58 127.235 106.6C126.545 107.23 126.125 108.22 126.125 109.39C126.125 110.56 126.605 111.4 127.115 111.88C128.015 112.75 129.365 112.87 129.515 112.87L125.645 118ZM133.085 111.19H131.045C130.535 111.19 129.755 111.22 129.125 110.83C128.585 110.5 128.345 109.99 128.345 109.33C128.345 108.52 128.765 108.04 129.125 107.8C129.575 107.53 130.205 107.47 131.075 107.47H133.085V111.19ZM148.571 113.83C148.301 114.43 147.851 115.06 147.281 115.54C146.561 116.14 145.751 116.44 144.731 116.44C142.571 116.44 140.801 114.79 140.771 112.21H150.461C150.521 110.56 150.071 108.64 149.291 107.53C148.541 106.45 147.011 105.25 144.581 105.25C140.831 105.25 138.551 108.13 138.551 111.85C138.551 116.47 141.701 118.36 144.701 118.36C146.291 118.36 147.701 117.85 148.841 116.83C149.471 116.26 150.011 115.51 150.371 114.82L148.571 113.83ZM140.921 110.41C141.251 108.55 142.751 107.17 144.581 107.17C146.411 107.17 147.881 108.46 148.241 110.41H140.921ZM161.934 107.53V105.55H151.974V107.53H155.874V118H158.034V107.53H161.934ZM180.626 105.55H171.866V113.14C171.866 113.89 171.836 114.67 171.446 115.27C171.206 115.66 170.696 116.08 169.886 116.08C169.736 116.08 169.556 116.05 169.406 116.02V118C169.616 118.03 169.856 118.06 170.066 118.06C171.746 118.06 172.676 117.22 173.066 116.74C174.026 115.57 174.026 114.19 174.026 113.14V107.53H178.466V118H180.626V105.55ZM184.712 105.55V118.87L193.232 109.69V118H195.392V104.59L186.872 113.77V105.55H184.712ZM216.229 106.45C215.629 106.03 214.339 105.25 212.359 105.25C208.519 105.25 205.699 108.04 205.699 111.85C205.699 115.6 208.489 118.36 212.359 118.36C213.529 118.36 214.969 118.06 216.319 117.07V114.49C215.179 115.87 213.589 116.44 212.299 116.44C210.079 116.44 207.919 114.85 207.919 111.82C207.919 108.79 210.019 107.17 212.329 107.17C213.439 107.17 215.089 107.59 216.229 109.03V106.45ZM219.634 105.55V118H221.794V107.53H227.494V118H229.654V105.55H219.634ZM239.546 118.36C243.326 118.36 246.146 115.6 246.146 111.82C246.146 108.04 243.356 105.25 239.546 105.25C235.736 105.25 232.946 108.04 232.946 111.82C232.946 115.6 235.766 118.36 239.546 118.36ZM239.546 107.17C241.826 107.17 243.926 108.76 243.926 111.82C243.926 114.85 241.796 116.44 239.546 116.44C237.326 116.44 235.166 114.88 235.166 111.82C235.166 108.79 237.266 107.17 239.546 107.17ZM251.618 116.26C252.548 117.46 253.958 118.36 255.968 118.36C259.748 118.36 261.938 115.27 261.938 111.85C261.938 108.49 259.778 105.25 255.878 105.25C254.978 105.25 253.088 105.46 251.618 107.29V105.55H249.458V124.9H251.618V116.26ZM255.668 116.44C253.118 116.44 251.498 114.37 251.498 111.82C251.498 108.82 253.628 107.17 255.638 107.17C257.648 107.17 259.718 108.79 259.718 111.85C259.718 114.34 258.188 116.44 255.668 116.44ZM265.249 118H267.409V112.63H273.289V118H275.449V105.55H273.289V110.65H267.409V105.55H265.249V118ZM279.517 118H283.867C285.097 118 286.447 117.97 287.527 116.95C288.067 116.44 288.637 115.51 288.637 114.16C288.637 112.9 288.157 112.03 287.677 111.55C286.567 110.41 285.007 110.32 283.897 110.32H281.677V105.55H279.517V118ZM281.677 116.08V112.24H283.717C284.407 112.24 285.097 112.24 285.637 112.6C286.267 112.99 286.417 113.62 286.417 114.16C286.417 115.12 285.877 115.57 285.607 115.75C285.097 116.05 284.407 116.08 283.687 116.08H281.677ZM290.137 118H292.297V105.55H290.137V118ZM296.362 105.55V118.87L304.882 109.69V118H307.042V104.59L298.522 113.77V105.55H296.362ZM297.442 100.18C298.072 101.95 299.692 103.09 301.792 103.09C303.892 103.09 305.512 101.95 306.142 100.18L304.342 99.49C304.042 100.51 303.202 101.29 301.792 101.29C300.382 101.29 299.542 100.51 299.242 99.49L297.442 100.18ZM36.7334 141.55V154H38.8934V143.53H44.5934V154H46.7534V141.55H36.7334ZM52.9852 152.26C53.9152 153.46 55.3252 154.36 57.3352 154.36C61.1152 154.36 63.3052 151.27 63.3052 147.85C63.3052 144.49 61.1452 141.25 57.2452 141.25C56.3452 141.25 54.4552 141.46 52.9852 143.29V141.55H50.8252V160.9H52.9852V152.26ZM57.0352 152.44C54.4852 152.44 52.8652 150.37 52.8652 147.82C52.8652 144.82 54.9952 143.17 57.0052 143.17C59.0152 143.17 61.0852 144.79 61.0852 147.85C61.0852 150.34 59.5552 152.44 57.0352 152.44ZM72.4362 154.36C76.2162 154.36 79.0362 151.6 79.0362 147.82C79.0362 144.04 76.2462 141.25 72.4362 141.25C68.6262 141.25 65.8362 144.04 65.8362 147.82C65.8362 151.6 68.6562 154.36 72.4362 154.36ZM72.4362 143.17C74.7162 143.17 76.8162 144.76 76.8162 147.82C76.8162 150.85 74.6862 152.44 72.4362 152.44C70.2162 152.44 68.0562 150.88 68.0562 147.82C68.0562 144.79 70.1562 143.17 72.4362 143.17ZM82.3486 154H84.5086V143.53H89.7286V141.55H82.3486V154ZM94.0594 152.26C94.9894 153.46 96.3994 154.36 98.4094 154.36C102.189 154.36 104.379 151.27 104.379 147.85C104.379 144.49 102.219 141.25 98.3194 141.25C97.4194 141.25 95.5294 141.46 94.0594 143.29V141.55H91.8994V160.9H94.0594V152.26ZM98.1094 152.44C95.5594 152.44 93.9394 150.37 93.9394 147.82C93.9394 144.82 96.0694 143.17 98.0794 143.17C100.089 143.17 102.159 144.79 102.159 147.85C102.159 150.34 100.629 152.44 98.1094 152.44ZM117.23 143.32C116.66 142.57 115.37 141.25 112.97 141.25C109.79 141.25 106.91 143.47 106.91 147.76C106.91 152.14 109.82 154.36 112.97 154.36C115.16 154.36 116.51 153.19 117.23 152.26V154H119.39V141.55H117.23V143.32ZM113.21 143.17C115.13 143.17 117.35 144.58 117.35 147.79C117.35 150.25 115.85 152.44 113.21 152.44C110.63 152.44 109.13 150.43 109.13 147.76C109.13 144.73 111.08 143.17 113.21 143.17ZM122.041 154H124.261L125.851 146.29L130.141 154.87L134.371 146.29L136.021 154H138.241L135.241 140.59L130.201 150.73L125.041 140.59L122.041 154ZM139.444 154H141.664L143.254 146.29L147.544 154.87L151.774 146.29L153.424 154H155.644L152.644 140.59L147.604 150.73L142.444 140.59L139.444 154ZM158.286 154H160.446V148.63H166.326V154H168.486V141.55H166.326V146.65H160.446V141.55H158.286V154ZM172.554 154H176.904C178.134 154 179.484 153.97 180.564 152.95C181.104 152.44 181.674 151.51 181.674 150.16C181.674 148.9 181.194 148.03 180.714 147.55C179.604 146.41 178.044 146.32 176.934 146.32H174.714V141.55H172.554V154ZM174.714 152.08V148.24H176.754C177.444 148.24 178.134 148.24 178.674 148.6C179.304 148.99 179.454 149.62 179.454 150.16C179.454 151.12 178.914 151.57 178.644 151.75C178.134 152.05 177.444 152.08 176.724 152.08H174.714ZM183.174 154H185.334V141.55H183.174V154ZM189.399 141.55V154.87L197.919 145.69V154H200.079V140.59L191.559 149.77V141.55H189.399ZM190.479 136.18C191.109 137.95 192.729 139.09 194.829 139.09C196.929 139.09 198.549 137.95 199.179 136.18L197.379 135.49C197.079 136.51 196.239 137.29 194.829 137.29C193.419 137.29 192.579 136.51 192.279 135.49L190.479 136.18ZM211.167 141.55V154H213.327V143.53H219.027V154H221.187V141.55H211.167ZM227.419 152.26C228.349 153.46 229.759 154.36 231.769 154.36C235.549 154.36 237.739 151.27 237.739 147.85C237.739 144.49 235.579 141.25 231.679 141.25C230.779 141.25 228.889 141.46 227.419 143.29V141.55H225.259V160.9H227.419V152.26ZM231.469 152.44C228.919 152.44 227.299 150.37 227.299 147.82C227.299 144.82 229.429 143.17 231.439 143.17C233.449 143.17 235.519 144.79 235.519 147.85C235.519 150.34 233.989 152.44 231.469 152.44ZM246.87 154.36C250.65 154.36 253.47 151.6 253.47 147.82C253.47 144.04 250.68 141.25 246.87 141.25C243.06 141.25 240.27 144.04 240.27 147.82C240.27 151.6 243.09 154.36 246.87 154.36ZM246.87 143.17C249.15 143.17 251.25 144.76 251.25 147.82C251.25 150.85 249.12 152.44 246.87 152.44C244.65 152.44 242.49 150.88 242.49 147.82C242.49 144.79 244.59 143.17 246.87 143.17ZM257.682 141.55V147.1C257.682 148.36 257.592 149.53 257.172 150.4C256.752 151.27 255.942 151.99 254.862 152.02V157.3H256.842V154H266.322V157.3H268.302V152.02H266.442V141.55H257.682ZM264.282 152.02H258.342C259.512 151 259.842 149.65 259.842 148.21V143.53H264.282V152.02ZM270.551 160.9H272.951L282.101 141.55H279.701L275.651 150.46L271.241 141.55H268.781L274.511 152.83L270.551 160.9ZM284.38 141.55V154H286.54V149.17L287.2 148.54L292.06 154H294.88L288.82 147.1L294.22 141.55H291.58L286.54 146.65V141.55H284.38ZM305.196 143.53V141.55H295.236V143.53H299.136V154H301.296V143.53H305.196ZM42.5534 190.36C46.3334 190.36 49.1534 187.6 49.1534 183.82C49.1534 180.04 46.3634 177.25 42.5534 177.25C38.7434 177.25 35.9534 180.04 35.9534 183.82C35.9534 187.6 38.7734 190.36 42.5534 190.36ZM42.5534 179.17C44.8334 179.17 46.9334 180.76 46.9334 183.82C46.9334 186.85 44.8034 188.44 42.5534 188.44C40.3334 188.44 38.1734 186.88 38.1734 183.82C38.1734 180.79 40.2734 179.17 42.5534 179.17ZM52.4658 177.55V190H54.6258V179.53H60.3258V190H62.4858V177.55H52.4658ZM68.7176 188.26C69.6476 189.46 71.0576 190.36 73.0676 190.36C76.8476 190.36 79.0376 187.27 79.0376 183.85C79.0376 180.49 76.8776 177.25 72.9776 177.25C72.0776 177.25 70.1876 177.46 68.7176 179.29V177.55H66.5576V196.9H68.7176V188.26ZM72.7676 188.44C70.2176 188.44 68.5976 186.37 68.5976 183.82C68.5976 180.82 70.7276 179.17 72.7376 179.17C74.7476 179.17 76.8176 180.79 76.8176 183.85C76.8176 186.34 75.2876 188.44 72.7676 188.44ZM91.5886 185.83C91.3186 186.43 90.8686 187.06 90.2986 187.54C89.5786 188.14 88.7686 188.44 87.7486 188.44C85.5886 188.44 83.8186 186.79 83.7886 184.21H93.4786C93.5386 182.56 93.0886 180.64 92.3086 179.53C91.5586 178.45 90.0286 177.25 87.5986 177.25C83.8486 177.25 81.5686 180.13 81.5686 183.85C81.5686 188.47 84.7186 190.36 87.7186 190.36C89.3086 190.36 90.7186 189.85 91.8586 188.83C92.4886 188.26 93.0286 187.51 93.3886 186.82L91.5886 185.83ZM83.9386 182.41C84.2686 180.55 85.7686 179.17 87.5986 179.17C89.4286 179.17 90.8986 180.46 91.2586 182.41H83.9386ZM97.692 177.55V183.1C97.692 184.36 97.602 185.53 97.182 186.4C96.762 187.27 95.952 187.99 94.872 188.02V193.3H96.852V190H106.332V193.3H108.312V188.02H106.452V177.55H97.692ZM104.292 188.02H98.352C99.522 187 99.852 185.65 99.852 184.21V179.53H104.292V188.02ZM119.831 185.83C119.561 186.43 119.111 187.06 118.541 187.54C117.821 188.14 117.011 188.44 115.991 188.44C113.831 188.44 112.061 186.79 112.031 184.21H121.721C121.781 182.56 121.331 180.64 120.551 179.53C119.801 178.45 118.271 177.25 115.841 177.25C112.091 177.25 109.811 180.13 109.811 183.85C109.811 188.47 112.961 190.36 115.961 190.36C117.551 190.36 118.961 189.85 120.101 188.83C120.731 188.26 121.271 187.51 121.631 186.82L119.831 185.83ZM112.181 182.41C112.511 180.55 114.011 179.17 115.841 179.17C117.671 179.17 119.141 180.46 119.501 182.41H112.181ZM134.454 177.55H125.694V185.14C125.694 185.89 125.664 186.67 125.274 187.27C125.034 187.66 124.524 188.08 123.714 188.08C123.564 188.08 123.384 188.05 123.234 188.02V190C123.444 190.03 123.684 190.06 123.894 190.06C125.574 190.06 126.504 189.22 126.894 188.74C127.854 187.57 127.854 186.19 127.854 185.14V179.53H132.294V190H134.454V177.55ZM147.78 185.83C147.51 186.43 147.06 187.06 146.49 187.54C145.77 188.14 144.96 188.44 143.94 188.44C141.78 188.44 140.01 186.79 139.98 184.21H149.67C149.73 182.56 149.28 180.64 148.5 179.53C147.75 178.45 146.22 177.25 143.79 177.25C140.04 177.25 137.76 180.13 137.76 183.85C137.76 188.47 140.91 190.36 143.91 190.36C145.5 190.36 146.91 189.85 148.05 188.83C148.68 188.26 149.22 187.51 149.58 186.82L147.78 185.83ZM140.13 182.41C140.46 180.55 141.96 179.17 143.79 179.17C145.62 179.17 147.09 180.46 147.45 182.41H140.13ZM152.983 190H155.143V184.63H161.023V190H163.183V177.55H161.023V182.65H155.143V177.55H152.983V190ZM167.251 190H169.411V184.63H175.291V190H177.451V177.55H175.291V182.65H169.411V177.55H167.251V190ZM181.519 190H185.869C187.099 190 188.449 189.97 189.529 188.95C190.069 188.44 190.639 187.51 190.639 186.16C190.639 184.9 190.159 184.03 189.679 183.55C188.569 182.41 187.009 182.32 185.899 182.32H183.679V177.55H181.519V190ZM183.679 188.08V184.24H185.719C186.409 184.24 187.099 184.24 187.639 184.6C188.269 184.99 188.419 185.62 188.419 186.16C188.419 187.12 187.879 187.57 187.609 187.75C187.099 188.05 186.409 188.08 185.689 188.08H183.679ZM192.139 190H194.299V177.55H192.139V190ZM207.604 185.83C207.334 186.43 206.884 187.06 206.314 187.54C205.594 188.14 204.784 188.44 203.764 188.44C201.604 188.44 199.834 186.79 199.804 184.21H209.494C209.554 182.56 209.104 180.64 208.324 179.53C207.574 178.45 206.044 177.25 203.614 177.25C199.864 177.25 197.584 180.13 197.584 183.85C197.584 188.47 200.734 190.36 203.734 190.36C205.324 190.36 206.734 189.85 207.874 188.83C208.504 188.26 209.044 187.51 209.404 186.82L207.604 185.83ZM199.954 182.41C200.284 180.55 201.784 179.17 203.614 179.17C205.444 179.17 206.914 180.46 207.274 182.41H199.954ZM219.81 177.55V190H225.18C226.17 190 227.37 189.73 228.12 189.16C228.81 188.62 229.41 187.66 229.41 186.34C229.41 185.38 229.11 184.6 228.42 183.94C227.82 183.37 227.22 183.19 226.86 183.1C227.61 182.62 228.21 181.84 228.21 180.61C228.21 179.35 227.58 178.63 227.13 178.27C226.26 177.58 225.18 177.55 224.52 177.55H219.81ZM221.97 182.62V179.47H223.89C224.55 179.47 225.12 179.44 225.63 179.77C225.96 180.01 226.23 180.37 226.23 180.97C226.23 181.72 225.87 182.08 225.63 182.26C225.15 182.59 224.46 182.62 224.25 182.62H221.97ZM221.97 188.08V184.42H224.73C225.33 184.42 226.14 184.45 226.68 184.87C227.1 185.2 227.31 185.71 227.31 186.28C227.31 186.85 226.98 187.36 226.59 187.66C226.05 188.05 225.24 188.08 224.64 188.08H221.97ZM240.602 177.55V183.1C240.602 184.36 240.512 185.53 240.092 186.4C239.672 187.27 238.862 187.99 237.782 188.02V193.3H239.762V190H249.242V193.3H251.222V188.02H249.362V177.55H240.602ZM247.202 188.02H241.262C242.432 187 242.762 185.65 242.762 184.21V179.53H247.202V188.02ZM259.321 190.36C263.101 190.36 265.921 187.6 265.921 183.82C265.921 180.04 263.131 177.25 259.321 177.25C255.511 177.25 252.721 180.04 252.721 183.82C252.721 187.6 255.541 190.36 259.321 190.36ZM259.321 179.17C261.601 179.17 263.701 180.76 263.701 183.82C263.701 186.85 261.571 188.44 259.321 188.44C257.101 188.44 254.941 186.88 254.941 183.82C254.941 180.79 257.041 179.17 259.321 179.17ZM269.233 190H271.393V179.53H276.613V177.55H269.233V190ZM283.96 190.36C287.74 190.36 290.56 187.6 290.56 183.82C290.56 180.04 287.77 177.25 283.96 177.25C280.15 177.25 277.36 180.04 277.36 183.82C277.36 187.6 280.18 190.36 283.96 190.36ZM283.96 179.17C286.24 179.17 288.34 180.76 288.34 183.82C288.34 186.85 286.21 188.44 283.96 188.44C281.74 188.44 279.58 186.88 279.58 183.82C279.58 180.79 281.68 179.17 283.96 179.17ZM293.872 177.55V190H299.242C300.232 190 301.432 189.73 302.182 189.16C302.872 188.62 303.472 187.66 303.472 186.34C303.472 185.38 303.172 184.6 302.482 183.94C301.882 183.37 301.282 183.19 300.922 183.1C301.672 182.62 302.272 181.84 302.272 180.61C302.272 179.35 301.642 178.63 301.192 178.27C300.322 177.58 299.242 177.55 298.582 177.55H293.872ZM296.032 182.62V179.47H297.952C298.612 179.47 299.182 179.44 299.692 179.77C300.022 180.01 300.292 180.37 300.292 180.97C300.292 181.72 299.932 182.08 299.692 182.26C299.212 182.59 298.522 182.62 298.312 182.62H296.032ZM296.032 188.08V184.42H298.792C299.392 184.42 300.202 184.45 300.742 184.87C301.162 185.2 301.372 185.71 301.372 186.28C301.372 186.85 301.042 187.36 300.652 187.66C300.112 188.05 299.302 188.08 298.702 188.08H296.032ZM312.583 190.36C316.363 190.36 319.183 187.6 319.183 183.82C319.183 180.04 316.393 177.25 312.583 177.25C308.773 177.25 305.983 180.04 305.983 183.82C305.983 187.6 308.803 190.36 312.583 190.36ZM312.583 179.17C314.863 179.17 316.963 180.76 316.963 183.82C316.963 186.85 314.833 188.44 312.583 188.44C310.363 188.44 308.203 186.88 308.203 183.82C308.203 180.79 310.303 179.17 312.583 179.17ZM324.655 188.26C325.585 189.46 326.995 190.36 329.005 190.36C332.785 190.36 334.975 187.27 334.975 183.85C334.975 180.49 332.815 177.25 328.915 177.25C328.015 177.25 326.125 177.46 324.655 179.29V177.55H322.495V196.9H324.655V188.26ZM328.705 188.44C326.155 188.44 324.535 186.37 324.535 183.82C324.535 180.82 326.665 179.17 328.675 179.17C330.685 179.17 332.755 180.79 332.755 183.85C332.755 186.34 331.225 188.44 328.705 188.44ZM347.526 185.83C347.256 186.43 346.806 187.06 346.236 187.54C345.516 188.14 344.706 188.44 343.686 188.44C341.526 188.44 339.756 186.79 339.726 184.21H349.416C349.476 182.56 349.026 180.64 348.246 179.53C347.496 178.45 345.966 177.25 343.536 177.25C339.786 177.25 337.506 180.13 337.506 183.85C337.506 188.47 340.656 190.36 343.656 190.36C345.246 190.36 346.656 189.85 347.796 188.83C348.426 188.26 348.966 187.51 349.326 186.82L347.526 185.83ZM339.876 182.41C340.206 180.55 341.706 179.17 343.536 179.17C345.366 179.17 346.836 180.46 347.196 182.41H339.876ZM359.731 177.55V190.87L368.251 181.69V190H370.411V176.59L361.891 185.77V177.55H359.731ZM47.0534 208.09V205.99H35.1134V208.09H39.9734V226H42.1934V208.09H47.0534ZM51.0049 209.92C52.2049 208.18 53.5849 207.76 55.0249 207.76C55.8049 207.76 56.9449 207.88 57.7249 208.69C58.2049 209.17 58.5349 209.92 58.5349 210.79C58.5349 212.62 57.2449 214.18 54.4549 214.18H52.6549V216.28H54.4549C56.4049 216.28 59.7949 216.55 59.7949 220.21C59.7949 221.29 59.4649 222.52 58.1749 223.42C57.3349 223.99 56.1949 224.26 55.1149 224.26C52.7149 224.26 50.7649 222.85 49.9549 220.6L47.7949 221.56C48.8149 223.9 51.0649 226.36 55.0249 226.36C56.6449 226.36 58.3249 225.91 59.5849 225.04C60.8149 224.17 62.0749 222.64 62.0749 220.15C62.0749 217.72 60.7249 215.59 58.0549 214.99C59.6149 214.27 60.8149 212.8 60.8149 210.76C60.8149 209.11 60.1249 207.85 59.2549 207.07C57.8749 205.81 56.0449 205.66 55.0249 205.66C53.0749 205.66 50.9149 206.17 49.2949 208.57L51.0049 209.92ZM73.522 213.55V219.1C73.522 220.36 73.432 221.53 73.012 222.4C72.592 223.27 71.782 223.99 70.702 224.02V229.3H72.682V226H82.162V229.3H84.142V224.02H82.282V213.55H73.522ZM80.122 224.02H74.182C75.352 223 75.682 221.65 75.682 220.21V215.53H80.122V224.02ZM96.7491 213.55H87.9891V221.14C87.9891 221.89 87.9591 222.67 87.5691 223.27C87.3291 223.66 86.8191 224.08 86.0091 224.08C85.8591 224.08 85.6791 224.05 85.5291 224.02V226C85.7391 226.03 85.9791 226.06 86.1891 226.06C87.8691 226.06 88.7991 225.22 89.1891 224.74C90.1491 223.57 90.1491 222.19 90.1491 221.14V215.53H94.5891V226H96.7491V213.55ZM99.3949 226H101.975L105.515 220.99H106.835V226H108.995V213.55H104.645C103.415 213.55 102.065 213.58 100.985 214.6C100.295 215.23 99.8749 216.22 99.8749 217.39C99.8749 218.56 100.355 219.4 100.865 219.88C101.765 220.75 103.115 220.87 103.265 220.87L99.3949 226ZM106.835 219.19H104.795C104.285 219.19 103.505 219.22 102.875 218.83C102.335 218.5 102.095 217.99 102.095 217.33C102.095 216.52 102.515 216.04 102.875 215.8C103.325 215.53 103.955 215.47 104.825 215.47H106.835V219.19ZM120.083 226H122.243V220.63H128.123V226H130.283V213.55H128.123V218.65H122.243V213.55H120.083V226ZM143.591 221.83C143.321 222.43 142.871 223.06 142.301 223.54C141.581 224.14 140.771 224.44 139.751 224.44C137.591 224.44 135.821 222.79 135.791 220.21H145.481C145.541 218.56 145.091 216.64 144.311 215.53C143.561 214.45 142.031 213.25 139.601 213.25C135.851 213.25 133.571 216.13 133.571 219.85C133.571 224.47 136.721 226.36 139.721 226.36C141.311 226.36 142.721 225.85 143.861 224.83C144.491 224.26 145.031 223.51 145.391 222.82L143.591 221.83ZM135.941 218.41C136.271 216.55 137.771 215.17 139.601 215.17C141.431 215.17 142.901 216.46 143.261 218.41H135.941ZM148.794 226H150.954V215.53H156.174V213.55H148.794V226ZM163.52 226.36C167.3 226.36 170.12 223.6 170.12 219.82C170.12 216.04 167.33 213.25 163.52 213.25C159.71 213.25 156.92 216.04 156.92 219.82C156.92 223.6 159.74 226.36 163.52 226.36ZM163.52 215.17C165.8 215.17 167.9 216.76 167.9 219.82C167.9 222.85 165.77 224.44 163.52 224.44C161.3 224.44 159.14 222.88 159.14 219.82C159.14 216.79 161.24 215.17 163.52 215.17ZM187.065 232.9H189.225V226.21C190.395 226.21 192.705 226.03 194.475 224.59C195.915 223.42 196.635 221.83 196.635 219.76C196.635 217.45 195.675 215.92 194.505 214.96C193.185 213.85 191.325 213.34 189.225 213.34V205.99H187.065V213.34C184.965 213.34 183.105 213.85 181.785 214.96C180.615 215.92 179.655 217.45 179.655 219.76C179.655 221.83 180.375 223.42 181.815 224.59C183.585 226.03 185.895 226.21 187.065 226.21V232.9ZM187.065 224.29C185.895 224.29 184.545 224.05 183.615 223.39C182.715 222.76 181.875 221.68 181.875 219.76C181.875 217.66 182.925 216.55 183.735 216.04C184.575 215.5 185.895 215.26 187.065 215.26V224.29ZM189.225 215.26C190.395 215.26 191.715 215.5 192.555 216.04C193.365 216.55 194.415 217.66 194.415 219.76C194.415 221.68 193.575 222.76 192.675 223.39C191.745 224.05 190.395 224.29 189.225 224.29V215.26ZM199.916 232.9H202.316L211.466 213.55H209.066L205.016 222.46L200.606 213.55H198.146L203.876 224.83L199.916 232.9ZM213.745 226H215.905V220.63H221.785V226H223.945V213.55H221.785V218.65H215.905V213.55H213.745V226ZM228.013 213.55V226H230.173V221.17L230.833 220.54L235.693 226H238.513L232.453 219.1L237.853 213.55H235.213L230.173 218.65V213.55H228.013ZM240.669 226H250.629V229.3H252.609V224.02H250.569V213.55H248.409V224.02H242.829V213.55H240.669V226ZM254.878 213.55V226.87L263.398 217.69V226H265.558V212.59L257.038 221.77V213.55H254.878ZM269.644 213.55V226.87L278.164 217.69V226H280.324V212.59L271.804 221.77V213.55H269.644ZM291.039 217.33C291.039 218.05 290.769 218.89 290.319 219.34C289.989 219.67 289.479 219.88 288.849 219.88C288.129 219.88 287.649 219.61 287.379 219.34C287.079 219.04 286.779 218.56 286.779 217.78C286.779 216.37 287.799 215.89 288.249 215.68C288.969 215.35 289.719 215.17 290.409 214.93C291.309 214.6 292.089 214.15 292.719 213.43C293.499 212.53 293.739 211.57 293.739 210.49C293.739 208.66 293.049 207.58 292.419 206.95C291.429 205.96 290.199 205.66 288.879 205.66C287.109 205.66 285.939 206.26 285.219 207.04C284.259 208.06 284.079 209.32 284.079 210.28C284.079 210.76 284.109 211.18 284.199 211.6H286.419C286.299 211.21 286.239 210.73 286.239 210.34C286.239 209.68 286.479 208.84 287.019 208.33C287.499 207.88 288.219 207.7 288.909 207.7C289.839 207.7 290.409 208.03 290.739 208.33C291.429 208.96 291.519 209.83 291.519 210.43C291.519 211.21 291.369 212.44 289.599 213.07C288.969 213.31 288.129 213.43 287.079 213.91C285.759 214.51 284.559 215.5 284.559 217.63C284.559 219.25 285.279 220.24 285.759 220.72C286.359 221.32 287.349 221.92 288.879 221.92C290.529 221.92 291.489 221.23 291.969 220.72C292.719 219.94 293.199 218.74 293.199 217.33H291.039ZM287.409 224.86C287.409 225.67 288.099 226.36 288.909 226.36C289.719 226.36 290.409 225.67 290.409 224.86C290.409 224.05 289.719 223.36 288.909 223.36C288.099 223.36 287.409 224.05 287.409 224.86Z" fill="#434343"/>
<path d="M49.0214 35.624C52.7294 35.624 55.6454 37.46 55.6454 43.4C55.6454 49.34 52.7294 51.176 49.0214 51.176C45.3134 51.176 42.3974 49.34 42.3974 43.4C42.3974 37.46 45.3134 35.624 49.0214 35.624ZM48.4094 30.656C41.4254 30.656 35.7734 33.716 35.7734 43.4C35.7734 53.084 41.4254 56.144 48.4094 56.144H49.6334C56.6174 56.144 62.2694 53.084 62.2694 43.4C62.2694 33.716 56.6174 30.656 49.6334 30.656H48.4094ZM64.4257 51.788V54.344C64.4257 55.244 65.1817 56 66.1177 56H85.6297C86.5657 56 87.3217 55.244 87.3217 54.344V52.688C87.3217 51.752 86.5657 51.032 85.6297 51.032H71.0497C71.0497 47 87.5377 49.16 87.5377 39.044C87.5377 32.384 82.8217 30.656 76.9537 30.656H74.5777C69.6817 30.656 64.4617 33.284 64.4617 37.496C64.4617 39.116 65.7937 39.44 66.2617 39.44H68.3497C69.3577 39.44 70.1497 38.972 70.7257 37.784C71.5177 36.2 73.0297 35.624 75.1897 35.624H76.4497C79.5457 35.624 80.9137 36.344 80.9137 39.044C80.9137 43.94 64.4257 40.88 64.4257 51.788Z" fill="white"/>
<rect x="98.6934" y="40.5" width="303.861" height="2" fill="white"/>
<defs>
<filter id="filter0_d_52_294" x="0.75" y="0" width="435.75" height="351" filterUnits="userSpaceOnUse" color-interpolation-filters="sRGB">
<feFlood flood-opacity="0" result="BackgroundImageFix"/>
<feColorMatrix in="SourceAlpha" type="matrix" values="0 0 0 0 0 0 0 0 0 0 0 0 0 0 0 0 0 0 127 0" result="hardAlpha"/>
<feOffset dy="4"/>
<feGaussianBlur stdDeviation="8"/>
<feComposite in2="hardAlpha" operator="out"/>
<feColorMatrix type="matrix" values="0 0 0 0 0.262745 0 0 0 0 0.262745 0 0 0 0 0.262745 0 0 0 0.25 0"/>
<feBlend mode="normal" in2="BackgroundImageFix" result="effect1_dropShadow_52_294"/>
<feBlend mode="normal" in="SourceGraphic" in2="effect1_dropShadow_52_294" result="shape"/>
</filter>
</defs>
</svg>
