<svg width="992" height="148" viewBox="0 0 992 148" fill="none" xmlns="http://www.w3.org/2000/svg">
<rect x="0.5" y="0.5" width="483" height="63" rx="4.5" fill="white"/>
<rect x="0.5" y="0.5" width="483" height="63" rx="4.5" stroke="#B3B3B3"/>
<path d="M32.8766 34.1894C32.0195 34.1894 31.1779 34.0553 30.3804 33.7918C29.9896 33.6585 29.5092 33.7808 29.2707 34.0257L27.6965 35.2141C25.8709 34.2396 24.7464 33.1154 23.7852 31.3035L24.9386 29.7704C25.2382 29.4711 25.3457 29.034 25.2169 28.6238C24.9522 27.8221 24.8178 26.9809 24.8178 26.1234C24.8178 25.504 24.3139 25 23.6944 25H21.1234C20.504 25 20 25.504 20 26.1234C20 33.2237 25.7764 39 32.8766 39C33.4961 39 34 38.496 34 37.8766V35.3127C34 34.6934 33.496 34.1894 32.8766 34.1894Z" fill="#B3B3B3"/>
<path d="M46.064 24.492V40.5H50.048C51.152 40.5 52.616 40.452 53.888 39.444C54.752 38.772 55.52 37.524 55.52 35.988C55.52 34.452 54.704 32.508 52.472 31.956C53.888 30.996 54.056 29.604 54.056 28.812C54.056 26.868 53.12 25.884 52.616 25.5C51.44 24.564 49.832 24.492 48.944 24.492H46.064ZM47.84 26.172H49.232C49.736 26.172 52.328 26.22 52.328 28.86C52.328 31.332 50.12 31.524 49.184 31.524H47.84V26.172ZM47.84 33.108H49.664C50.936 33.108 51.776 33.252 52.376 33.588C53 33.924 53.744 34.668 53.744 35.94C53.744 36.9 53.312 37.692 52.688 38.148C51.92 38.748 50.912 38.82 49.88 38.82H47.84V33.108ZM58.3586 30.54V40.5H62.6546C63.4466 40.5 64.4066 40.284 65.0066 39.828C65.5586 39.396 66.0386 38.628 66.0386 37.572C66.0386 36.804 65.7986 36.18 65.2466 35.652C64.7666 35.196 64.2866 35.052 63.9986 34.98C64.5986 34.596 65.0786 33.972 65.0786 32.988C65.0786 31.98 64.5746 31.404 64.2146 31.116C63.5186 30.564 62.6546 30.54 62.1266 30.54H58.3586ZM60.0866 34.596V32.076H61.6226C62.1506 32.076 62.6066 32.052 63.0146 32.316C63.2786 32.508 63.4946 32.796 63.4946 33.276C63.4946 33.876 63.2066 34.164 63.0146 34.308C62.6306 34.572 62.0786 34.596 61.9106 34.596H60.0866ZM60.0866 38.964V36.036H62.2946C62.7746 36.036 63.4226 36.06 63.8546 36.396C64.1906 36.66 64.3586 37.068 64.3586 37.524C64.3586 37.98 64.0946 38.388 63.7826 38.628C63.3506 38.94 62.7026 38.964 62.2226 38.964H60.0866ZM76.0631 37.164C75.8471 37.644 75.4871 38.148 75.0311 38.532C74.4551 39.012 73.8071 39.252 72.9911 39.252C71.2631 39.252 69.8471 37.932 69.8231 35.868H77.5751C77.6231 34.548 77.2631 33.012 76.6391 32.124C76.0391 31.26 74.8151 30.3 72.8711 30.3C69.8711 30.3 68.0471 32.604 68.0471 35.58C68.0471 39.276 70.5671 40.788 72.9671 40.788C74.2391 40.788 75.3671 40.38 76.2791 39.564C76.7831 39.108 77.2151 38.508 77.5031 37.956L76.0631 37.164ZM69.9431 34.428C70.2071 32.94 71.4071 31.836 72.8711 31.836C74.3351 31.836 75.5111 32.868 75.7991 34.428H69.9431ZM80.9458 30.54V34.98C80.9458 35.988 80.8738 36.924 80.5378 37.62C80.2018 38.316 79.5538 38.892 78.6898 38.916V43.14H80.2738V40.5H87.8578V43.14H89.4418V38.916H87.9538V30.54H80.9458ZM86.2258 38.916H81.4738C82.4098 38.1 82.6738 37.02 82.6738 35.868V32.124H86.2258V38.916ZM91.2648 30.54V41.196L98.0808 33.852V40.5H99.8088V29.772L92.9928 37.116V30.54H91.2648ZM109.605 32.124V30.54H101.637V32.124H104.757V40.5H106.485V32.124H109.605ZM118.579 37.164C118.363 37.644 118.003 38.148 117.547 38.532C116.971 39.012 116.323 39.252 115.507 39.252C113.779 39.252 112.363 37.932 112.339 35.868H120.091C120.139 34.548 119.779 33.012 119.155 32.124C118.555 31.26 117.331 30.3 115.387 30.3C112.387 30.3 110.563 32.604 110.563 35.58C110.563 39.276 113.083 40.788 115.483 40.788C116.755 40.788 117.883 40.38 118.795 39.564C119.299 39.108 119.731 38.508 120.019 37.956L118.579 37.164ZM112.459 34.428C112.723 32.94 113.923 31.836 115.387 31.836C116.851 31.836 118.027 32.868 118.315 34.428H112.459ZM128.343 40.5H130.071V36.204H134.775V40.5H136.503V30.54H134.775V34.62H130.071V30.54H128.343V40.5ZM144.413 40.788C147.437 40.788 149.693 38.58 149.693 35.556C149.693 32.532 147.461 30.3 144.413 30.3C141.365 30.3 139.133 32.532 139.133 35.556C139.133 38.58 141.389 40.788 144.413 40.788ZM144.413 31.836C146.237 31.836 147.917 33.108 147.917 35.556C147.917 37.98 146.213 39.252 144.413 39.252C142.637 39.252 140.909 38.004 140.909 35.556C140.909 33.132 142.589 31.836 144.413 31.836ZM151.191 40.5H152.967L154.239 34.332L157.671 41.196L161.055 34.332L162.375 40.5H164.151L161.751 29.772L157.719 37.884L153.591 29.772L151.191 40.5ZM173.657 37.164C173.441 37.644 173.081 38.148 172.625 38.532C172.049 39.012 171.401 39.252 170.585 39.252C168.857 39.252 167.441 37.932 167.417 35.868H175.169C175.217 34.548 174.857 33.012 174.233 32.124C173.633 31.26 172.409 30.3 170.465 30.3C167.465 30.3 165.641 32.604 165.641 35.58C165.641 39.276 168.161 40.788 170.561 40.788C171.833 40.788 172.961 40.38 173.873 39.564C174.377 39.108 174.809 38.508 175.097 37.956L173.657 37.164ZM167.537 34.428C167.801 32.94 169.001 31.836 170.465 31.836C171.929 31.836 173.105 32.868 173.393 34.428H167.537ZM179.548 39.108C180.292 40.068 181.42 40.788 183.028 40.788C186.052 40.788 187.804 38.316 187.804 35.58C187.804 32.892 186.076 30.3 182.956 30.3C182.236 30.3 180.724 30.468 179.548 31.932V30.54H177.82V46.02H179.548V39.108ZM182.788 39.252C180.748 39.252 179.452 37.596 179.452 35.556C179.452 33.156 181.156 31.836 182.764 31.836C184.372 31.836 186.028 33.132 186.028 35.58C186.028 37.572 184.804 39.252 182.788 39.252ZM202.582 32.124V30.54H194.614V32.124H197.734V40.5H199.462V32.124H202.582ZM211.555 37.164C211.339 37.644 210.979 38.148 210.523 38.532C209.947 39.012 209.299 39.252 208.483 39.252C206.755 39.252 205.339 37.932 205.315 35.868H213.067C213.115 34.548 212.755 33.012 212.131 32.124C211.531 31.26 210.307 30.3 208.363 30.3C205.363 30.3 203.539 32.604 203.539 35.58C203.539 39.276 206.059 40.788 208.459 40.788C209.731 40.788 210.859 40.38 211.771 39.564C212.275 39.108 212.707 38.508 212.995 37.956L211.555 37.164ZM205.435 34.428C205.699 32.94 206.899 31.836 208.363 31.836C209.827 31.836 211.003 32.868 211.291 34.428H205.435ZM223.254 30.54H216.246V36.612C216.246 37.212 216.222 37.836 215.91 38.316C215.718 38.628 215.31 38.964 214.662 38.964C214.542 38.964 214.398 38.94 214.278 38.916V40.5C214.446 40.524 214.638 40.548 214.806 40.548C216.15 40.548 216.894 39.876 217.206 39.492C217.974 38.556 217.974 37.452 217.974 36.612V32.124H221.526V40.5H223.254V30.54ZM233.915 37.164C233.699 37.644 233.339 38.148 232.883 38.532C232.307 39.012 231.659 39.252 230.843 39.252C229.115 39.252 227.699 37.932 227.675 35.868H235.427C235.475 34.548 235.115 33.012 234.491 32.124C233.891 31.26 232.667 30.3 230.723 30.3C227.723 30.3 225.899 32.604 225.899 35.58C225.899 39.276 228.419 40.788 230.819 40.788C232.091 40.788 233.219 40.38 234.131 39.564C234.635 39.108 235.067 38.508 235.355 37.956L233.915 37.164ZM227.795 34.428C228.059 32.94 229.259 31.836 230.723 31.836C232.187 31.836 233.363 32.868 233.651 34.428H227.795ZM243.381 46.02H245.109V40.668C246.045 40.668 247.893 40.524 249.309 39.372C250.461 38.436 251.037 37.164 251.037 35.508C251.037 33.66 250.269 32.436 249.333 31.668C248.277 30.78 246.789 30.372 245.109 30.372V24.492H243.381V30.372C241.701 30.372 240.213 30.78 239.157 31.668C238.221 32.436 237.453 33.66 237.453 35.508C237.453 37.164 238.029 38.436 239.181 39.372C240.597 40.524 242.445 40.668 243.381 40.668V46.02ZM243.381 39.132C242.445 39.132 241.365 38.94 240.621 38.412C239.901 37.908 239.229 37.044 239.229 35.508C239.229 33.828 240.069 32.94 240.717 32.532C241.389 32.1 242.445 31.908 243.381 31.908V39.132ZM245.109 31.908C246.045 31.908 247.101 32.1 247.773 32.532C248.421 32.94 249.261 33.828 249.261 35.508C249.261 37.044 248.589 37.908 247.869 38.412C247.125 38.94 246.045 39.132 245.109 39.132V31.908ZM258.343 40.788C261.367 40.788 263.623 38.58 263.623 35.556C263.623 32.532 261.391 30.3 258.343 30.3C255.295 30.3 253.063 32.532 253.063 35.556C253.063 38.58 255.319 40.788 258.343 40.788ZM258.343 31.836C260.167 31.836 261.847 33.108 261.847 35.556C261.847 37.98 260.143 39.252 258.343 39.252C256.567 39.252 254.839 38.004 254.839 35.556C254.839 33.132 256.519 31.836 258.343 31.836ZM266.273 40.5H268.001V36.204H272.705V40.5H274.433V30.54H272.705V34.62H268.001V30.54H266.273V40.5ZM285.319 31.956C284.863 31.356 283.831 30.3 281.911 30.3C279.367 30.3 277.063 32.076 277.063 35.508C277.063 39.012 279.391 40.788 281.911 40.788C283.663 40.788 284.743 39.852 285.319 39.108V40.5H287.047V30.54H285.319V31.956ZM282.103 31.836C283.639 31.836 285.415 32.964 285.415 35.532C285.415 37.5 284.215 39.252 282.103 39.252C280.039 39.252 278.839 37.644 278.839 35.508C278.839 33.084 280.399 31.836 282.103 31.836Z" fill="#B3B3B3"/>
<rect x="508.5" y="0.5" width="483" height="63" rx="4.5" fill="white"/>
<rect x="508.5" y="0.5" width="483" height="63" rx="4.5" stroke="#B3B3B3"/>
<path d="M533.752 31.7438C534.678 31.7438 535.481 31.4116 536.136 30.7559C536.792 30.1004 537.124 29.2984 537.124 28.3718C537.124 27.4455 536.792 26.6434 536.136 25.9877C535.48 25.3323 534.678 25 533.752 25C532.825 25 532.023 25.3323 531.368 25.9878C530.712 26.6433 530.38 27.4454 530.38 28.3718C530.38 29.2984 530.712 30.1006 531.368 30.7561C532.023 31.4114 532.826 31.7438 533.752 31.7438Z" fill="#B3B3B3"/>
<path d="M539.652 35.7654C539.633 35.4926 539.595 35.1951 539.539 34.8808C539.482 34.5642 539.409 34.265 539.321 33.9914C539.23 33.7087 539.107 33.4295 538.955 33.1619C538.797 32.8842 538.612 32.6424 538.404 32.4434C538.186 32.2352 537.92 32.0679 537.612 31.9458C537.305 31.8243 536.965 31.7628 536.601 31.7628C536.458 31.7628 536.32 31.8214 536.053 31.9952C535.889 32.1024 535.696 32.2263 535.482 32.3633C535.299 32.4801 535.05 32.5896 534.743 32.6887C534.444 32.7856 534.14 32.8348 533.84 32.8348C533.54 32.8348 533.236 32.7856 532.936 32.6887C532.63 32.5897 532.381 32.4803 532.198 32.3634C531.986 32.2276 531.793 32.1037 531.627 31.9951C531.36 31.8213 531.222 31.7627 531.079 31.7627C530.715 31.7627 530.375 31.8243 530.068 31.9459C529.76 32.0677 529.493 32.2351 529.276 32.4435C529.068 32.6426 528.882 32.8843 528.725 33.1619C528.573 33.4295 528.449 33.7086 528.359 33.9915C528.271 34.2651 528.198 34.5642 528.141 34.8808C528.085 35.1946 528.047 35.4923 528.028 35.7658C528.009 36.0336 528 36.3117 528 36.5925C528 37.3233 528.232 37.9149 528.69 38.3512C529.143 38.7818 529.742 39.0002 530.47 39.0002H537.211C537.939 39.0002 538.537 38.7819 538.99 38.3512C539.448 37.9152 539.68 37.3235 539.68 36.5924C539.68 36.3103 539.671 36.032 539.652 35.7654Z" fill="#B3B3B3"/>
<path d="M553.52 24.492H551.744V40.5H553.52V33.612L553.976 33.156L560.528 40.5H562.976L555.248 31.956L562.736 24.492H560.336L553.52 31.356V24.492ZM571.577 31.956C571.121 31.356 570.089 30.3 568.169 30.3C565.625 30.3 563.321 32.076 563.321 35.508C563.321 39.012 565.649 40.788 568.169 40.788C569.921 40.788 571.001 39.852 571.577 39.108V40.5H573.305V30.54H571.577V31.956ZM568.361 31.836C569.897 31.836 571.673 32.964 571.673 35.532C571.673 37.5 570.473 39.252 568.361 39.252C566.297 39.252 565.097 37.644 565.097 35.508C565.097 33.084 566.657 31.836 568.361 31.836ZM576.578 30.54V40.5H578.306V36.636L578.834 36.132L582.722 40.5H584.978L580.13 34.98L584.45 30.54H582.338L578.306 34.62V30.54H576.578ZM592.304 30.54V40.5H594.032V36.636L594.56 36.132L598.448 40.5H600.704L595.856 34.98L600.176 30.54H598.064L594.032 34.62V30.54H592.304ZM608.463 24.492V40.5H612.447C613.551 40.5 615.015 40.452 616.287 39.444C617.151 38.772 617.919 37.524 617.919 35.988C617.919 34.452 617.103 32.508 614.871 31.956C616.287 30.996 616.455 29.604 616.455 28.812C616.455 26.868 615.519 25.884 615.015 25.5C613.839 24.564 612.231 24.492 611.343 24.492H608.463ZM610.239 26.172H611.631C612.135 26.172 614.727 26.22 614.727 28.86C614.727 31.332 612.519 31.524 611.583 31.524H610.239V26.172ZM610.239 33.108H612.063C613.335 33.108 614.175 33.252 614.775 33.588C615.399 33.924 616.143 34.668 616.143 35.94C616.143 36.9 615.711 37.692 615.087 38.148C614.319 38.748 613.311 38.82 612.279 38.82H610.239V33.108ZM628.39 31.956C627.934 31.356 626.902 30.3 624.982 30.3C622.438 30.3 620.134 32.076 620.134 35.508C620.134 39.012 622.462 40.788 624.982 40.788C626.734 40.788 627.814 39.852 628.39 39.108V40.5H630.118V30.54H628.39V31.956ZM625.174 31.836C626.71 31.836 628.486 32.964 628.486 35.532C628.486 37.5 627.286 39.252 625.174 39.252C623.11 39.252 621.91 37.644 621.91 35.508C621.91 33.084 623.47 31.836 625.174 31.836ZM632.238 40.5H634.014L635.286 34.332L638.718 41.196L642.102 34.332L643.422 40.5H645.198L642.798 29.772L638.766 37.884L634.638 29.772L632.238 40.5ZM657.57 40.788C660.594 40.788 662.85 38.58 662.85 35.556C662.85 32.532 660.618 30.3 657.57 30.3C654.522 30.3 652.29 32.532 652.29 35.556C652.29 38.58 654.546 40.788 657.57 40.788ZM657.57 31.836C659.394 31.836 661.074 33.108 661.074 35.556C661.074 37.98 659.37 39.252 657.57 39.252C655.794 39.252 654.066 38.004 654.066 35.556C654.066 33.132 655.746 31.836 657.57 31.836ZM673.18 23.7C672.964 24.252 672.532 24.66 671.188 24.972C670.036 25.236 668.788 25.452 667.708 26.196C664.948 28.092 664.876 32.628 664.876 34.404C664.876 36.156 665.044 38.148 666.556 39.54C667.204 40.14 668.308 40.788 669.988 40.788C673.252 40.788 675.436 38.532 675.436 35.556C675.436 32.58 673.228 30.3 670.252 30.3C668.476 30.3 667.276 31.02 666.628 32.124H666.58C666.652 30.3 667.42 28.5 668.668 27.564C669.628 26.868 670.9 26.652 671.836 26.412C672.892 26.148 674.524 25.62 675.1 23.7H673.18ZM670.156 31.836C671.98 31.836 673.66 33.108 673.66 35.556C673.66 37.98 671.956 39.252 670.156 39.252C668.38 39.252 666.652 38.004 666.652 35.556C666.652 33.132 668.332 31.836 670.156 31.836ZM679.814 39.108C680.558 40.068 681.686 40.788 683.294 40.788C686.318 40.788 688.07 38.316 688.07 35.58C688.07 32.892 686.342 30.3 683.222 30.3C682.502 30.3 680.99 30.468 679.814 31.932V30.54H678.086V46.02H679.814V39.108ZM683.054 39.252C681.014 39.252 679.718 37.596 679.718 35.556C679.718 33.156 681.422 31.836 683.03 31.836C684.638 31.836 686.294 33.132 686.294 35.58C686.294 37.572 685.07 39.252 683.054 39.252ZM698.351 31.956C697.895 31.356 696.863 30.3 694.943 30.3C692.399 30.3 690.095 32.076 690.095 35.508C690.095 39.012 692.423 40.788 694.943 40.788C696.695 40.788 697.775 39.852 698.351 39.108V40.5H700.079V30.54H698.351V31.956ZM695.135 31.836C696.671 31.836 698.447 32.964 698.447 35.532C698.447 37.5 697.247 39.252 695.135 39.252C693.071 39.252 691.871 37.644 691.871 35.508C691.871 33.084 693.431 31.836 695.135 31.836ZM703.351 40.5H716.263V43.14H717.847V38.916H716.215V30.54H714.487V38.916H710.647V30.54H708.919V38.916H705.079V30.54H703.351V40.5ZM727.296 31.956C726.84 31.356 725.808 30.3 723.888 30.3C721.344 30.3 719.04 32.076 719.04 35.508C719.04 39.012 721.368 40.788 723.888 40.788C725.64 40.788 726.72 39.852 727.296 39.108V40.5H729.024V30.54H727.296V31.956ZM724.08 31.836C725.616 31.836 727.392 32.964 727.392 35.532C727.392 37.5 726.192 39.252 724.08 39.252C722.016 39.252 720.816 37.644 720.816 35.508C720.816 33.084 722.376 31.836 724.08 31.836ZM738.825 32.124V30.54H730.857V32.124H733.977V40.5H735.705V32.124H738.825ZM740.64 40.5H744.12C745.104 40.5 746.184 40.476 747.048 39.66C747.48 39.252 747.936 38.508 747.936 37.428C747.936 36.42 747.552 35.724 747.168 35.34C746.28 34.428 745.032 34.356 744.144 34.356H742.368V30.54H740.64V40.5ZM742.368 38.964V35.892H744C744.552 35.892 745.104 35.892 745.536 36.18C746.04 36.492 746.16 36.996 746.16 37.428C746.16 38.196 745.728 38.556 745.512 38.7C745.104 38.94 744.552 38.964 743.976 38.964H742.368ZM758.05 31.26C757.57 30.924 756.538 30.3 754.954 30.3C751.882 30.3 749.626 32.532 749.626 35.58C749.626 38.58 751.858 40.788 754.954 40.788C755.89 40.788 757.042 40.548 758.122 39.756V37.692C757.21 38.796 755.938 39.252 754.906 39.252C753.13 39.252 751.402 37.98 751.402 35.556C751.402 33.132 753.082 31.836 754.93 31.836C755.818 31.836 757.138 32.172 758.05 33.324V31.26ZM759.621 40.5H761.685L764.517 36.492H765.573V40.5H767.301V30.54H763.821C762.837 30.54 761.757 30.564 760.893 31.38C760.341 31.884 760.005 32.676 760.005 33.612C760.005 34.548 760.389 35.22 760.797 35.604C761.517 36.3 762.597 36.396 762.717 36.396L759.621 40.5ZM765.573 35.052H763.941C763.533 35.052 762.909 35.076 762.405 34.764C761.973 34.5 761.781 34.092 761.781 33.564C761.781 32.916 762.117 32.532 762.405 32.34C762.765 32.124 763.269 32.076 763.965 32.076H765.573V35.052ZM775.874 33.564C775.874 34.14 775.658 34.812 775.298 35.172C775.034 35.436 774.626 35.604 774.122 35.604C773.546 35.604 773.162 35.388 772.946 35.172C772.706 34.932 772.466 34.548 772.466 33.924C772.466 32.796 773.282 32.412 773.642 32.244C774.218 31.98 774.818 31.836 775.37 31.644C776.09 31.38 776.714 31.02 777.218 30.444C777.842 29.724 778.034 28.956 778.034 28.092C778.034 26.628 777.482 25.764 776.978 25.26C776.186 24.468 775.202 24.228 774.146 24.228C772.73 24.228 771.794 24.708 771.218 25.332C770.45 26.148 770.306 27.156 770.306 27.924C770.306 28.308 770.33 28.644 770.402 28.98H772.178C772.082 28.668 772.034 28.284 772.034 27.972C772.034 27.444 772.226 26.772 772.658 26.364C773.042 26.004 773.618 25.86 774.17 25.86C774.914 25.86 775.37 26.124 775.634 26.364C776.186 26.868 776.258 27.564 776.258 28.044C776.258 28.668 776.138 29.652 774.722 30.156C774.218 30.348 773.546 30.444 772.706 30.828C771.65 31.308 770.69 32.1 770.69 33.804C770.69 35.1 771.266 35.892 771.65 36.276C772.13 36.756 772.922 37.236 774.146 37.236C775.466 37.236 776.234 36.684 776.618 36.276C777.218 35.652 777.602 34.692 777.602 33.564H775.874ZM772.97 39.588C772.97 40.236 773.522 40.788 774.17 40.788C774.818 40.788 775.37 40.236 775.37 39.588C775.37 38.94 774.818 38.388 774.17 38.388C773.522 38.388 772.97 38.94 772.97 39.588Z" fill="#B3B3B3"/>
<rect x="0.5" y="84.5" width="483" height="63" rx="4.5" fill="white"/>
<rect x="0.5" y="84.5" width="483" height="63" rx="4.5" stroke="#B3B3B3"/>
<path d="M33.8055 112.061L27.2459 117.148C27.173 117.203 27.0865 117.23 27 117.23C26.9135 117.23 26.827 117.203 26.7541 117.148L20.1945 112.061C20.0728 112.251 20 112.476 20 112.719V119.281C20 119.96 20.552 120.512 21.2305 120.512H32.7695C33.448 120.512 34 119.96 34 119.281V112.719C34 112.476 33.9272 112.251 33.8055 112.061Z" fill="#B3B3B3"/>
<path d="M32.7695 111.488H21.2305C21.1042 111.488 20.9847 111.513 20.87 111.548L27 116.308L33.13 111.548C33.0153 111.513 32.8958 111.488 32.7695 111.488Z" fill="#B3B3B3"/>
<path d="M46.064 108.492V124.5H50.048C51.152 124.5 52.616 124.452 53.888 123.444C54.752 122.772 55.52 121.524 55.52 119.988C55.52 118.452 54.704 116.508 52.472 115.956C53.888 114.996 54.056 113.604 54.056 112.812C54.056 110.868 53.12 109.884 52.616 109.5C51.44 108.564 49.832 108.492 48.944 108.492H46.064ZM47.84 110.172H49.232C49.736 110.172 52.328 110.22 52.328 112.86C52.328 115.332 50.12 115.524 49.184 115.524H47.84V110.172ZM47.84 117.108H49.664C50.936 117.108 51.776 117.252 52.376 117.588C53 117.924 53.744 118.668 53.744 119.94C53.744 120.9 53.312 121.692 52.688 122.148C51.92 122.748 50.912 122.82 49.88 122.82H47.84V117.108ZM65.9906 115.956C65.5346 115.356 64.5026 114.3 62.5826 114.3C60.0386 114.3 57.7346 116.076 57.7346 119.508C57.7346 123.012 60.0626 124.788 62.5826 124.788C64.3346 124.788 65.4146 123.852 65.9906 123.108V124.5H67.7186V114.54H65.9906V115.956ZM62.7746 115.836C64.3106 115.836 66.0866 116.964 66.0866 119.532C66.0866 121.5 64.8866 123.252 62.7746 123.252C60.7106 123.252 59.5106 121.644 59.5106 119.508C59.5106 117.084 61.0706 115.836 62.7746 115.836ZM70.9914 124.5H83.8554V114.54H82.1274V122.916H78.2874V114.54H76.5594V122.916H72.7194V114.54H70.9914V124.5ZM101.454 108.492H93.1499V124.5H101.454V122.82H94.9259V116.604H101.262V114.924H94.9259V110.172H101.454V108.492ZM103.864 120.276H109.144V118.5H103.864V120.276ZM111.984 124.5H113.712V119.076C113.712 117.876 113.928 115.836 115.896 115.836C117.72 115.836 117.696 117.9 117.696 118.596V124.5H119.424V118.956C119.424 117.756 119.64 115.836 121.632 115.836C123.264 115.836 123.408 117.324 123.408 118.452V124.5H125.136V118.188C125.136 116.772 124.848 114.3 121.896 114.3C121.224 114.3 119.856 114.396 118.896 115.908C118.704 115.572 117.984 114.3 116.184 114.3C115.128 114.3 114.264 114.78 113.712 115.596V114.54H111.984V124.5ZM136.045 115.956C135.589 115.356 134.557 114.3 132.637 114.3C130.093 114.3 127.789 116.076 127.789 119.508C127.789 123.012 130.117 124.788 132.637 124.788C134.389 124.788 135.469 123.852 136.045 123.108V124.5H137.773V114.54H136.045V115.956ZM132.829 115.836C134.365 115.836 136.141 116.964 136.141 119.532C136.141 121.5 134.941 123.252 132.829 123.252C130.765 123.252 129.565 121.644 129.565 119.508C129.565 117.084 131.125 115.836 132.829 115.836ZM141.046 114.54V124.5H142.774V114.54H141.046ZM140.686 110.772C140.686 111.444 141.238 111.996 141.91 111.996C142.582 111.996 143.134 111.444 143.134 110.772C143.134 110.1 142.582 109.548 141.91 109.548C141.238 109.548 140.686 110.1 140.686 110.772ZM146.038 107.004V124.5H147.766V107.004H146.038Z" fill="#B3B3B3"/>
<rect x="508.5" y="84.5" width="483" height="63" rx="4.5" fill="white"/>
<rect x="508.5" y="84.5" width="483" height="63" rx="4.5" stroke="#B3B3B3"/>
<path d="M530.064 108.492V124.5H531.84V110.172H540.048V124.5H541.824V108.492H530.064ZM547.251 123.108C547.995 124.068 549.123 124.788 550.731 124.788C553.755 124.788 555.507 122.316 555.507 119.58C555.507 116.892 553.779 114.3 550.659 114.3C549.939 114.3 548.427 114.468 547.251 115.932V114.54H545.523V130.02H547.251V123.108ZM550.491 123.252C548.451 123.252 547.155 121.596 547.155 119.556C547.155 117.156 548.859 115.836 550.467 115.836C552.075 115.836 553.731 117.132 553.731 119.58C553.731 121.572 552.507 123.252 550.491 123.252ZM558.155 114.54V125.196L564.971 117.852V124.5H566.699V113.772L559.883 121.116V114.54H558.155ZM569.968 114.54V124.5H571.696V120.636L572.224 120.132L576.112 124.5H578.368L573.52 118.98L577.84 114.54H575.728L571.696 118.62V114.54H569.968ZM581.821 123.108C582.565 124.068 583.693 124.788 585.301 124.788C588.325 124.788 590.077 122.316 590.077 119.58C590.077 116.892 588.349 114.3 585.229 114.3C584.509 114.3 582.997 114.468 581.821 115.932V114.54H580.093V130.02H581.821V123.108ZM585.061 123.252C583.021 123.252 581.725 121.596 581.725 119.556C581.725 117.156 583.429 115.836 585.037 115.836C586.645 115.836 588.301 117.132 588.301 119.58C588.301 121.572 587.077 123.252 585.061 123.252ZM600.118 121.164C599.902 121.644 599.542 122.148 599.086 122.532C598.51 123.012 597.862 123.252 597.046 123.252C595.318 123.252 593.902 121.932 593.878 119.868H601.63C601.678 118.548 601.318 117.012 600.694 116.124C600.094 115.26 598.87 114.3 596.926 114.3C593.926 114.3 592.102 116.604 592.102 119.58C592.102 123.276 594.622 124.788 597.022 124.788C598.294 124.788 599.422 124.38 600.334 123.564C600.838 123.108 601.27 122.508 601.558 121.956L600.118 121.164ZM593.998 118.428C594.262 116.94 595.462 115.836 596.926 115.836C598.39 115.836 599.566 116.868 599.854 118.428H593.998ZM604.28 114.54V124.5H606.008V116.124H610.568V124.5H612.296V114.54H604.28ZM615.554 114.54V125.196L622.37 117.852V124.5H624.098V113.772L617.282 121.116V114.54H615.554ZM633.894 116.124V114.54H625.926V116.124H629.046V124.5H630.774V116.124H633.894ZM642.868 121.164C642.652 121.644 642.292 122.148 641.836 122.532C641.26 123.012 640.612 123.252 639.796 123.252C638.068 123.252 636.652 121.932 636.628 119.868H644.38C644.428 118.548 644.068 117.012 643.444 116.124C642.844 115.26 641.62 114.3 639.676 114.3C636.676 114.3 634.852 116.604 634.852 119.58C634.852 123.276 637.372 124.788 639.772 124.788C641.044 124.788 642.172 124.38 643.084 123.564C643.588 123.108 644.02 122.508 644.308 121.956L642.868 121.164ZM636.748 118.428C637.012 116.94 638.212 115.836 639.676 115.836C641.14 115.836 642.316 116.868 642.604 118.428H636.748ZM657.936 130.02H659.664V124.668C660.6 124.668 662.448 124.524 663.864 123.372C665.016 122.436 665.592 121.164 665.592 119.508C665.592 117.66 664.824 116.436 663.888 115.668C662.832 114.78 661.344 114.372 659.664 114.372V108.492H657.936V114.372C656.256 114.372 654.768 114.78 653.712 115.668C652.776 116.436 652.008 117.66 652.008 119.508C652.008 121.164 652.584 122.436 653.736 123.372C655.152 124.524 657 124.668 657.936 124.668V130.02ZM657.936 123.132C657 123.132 655.92 122.94 655.176 122.412C654.456 121.908 653.784 121.044 653.784 119.508C653.784 117.828 654.624 116.94 655.272 116.532C655.944 116.1 657 115.908 657.936 115.908V123.132ZM659.664 115.908C660.6 115.908 661.656 116.1 662.328 116.532C662.976 116.94 663.816 117.828 663.816 119.508C663.816 121.044 663.144 121.908 662.424 122.412C661.68 122.94 660.6 123.132 659.664 123.132V115.908ZM675.873 115.956C675.417 115.356 674.385 114.3 672.465 114.3C669.921 114.3 667.617 116.076 667.617 119.508C667.617 123.012 669.945 124.788 672.465 124.788C674.217 124.788 675.297 123.852 675.873 123.108V124.5H677.601V114.54H675.873V115.956ZM672.657 115.836C674.193 115.836 675.969 116.964 675.969 119.532C675.969 121.5 674.769 123.252 672.657 123.252C670.593 123.252 669.393 121.644 669.393 119.508C669.393 117.084 670.953 115.836 672.657 115.836ZM680.874 114.54V125.196L687.69 117.852V124.5H689.418V113.772L682.602 121.116V114.54H680.874ZM681.738 110.244C682.242 111.66 683.538 112.572 685.218 112.572C686.898 112.572 688.194 111.66 688.698 110.244L687.258 109.692C687.018 110.508 686.346 111.132 685.218 111.132C684.09 111.132 683.418 110.508 683.178 109.692L681.738 110.244ZM700.223 114.54H693.215V120.612C693.215 121.212 693.191 121.836 692.879 122.316C692.687 122.628 692.279 122.964 691.631 122.964C691.511 122.964 691.367 122.94 691.247 122.916V124.5C691.415 124.524 691.607 124.548 691.775 124.548C693.119 124.548 693.863 123.876 694.175 123.492C694.943 122.556 694.943 121.452 694.943 120.612V116.124H698.495V124.5H700.223V114.54Z" fill="#B3B3B3"/>
<path d="M967.18 125C964.699 125 962.68 122.477 962.68 119.375V111.5C962.68 111.085 962.949 110.75 963.28 110.75C963.611 110.75 963.88 111.085 963.88 111.5V119.375C963.88 121.649 965.361 123.5 967.18 123.5C969 123.5 970.48 121.649 970.48 119.375V111.125C970.48 109.678 969.538 108.5 968.38 108.5C967.222 108.5 966.28 109.678 966.28 111.125V118.625C966.28 119.245 966.684 119.75 967.18 119.75C967.677 119.75 968.08 119.245 968.08 118.625V111.5C968.08 111.085 968.349 110.75 968.68 110.75C969.011 110.75 969.28 111.085 969.28 111.5V118.625C969.28 120.072 968.338 121.25 967.18 121.25C966.022 121.25 965.08 120.072 965.08 118.625V111.125C965.08 108.851 966.56 107 968.38 107C970.2 107 971.68 108.851 971.68 111.125V119.375C971.68 122.477 969.662 125 967.18 125Z" fill="#B3B3B3"/>
</svg>
