<svg width="436" height="351" viewBox="0 0 436 351" fill="none" xmlns="http://www.w3.org/2000/svg">
<g filter="url(#filter0_d_52_293)">
<rect x="16" y="12" width="403.75" height="319" rx="5" fill="white"/>
</g>
<path d="M16 17C16 14.2386 18.2386 12 21 12H414.75C417.511 12 419.75 14.2386 419.75 17V70H16V17Z" fill="#0057B3"/>
<path d="M51.8234 99.64C49.4234 97.81 47.1134 97.66 45.9134 97.66C39.9134 97.66 35.4434 102.1 35.4434 108.07C35.4434 113.86 39.8534 118.36 45.7934 118.36C47.2934 118.36 49.6034 118 51.8234 116.41V113.65C51.4634 114.01 50.6534 114.76 49.5134 115.33C48.4634 115.87 47.1434 116.26 45.7934 116.26C42.1334 116.26 37.7234 113.53 37.7234 108.1C37.7234 103.48 41.1434 99.76 45.7634 99.76C46.9334 99.76 48.1634 100.06 49.2134 100.54C50.2334 101.02 51.1934 101.77 51.8234 102.4V99.64ZM61.1979 118.36C64.9779 118.36 67.7979 115.6 67.7979 111.82C67.7979 108.04 65.0079 105.25 61.1979 105.25C57.3879 105.25 54.5979 108.04 54.5979 111.82C54.5979 115.6 57.4179 118.36 61.1979 118.36ZM61.1979 107.17C63.4779 107.17 65.5779 108.76 65.5779 111.82C65.5779 114.85 63.4479 116.44 61.1979 116.44C58.9779 116.44 56.8179 114.88 56.8179 111.82C56.8179 108.79 58.9179 107.17 61.1979 107.17ZM76.9303 118.36C80.7103 118.36 83.5303 115.6 83.5303 111.82C83.5303 108.04 80.7403 105.25 76.9303 105.25C73.1203 105.25 70.3303 108.04 70.3303 111.82C70.3303 115.6 73.1503 118.36 76.9303 118.36ZM76.9303 107.17C79.2103 107.17 81.3103 108.76 81.3103 111.82C81.3103 114.85 79.1803 116.44 76.9303 116.44C74.7103 116.44 72.5503 114.88 72.5503 111.82C72.5503 108.79 74.6503 107.17 76.9303 107.17ZM94.7098 107.53V105.55H84.7498V107.53H88.6498V118H90.8098V107.53H94.7098ZM96.9795 105.55V118H102.349C103.339 118 104.539 117.73 105.289 117.16C105.979 116.62 106.579 115.66 106.579 114.34C106.579 113.38 106.279 112.6 105.589 111.94C104.989 111.37 104.389 111.19 104.029 111.1C104.779 110.62 105.379 109.84 105.379 108.61C105.379 107.35 104.749 106.63 104.299 106.27C103.429 105.58 102.349 105.55 101.689 105.55H96.9795ZM99.1395 110.62V107.47H101.059C101.719 107.47 102.289 107.44 102.799 107.77C103.129 108.01 103.399 108.37 103.399 108.97C103.399 109.72 103.039 110.08 102.799 110.26C102.319 110.59 101.629 110.62 101.419 110.62H99.1395ZM99.1395 116.08V112.42H101.899C102.499 112.42 103.309 112.45 103.849 112.87C104.269 113.2 104.479 113.71 104.479 114.28C104.479 114.85 104.149 115.36 103.759 115.66C103.219 116.05 102.409 116.08 101.809 116.08H99.1395ZM119.11 113.83C118.84 114.43 118.39 115.06 117.82 115.54C117.1 116.14 116.29 116.44 115.27 116.44C113.11 116.44 111.34 114.79 111.31 112.21H121C121.06 110.56 120.61 108.64 119.83 107.53C119.08 106.45 117.55 105.25 115.12 105.25C111.37 105.25 109.09 108.13 109.09 111.85C109.09 116.47 112.24 118.36 115.24 118.36C116.83 118.36 118.24 117.85 119.38 116.83C120.01 116.26 120.55 115.51 120.91 114.82L119.11 113.83ZM111.46 110.41C111.79 108.55 113.29 107.17 115.12 107.17C116.95 107.17 118.42 108.46 118.78 110.41H111.46ZM132.473 107.53V105.55H122.513V107.53H126.413V118H128.573V107.53H132.473ZM144.2 106.45C143.6 106.03 142.31 105.25 140.33 105.25C136.49 105.25 133.67 108.04 133.67 111.85C133.67 115.6 136.46 118.36 140.33 118.36C141.5 118.36 142.94 118.06 144.29 117.07V114.49C143.15 115.87 141.56 116.44 140.27 116.44C138.05 116.44 135.89 114.85 135.89 111.82C135.89 108.79 137.99 107.17 140.3 107.17C141.41 107.17 143.06 107.59 144.2 109.03V106.45ZM155.764 107.53V105.55H145.804V107.53H149.704V118H151.864V107.53H155.764ZM158.034 105.55V118H163.404C164.394 118 165.594 117.73 166.344 117.16C167.034 116.62 167.634 115.66 167.634 114.34C167.634 113.38 167.334 112.6 166.644 111.94C166.044 111.37 165.444 111.19 165.084 111.1C165.834 110.62 166.434 109.84 166.434 108.61C166.434 107.35 165.804 106.63 165.354 106.27C164.484 105.58 163.404 105.55 162.744 105.55H158.034ZM160.194 110.62V107.47H162.114C162.774 107.47 163.344 107.44 163.854 107.77C164.184 108.01 164.454 108.37 164.454 108.97C164.454 109.72 164.094 110.08 163.854 110.26C163.374 110.59 162.684 110.62 162.474 110.62H160.194ZM160.194 116.08V112.42H162.954C163.554 112.42 164.364 112.45 164.904 112.87C165.324 113.2 165.534 113.71 165.534 114.28C165.534 114.85 165.204 115.36 164.814 115.66C164.274 116.05 163.464 116.08 162.864 116.08H160.194ZM170.895 124.9H173.295L182.445 105.55H180.045L175.995 114.46L171.585 105.55H169.125L174.855 116.83L170.895 124.9ZM193.964 113.83C193.694 114.43 193.244 115.06 192.674 115.54C191.954 116.14 191.144 116.44 190.124 116.44C187.964 116.44 186.194 114.79 186.164 112.21H195.854C195.914 110.56 195.464 108.64 194.684 107.53C193.934 106.45 192.404 105.25 189.974 105.25C186.224 105.25 183.944 108.13 183.944 111.85C183.944 116.47 187.094 118.36 190.094 118.36C191.684 118.36 193.094 117.85 194.234 116.83C194.864 116.26 195.404 115.51 195.764 114.82L193.964 113.83ZM186.314 110.41C186.644 108.55 188.144 107.17 189.974 107.17C191.804 107.17 193.274 108.46 193.634 110.41H186.314ZM207.327 107.53V105.55H197.367V107.53H201.267V118H203.427V107.53H207.327ZM226.019 105.55H217.259V113.14C217.259 113.89 217.229 114.67 216.839 115.27C216.599 115.66 216.089 116.08 215.279 116.08C215.129 116.08 214.949 116.05 214.799 116.02V118C215.009 118.03 215.249 118.06 215.459 118.06C217.139 118.06 218.069 117.22 218.459 116.74C219.419 115.57 219.419 114.19 219.419 113.14V107.53H223.859V118H226.019V105.55ZM230.104 105.55V118.87L238.624 109.69V118H240.784V104.59L232.264 113.77V105.55H230.104ZM261.622 106.45C261.022 106.03 259.732 105.25 257.752 105.25C253.912 105.25 251.092 108.04 251.092 111.85C251.092 115.6 253.882 118.36 257.752 118.36C258.922 118.36 260.362 118.06 261.712 117.07V114.49C260.572 115.87 258.982 116.44 257.692 116.44C255.472 116.44 253.312 114.85 253.312 111.82C253.312 108.79 255.412 107.17 257.722 107.17C258.832 107.17 260.482 107.59 261.622 109.03V106.45ZM265.026 105.55V118H267.186V107.53H272.886V118H275.046V105.55H265.026ZM284.938 118.36C288.718 118.36 291.538 115.6 291.538 111.82C291.538 108.04 288.748 105.25 284.938 105.25C281.128 105.25 278.338 108.04 278.338 111.82C278.338 115.6 281.158 118.36 284.938 118.36ZM284.938 107.17C287.218 107.17 289.318 108.76 289.318 111.82C289.318 114.85 287.188 116.44 284.938 116.44C282.718 116.44 280.558 114.88 280.558 111.82C280.558 108.79 282.658 107.17 284.938 107.17ZM297.011 116.26C297.941 117.46 299.351 118.36 301.361 118.36C305.141 118.36 307.331 115.27 307.331 111.85C307.331 108.49 305.171 105.25 301.271 105.25C300.371 105.25 298.481 105.46 297.011 107.29V105.55H294.851V124.9H297.011V116.26ZM301.061 116.44C298.511 116.44 296.891 114.37 296.891 111.82C296.891 108.82 299.021 107.17 301.031 107.17C303.041 107.17 305.111 108.79 305.111 111.85C305.111 114.34 303.581 116.44 301.061 116.44ZM310.642 118H312.802V112.63H318.682V118H320.842V105.55H318.682V110.65H312.802V105.55H310.642V118ZM324.909 118H329.259C330.489 118 331.839 117.97 332.919 116.95C333.459 116.44 334.029 115.51 334.029 114.16C334.029 112.9 333.549 112.03 333.069 111.55C331.959 110.41 330.399 110.32 329.289 110.32H327.069V105.55H324.909V118ZM327.069 116.08V112.24H329.109C329.799 112.24 330.489 112.24 331.029 112.6C331.659 112.99 331.809 113.62 331.809 114.16C331.809 115.12 331.269 115.57 330.999 115.75C330.489 116.05 329.799 116.08 329.079 116.08H327.069ZM335.529 118H337.689V105.55H335.529V118ZM341.755 105.55V118.87L350.275 109.69V118H352.435V104.59L343.915 113.77V105.55H341.755ZM342.835 100.18C343.465 101.95 345.085 103.09 347.185 103.09C349.285 103.09 350.905 101.95 351.535 100.18L349.735 99.49C349.435 100.51 348.595 101.29 347.185 101.29C345.775 101.29 344.935 100.51 344.635 99.49L342.835 100.18ZM35.9834 141.55V154H38.1434V143.53H43.8434V154H46.0034V141.55H35.9834ZM52.2352 152.26C53.1652 153.46 54.5752 154.36 56.5852 154.36C60.3652 154.36 62.5552 151.27 62.5552 147.85C62.5552 144.49 60.3952 141.25 56.4952 141.25C55.5952 141.25 53.7052 141.46 52.2352 143.29V141.55H50.0752V160.9H52.2352V152.26ZM56.2852 152.44C53.7352 152.44 52.1152 150.37 52.1152 147.82C52.1152 144.82 54.2452 143.17 56.2552 143.17C58.2652 143.17 60.3352 144.79 60.3352 147.85C60.3352 150.34 58.8052 152.44 56.2852 152.44ZM71.6862 154.36C75.4662 154.36 78.2862 151.6 78.2862 147.82C78.2862 144.04 75.4962 141.25 71.6862 141.25C67.8762 141.25 65.0862 144.04 65.0862 147.82C65.0862 151.6 67.9062 154.36 71.6862 154.36ZM71.6862 143.17C73.9662 143.17 76.0662 144.76 76.0662 147.82C76.0662 150.85 73.9362 152.44 71.6862 152.44C69.4662 152.44 67.3062 150.88 67.3062 147.82C67.3062 144.79 69.4062 143.17 71.6862 143.17ZM81.5986 154H83.7586V143.53H88.9786V141.55H81.5986V154ZM93.3094 152.26C94.2394 153.46 95.6494 154.36 97.6594 154.36C101.439 154.36 103.629 151.27 103.629 147.85C103.629 144.49 101.469 141.25 97.5694 141.25C96.6694 141.25 94.7794 141.46 93.3094 143.29V141.55H91.1494V160.9H93.3094V152.26ZM97.3594 152.44C94.8094 152.44 93.1894 150.37 93.1894 147.82C93.1894 144.82 95.3194 143.17 97.3294 143.17C99.3394 143.17 101.409 144.79 101.409 147.85C101.409 150.34 99.8794 152.44 97.3594 152.44ZM116.48 143.32C115.91 142.57 114.62 141.25 112.22 141.25C109.04 141.25 106.16 143.47 106.16 147.76C106.16 152.14 109.07 154.36 112.22 154.36C114.41 154.36 115.76 153.19 116.48 152.26V154H118.64V141.55H116.48V143.32ZM112.46 143.17C114.38 143.17 116.6 144.58 116.6 147.79C116.6 150.25 115.1 152.44 112.46 152.44C109.88 152.44 108.38 150.43 108.38 147.76C108.38 144.73 110.33 143.17 112.46 143.17ZM121.291 154H123.511L125.101 146.29L129.391 154.87L133.621 146.29L135.271 154H137.491L134.491 140.59L129.451 150.73L124.291 140.59L121.291 154ZM138.694 154H140.914L142.504 146.29L146.794 154.87L151.024 146.29L152.674 154H154.894L151.894 140.59L146.854 150.73L141.694 140.59L138.694 154ZM157.536 154H159.696V148.63H165.576V154H167.736V141.55H165.576V146.65H159.696V141.55H157.536V154ZM171.804 154H176.154C177.384 154 178.734 153.97 179.814 152.95C180.354 152.44 180.924 151.51 180.924 150.16C180.924 148.9 180.444 148.03 179.964 147.55C178.854 146.41 177.294 146.32 176.184 146.32H173.964V141.55H171.804V154ZM173.964 152.08V148.24H176.004C176.694 148.24 177.384 148.24 177.924 148.6C178.554 148.99 178.704 149.62 178.704 150.16C178.704 151.12 178.164 151.57 177.894 151.75C177.384 152.05 176.694 152.08 175.974 152.08H173.964ZM182.424 154H184.584V141.55H182.424V154ZM188.649 141.55V154.87L197.169 145.69V154H199.329V140.59L190.809 149.77V141.55H188.649ZM189.729 136.18C190.359 137.95 191.979 139.09 194.079 139.09C196.179 139.09 197.799 137.95 198.429 136.18L196.629 135.49C196.329 136.51 195.489 137.29 194.079 137.29C192.669 137.29 191.829 136.51 191.529 135.49L189.729 136.18ZM210.417 141.55V154H212.577V143.53H218.277V154H220.437V141.55H210.417ZM226.669 152.26C227.599 153.46 229.009 154.36 231.019 154.36C234.799 154.36 236.989 151.27 236.989 147.85C236.989 144.49 234.829 141.25 230.929 141.25C230.029 141.25 228.139 141.46 226.669 143.29V141.55H224.509V160.9H226.669V152.26ZM230.719 152.44C228.169 152.44 226.549 150.37 226.549 147.82C226.549 144.82 228.679 143.17 230.689 143.17C232.699 143.17 234.769 144.79 234.769 147.85C234.769 150.34 233.239 152.44 230.719 152.44ZM246.12 154.36C249.9 154.36 252.72 151.6 252.72 147.82C252.72 144.04 249.93 141.25 246.12 141.25C242.31 141.25 239.52 144.04 239.52 147.82C239.52 151.6 242.34 154.36 246.12 154.36ZM246.12 143.17C248.4 143.17 250.5 144.76 250.5 147.82C250.5 150.85 248.37 152.44 246.12 152.44C243.9 152.44 241.74 150.88 241.74 147.82C241.74 144.79 243.84 143.17 246.12 143.17ZM256.932 141.55V147.1C256.932 148.36 256.842 149.53 256.422 150.4C256.002 151.27 255.192 151.99 254.112 152.02V157.3H256.092V154H265.572V157.3H267.552V152.02H265.692V141.55H256.932ZM263.532 152.02H257.592C258.762 151 259.092 149.65 259.092 148.21V143.53H263.532V152.02ZM269.801 160.9H272.201L281.351 141.55H278.951L274.901 150.46L270.491 141.55H268.031L273.761 152.83L269.801 160.9ZM283.63 141.55V154H285.79V149.17L286.45 148.54L291.31 154H294.13L288.07 147.1L293.47 141.55H290.83L285.79 146.65V141.55H283.63ZM304.446 143.53V141.55H294.486V143.53H298.386V154H300.546V143.53H304.446ZM44.1434 179.53V177.55H34.1834V179.53H38.0834V190H40.2434V179.53H44.1434ZM55.3601 185.83C55.0901 186.43 54.6401 187.06 54.0701 187.54C53.3501 188.14 52.5401 188.44 51.5201 188.44C49.3601 188.44 47.5901 186.79 47.5601 184.21H57.2501C57.3101 182.56 56.8601 180.64 56.0801 179.53C55.3301 178.45 53.8001 177.25 51.3701 177.25C47.6201 177.25 45.3401 180.13 45.3401 183.85C45.3401 188.47 48.4901 190.36 51.4901 190.36C53.0801 190.36 54.4901 189.85 55.6301 188.83C56.2601 188.26 56.8001 187.51 57.1601 186.82L55.3601 185.83ZM47.7101 182.41C48.0401 180.55 49.5401 179.17 51.3701 179.17C53.2001 179.17 54.6701 180.46 55.0301 182.41H47.7101ZM58.7634 190H61.4034L65.3334 184.93L69.2634 190H71.9034L66.7434 183.37L71.3034 177.55H68.6634L65.3934 181.78L62.1834 177.55H59.5434L64.0734 183.34L58.7634 190ZM74.1865 190H76.3465V184.63H82.2265V190H84.3865V177.55H82.2265V182.65H76.3465V177.55H74.1865V190ZM88.4541 177.55V190.87L96.9741 181.69V190H99.1341V176.59L90.6141 185.77V177.55H88.4541ZM109.88 190H112.04V177.55H109.88V183.13C108.95 183.31 107.99 183.4 107.18 183.4C106.52 183.4 105.68 183.34 105.29 182.59C105.08 182.23 105.02 181.57 105.02 181.12V177.55H102.86V181.42C102.86 182.62 103.07 183.73 103.91 184.48C104.87 185.35 106.31 185.38 106.94 185.38C107.81 185.38 109.1 185.23 109.88 185.11V190ZM125.35 185.83C125.08 186.43 124.63 187.06 124.06 187.54C123.34 188.14 122.53 188.44 121.51 188.44C119.35 188.44 117.58 186.79 117.55 184.21H127.24C127.3 182.56 126.85 180.64 126.07 179.53C125.32 178.45 123.79 177.25 121.36 177.25C117.61 177.25 115.33 180.13 115.33 183.85C115.33 188.47 118.48 190.36 121.48 190.36C123.07 190.36 124.48 189.85 125.62 188.83C126.25 188.26 126.79 187.51 127.15 186.82L125.35 185.83ZM117.7 182.41C118.03 180.55 119.53 179.17 121.36 179.17C123.19 179.17 124.66 180.46 125.02 182.41H117.7ZM140.304 178.45C139.704 178.03 138.414 177.25 136.434 177.25C132.594 177.25 129.774 180.04 129.774 183.85C129.774 187.6 132.564 190.36 136.434 190.36C137.604 190.36 139.044 190.06 140.394 189.07V186.49C139.254 187.87 137.664 188.44 136.374 188.44C134.154 188.44 131.994 186.85 131.994 183.82C131.994 180.79 134.094 179.17 136.404 179.17C137.514 179.17 139.164 179.59 140.304 181.03V178.45ZM143.708 177.55V190H145.868V185.17L146.528 184.54L151.388 190H154.208L148.148 183.1L153.548 177.55H150.908L145.868 182.65V177.55H143.708ZM161.598 190.36C165.378 190.36 168.198 187.6 168.198 183.82C168.198 180.04 165.408 177.25 161.598 177.25C157.788 177.25 154.998 180.04 154.998 183.82C154.998 187.6 157.818 190.36 161.598 190.36ZM161.598 179.17C163.878 179.17 165.978 180.76 165.978 183.82C165.978 186.85 163.848 188.44 161.598 188.44C159.378 188.44 157.218 186.88 157.218 183.82C157.218 180.79 159.318 179.17 161.598 179.17ZM170.071 190H172.291L173.881 182.29L178.171 190.87L182.401 182.29L184.051 190H186.271L183.271 176.59L178.231 186.73L173.071 176.59L170.071 190ZM188.883 196.9H191.283L200.433 177.55H198.033L193.983 186.46L189.573 177.55H187.113L192.843 188.83L188.883 196.9ZM211.334 180.73C211.634 180.19 212.024 179.86 212.354 179.65C212.984 179.26 213.584 179.17 214.064 179.17C214.454 179.17 215.144 179.17 215.654 179.62C215.984 179.89 216.194 180.37 216.194 180.91C216.194 181.48 215.864 181.84 215.534 182.05C215.354 182.17 214.904 182.38 213.914 182.38H212.864V184.36H214.124C214.694 184.36 215.534 184.36 216.164 184.78C216.584 185.05 216.914 185.53 216.914 186.22C216.914 187.12 216.464 187.69 216.044 187.96C215.384 188.41 214.424 188.44 213.944 188.44C213.284 188.44 212.594 188.32 211.904 187.81C211.214 187.3 210.914 186.7 210.794 186.4L208.934 187.18C209.294 187.96 209.864 188.77 210.584 189.31C211.634 190.12 212.804 190.36 213.914 190.36C215.264 190.36 216.554 190.06 217.454 189.4C218.474 188.65 219.074 187.48 219.074 186.19C219.074 185.23 218.714 184.45 218.204 183.91C217.904 183.58 217.394 183.25 216.764 183.1C217.394 182.71 218.174 181.96 218.174 180.49C218.174 179.62 217.904 178.81 217.094 178.12C216.164 177.34 215.144 177.25 214.154 177.25C213.344 177.25 212.384 177.37 211.424 177.94C210.824 178.3 210.254 178.9 209.834 179.5L211.334 180.73ZM231.91 179.32C231.34 178.57 230.05 177.25 227.65 177.25C224.47 177.25 221.59 179.47 221.59 183.76C221.59 188.14 224.5 190.36 227.65 190.36C229.84 190.36 231.19 189.19 231.91 188.26V190H234.07V177.55H231.91V179.32ZM227.89 179.17C229.81 179.17 232.03 180.58 232.03 183.79C232.03 186.25 230.53 188.44 227.89 188.44C225.31 188.44 223.81 186.43 223.81 183.76C223.81 180.73 225.76 179.17 227.89 179.17ZM239.061 177.55V183.1C239.061 184.36 238.971 185.53 238.551 186.4C238.131 187.27 237.321 187.99 236.241 188.02V193.3H238.221V190H247.701V193.3H249.681V188.02H247.821V177.55H239.061ZM245.661 188.02H239.721C240.891 187 241.221 185.65 241.221 184.21V179.53H245.661V188.02ZM261.5 179.32C260.93 178.57 259.64 177.25 257.24 177.25C254.06 177.25 251.18 179.47 251.18 183.76C251.18 188.14 254.09 190.36 257.24 190.36C259.43 190.36 260.78 189.19 261.5 188.26V190H263.66V177.55H261.5V179.32ZM257.48 179.17C259.4 179.17 261.62 180.58 261.62 183.79C261.62 186.25 260.12 188.44 257.48 188.44C254.9 188.44 253.4 186.43 253.4 183.76C253.4 180.73 255.35 179.17 257.48 179.17ZM267.751 190H269.911V184.63H275.791V190H277.951V177.55H275.791V182.65H269.911V177.55H267.751V190ZM282.019 177.55V190.87L290.539 181.69V190H292.699V176.59L284.179 185.77V177.55H282.019ZM298.944 182.65V177.55H296.784V190H298.944V184.63H301.074C301.224 186.13 301.854 187.27 302.454 188.02C303.384 189.19 305.004 190.36 307.584 190.36C311.394 190.36 314.184 187.6 314.184 183.82C314.184 180.04 311.424 177.25 307.584 177.25C305.604 177.25 303.954 177.97 302.874 179.11C302.094 179.92 301.404 181.15 301.194 182.65H298.944ZM307.584 179.17C309.864 179.17 311.964 180.79 311.964 183.82C311.964 186.85 309.834 188.44 307.584 188.44C305.394 188.44 303.294 186.88 303.294 183.82C303.294 180.85 305.274 179.17 307.584 179.17ZM316.177 193.99L317.587 194.56L320.617 187.78L318.637 187.06L316.177 193.99ZM36.8834 213.55V219.1C36.8834 220.36 36.7934 221.53 36.3734 222.4C35.9534 223.27 35.1434 223.99 34.0634 224.02V229.3H36.0434V226H45.5234V229.3H47.5034V224.02H45.6434V213.55H36.8834ZM43.4834 224.02H37.5434C38.7134 223 39.0434 221.65 39.0434 220.21V215.53H43.4834V224.02ZM55.6022 226.36C59.3822 226.36 62.2022 223.6 62.2022 219.82C62.2022 216.04 59.4122 213.25 55.6022 213.25C51.7922 213.25 49.0022 216.04 49.0022 219.82C49.0022 223.6 51.8222 226.36 55.6022 226.36ZM55.6022 215.17C57.8822 215.17 59.9822 216.76 59.9822 219.82C59.9822 222.85 57.8522 224.44 55.6022 224.44C53.3822 224.44 51.2222 222.88 51.2222 219.82C51.2222 216.79 53.3222 215.17 55.6022 215.17ZM65.5146 226H67.6746V215.53H72.8946V213.55H65.5146V226ZM80.2409 226.36C84.0209 226.36 86.8409 223.6 86.8409 219.82C86.8409 216.04 84.0509 213.25 80.2409 213.25C76.4309 213.25 73.6409 216.04 73.6409 219.82C73.6409 223.6 76.4609 226.36 80.2409 226.36ZM80.2409 215.17C82.5209 215.17 84.6209 216.76 84.6209 219.82C84.6209 222.85 82.4909 224.44 80.2409 224.44C78.0209 224.44 75.8609 222.88 75.8609 219.82C75.8609 216.79 77.9609 215.17 80.2409 215.17ZM90.1533 213.55V226H95.5233C96.5133 226 97.7133 225.73 98.4633 225.16C99.1533 224.62 99.7533 223.66 99.7533 222.34C99.7533 221.38 99.4533 220.6 98.7633 219.94C98.1633 219.37 97.5633 219.19 97.2033 219.1C97.9533 218.62 98.5533 217.84 98.5533 216.61C98.5533 215.35 97.9233 214.63 97.4733 214.27C96.6033 213.58 95.5233 213.55 94.8633 213.55H90.1533ZM92.3133 218.62V215.47H94.2333C94.8933 215.47 95.4633 215.44 95.9733 215.77C96.3033 216.01 96.5733 216.37 96.5733 216.97C96.5733 217.72 96.2133 218.08 95.9733 218.26C95.4933 218.59 94.8033 218.62 94.5933 218.62H92.3133ZM92.3133 224.08V220.42H95.0733C95.6733 220.42 96.4833 220.45 97.0233 220.87C97.4433 221.2 97.6533 221.71 97.6533 222.28C97.6533 222.85 97.3233 223.36 96.9333 223.66C96.3933 224.05 95.5833 224.08 94.9833 224.08H92.3133ZM108.864 226.36C112.644 226.36 115.464 223.6 115.464 219.82C115.464 216.04 112.674 213.25 108.864 213.25C105.054 213.25 102.264 216.04 102.264 219.82C102.264 223.6 105.084 226.36 108.864 226.36ZM108.864 215.17C111.144 215.17 113.244 216.76 113.244 219.82C113.244 222.85 111.114 224.44 108.864 224.44C106.644 224.44 104.484 222.88 104.484 219.82C104.484 216.79 106.584 215.17 108.864 215.17ZM120.936 224.26C121.866 225.46 123.276 226.36 125.286 226.36C129.066 226.36 131.256 223.27 131.256 219.85C131.256 216.49 129.096 213.25 125.196 213.25C124.296 213.25 122.406 213.46 120.936 215.29V213.55H118.776V232.9H120.936V224.26ZM124.986 224.44C122.436 224.44 120.816 222.37 120.816 219.82C120.816 216.82 122.946 215.17 124.956 215.17C126.966 215.17 129.036 216.79 129.036 219.85C129.036 222.34 127.506 224.44 124.986 224.44ZM134.537 232.9H136.937L146.087 213.55H143.687L139.637 222.46L135.227 213.55H132.767L138.497 224.83L134.537 232.9ZM155.368 213.55V226.87L163.888 217.69V226H166.048V212.59L157.528 221.77V213.55H155.368ZM178.036 213.55V219.1C178.036 220.36 177.946 221.53 177.526 222.4C177.106 223.27 176.296 223.99 175.216 224.02V229.3H177.196V226H186.676V229.3H188.656V224.02H186.796V213.55H178.036ZM184.636 224.02H178.696C179.866 223 180.196 221.65 180.196 220.21V215.53H184.636V224.02ZM196.755 226.36C200.535 226.36 203.355 223.6 203.355 219.82C203.355 216.04 200.565 213.25 196.755 213.25C192.945 213.25 190.155 216.04 190.155 219.82C190.155 223.6 192.975 226.36 196.755 226.36ZM196.755 215.17C199.035 215.17 201.135 216.76 201.135 219.82C201.135 222.85 199.005 224.44 196.755 224.44C194.535 224.44 192.375 222.88 192.375 219.82C192.375 216.79 194.475 215.17 196.755 215.17ZM206.667 213.55V226H208.827V215.53H214.527V226H216.687V213.55H206.667ZM226.579 226.36C230.359 226.36 233.179 223.6 233.179 219.82C233.179 216.04 230.389 213.25 226.579 213.25C222.769 213.25 219.979 216.04 219.979 219.82C219.979 223.6 222.799 226.36 226.579 226.36ZM226.579 215.17C228.859 215.17 230.959 216.76 230.959 219.82C230.959 222.85 228.829 224.44 226.579 224.44C224.359 224.44 222.199 222.88 222.199 219.82C222.199 216.79 224.299 215.17 226.579 215.17ZM245.911 213.55H237.151V221.14C237.151 221.89 237.121 222.67 236.731 223.27C236.491 223.66 235.981 224.08 235.171 224.08C235.021 224.08 234.841 224.05 234.691 224.02V226C234.901 226.03 235.141 226.06 235.351 226.06C237.031 226.06 237.961 225.22 238.351 224.74C239.311 223.57 239.311 222.19 239.311 221.14V215.53H243.751V226H245.911V213.55ZM249.997 226H252.157V220.63H258.037V226H260.197V213.55H258.037V218.65H252.157V213.55H249.997V226ZM264.265 213.55V226.87L272.785 217.69V226H274.945V212.59L266.425 221.77V213.55H264.265ZM287.19 215.53V213.55H277.23V215.53H281.13V226H283.29V215.53H287.19ZM298.407 221.83C298.137 222.43 297.687 223.06 297.117 223.54C296.397 224.14 295.587 224.44 294.567 224.44C292.407 224.44 290.637 222.79 290.607 220.21H300.297C300.357 218.56 299.907 216.64 299.127 215.53C298.377 214.45 296.847 213.25 294.417 213.25C290.667 213.25 288.387 216.13 288.387 219.85C288.387 224.47 291.537 226.36 294.537 226.36C296.127 226.36 297.537 225.85 298.677 224.83C299.307 224.26 299.847 223.51 300.207 222.82L298.407 221.83ZM290.757 218.41C291.087 216.55 292.587 215.17 294.417 215.17C296.247 215.17 297.717 216.46 298.077 218.41H290.757ZM313.03 213.55H304.27V221.14C304.27 221.89 304.24 222.67 303.85 223.27C303.61 223.66 303.1 224.08 302.29 224.08C302.14 224.08 301.96 224.05 301.81 224.02V226C302.02 226.03 302.26 226.06 302.47 226.06C304.15 226.06 305.08 225.22 305.47 224.74C306.43 223.57 306.43 222.19 306.43 221.14V215.53H310.87V226H313.03V213.55ZM317.116 226H321.466C322.696 226 324.046 225.97 325.126 224.95C325.666 224.44 326.236 223.51 326.236 222.16C326.236 220.9 325.756 220.03 325.276 219.55C324.166 218.41 322.606 218.32 321.496 218.32H319.276V213.55H317.116V226ZM319.276 224.08V220.24H321.316C322.006 220.24 322.696 220.24 323.236 220.6C323.866 220.99 324.016 221.62 324.016 222.16C324.016 223.12 323.476 223.57 323.206 223.75C322.696 224.05 322.006 224.08 321.286 224.08H319.276ZM329.128 226H331.288V220.63H337.168V226H339.328V213.55H337.168V218.65H331.288V213.55H329.128V226ZM343.395 226H347.745C348.975 226 350.325 225.97 351.405 224.95C351.945 224.44 352.515 223.51 352.515 222.16C352.515 220.9 352.035 220.03 351.555 219.55C350.445 218.41 348.885 218.32 347.775 218.32H345.555V213.55H343.395V226ZM345.555 224.08V220.24H347.595C348.285 220.24 348.975 220.24 349.515 220.6C350.145 220.99 350.295 221.62 350.295 222.16C350.295 223.12 349.755 223.57 349.485 223.75C348.975 224.05 348.285 224.08 347.565 224.08H345.555ZM354.015 226H356.175V213.55H354.015V226ZM358.801 226H361.021L362.611 218.29L366.901 226.87L371.131 218.29L372.781 226H375.001L372.001 212.59L366.961 222.73L361.801 212.59L358.801 226ZM45.7334 250.45C45.1334 250.03 43.8434 249.25 41.8634 249.25C38.0234 249.25 35.2034 252.04 35.2034 255.85C35.2034 259.6 37.9934 262.36 41.8634 262.36C43.0334 262.36 44.4734 262.06 45.8234 261.07V258.49C44.6834 259.87 43.0934 260.44 41.8034 260.44C39.5834 260.44 37.4234 258.85 37.4234 255.82C37.4234 252.79 39.5234 251.17 41.8334 251.17C42.9434 251.17 44.5934 251.59 45.7334 253.03V250.45ZM54.6354 262.36C58.4154 262.36 61.2354 259.6 61.2354 255.82C61.2354 252.04 58.4454 249.25 54.6354 249.25C50.8254 249.25 48.0354 252.04 48.0354 255.82C48.0354 259.6 50.8554 262.36 54.6354 262.36ZM54.6354 251.17C56.9154 251.17 59.0154 252.76 59.0154 255.82C59.0154 258.85 56.8854 260.44 54.6354 260.44C52.4154 260.44 50.2554 258.88 50.2554 255.82C50.2554 252.79 52.3554 251.17 54.6354 251.17ZM64.5478 262H66.7078V251.53H71.9278V249.55H64.5478V262ZM83.2256 249.55H74.4656V257.14C74.4656 257.89 74.4356 258.67 74.0456 259.27C73.8056 259.66 73.2956 260.08 72.4856 260.08C72.3356 260.08 72.1556 260.05 72.0056 260.02V262C72.2156 262.03 72.4556 262.06 72.6656 262.06C74.3456 262.06 75.2756 261.22 75.6656 260.74C76.6256 259.57 76.6256 258.19 76.6256 257.14V251.53H81.0656V262H83.2256V249.55ZM96.8515 251.32C96.2815 250.57 94.9915 249.25 92.5915 249.25C89.4115 249.25 86.5315 251.47 86.5315 255.76C86.5315 260.14 89.4415 262.36 92.5915 262.36C94.7815 262.36 96.1315 261.19 96.8515 260.26V262H99.0115V249.55H96.8515V251.32ZM92.8315 251.17C94.7515 251.17 96.9715 252.58 96.9715 255.79C96.9715 258.25 95.4715 260.44 92.8315 260.44C90.2515 260.44 88.7515 258.43 88.7515 255.76C88.7515 252.73 90.7015 251.17 92.8315 251.17ZM103.103 262H119.183V249.55H117.023V260.02H112.223V249.55H110.063V260.02H105.263V249.55H103.103V262ZM132.499 257.83C132.229 258.43 131.779 259.06 131.209 259.54C130.489 260.14 129.679 260.44 128.659 260.44C126.499 260.44 124.729 258.79 124.699 256.21H134.389C134.449 254.56 133.999 252.64 133.219 251.53C132.469 250.45 130.939 249.25 128.509 249.25C124.759 249.25 122.479 252.13 122.479 255.85C122.479 260.47 125.629 262.36 128.629 262.36C130.219 262.36 131.629 261.85 132.769 260.83C133.399 260.26 133.939 259.51 134.299 258.82L132.499 257.83ZM124.849 254.41C125.179 252.55 126.679 251.17 128.509 251.17C130.339 251.17 131.809 252.46 132.169 254.41H124.849ZM137.702 262H139.862V256.63H145.742V262H147.902V249.55H145.742V254.65H139.862V249.55H137.702V262ZM151.97 249.55V262.87L160.49 253.69V262H162.65V248.59L154.13 257.77V249.55H151.97ZM165.295 262H167.875L171.415 256.99H172.735V262H174.895V249.55H170.545C169.315 249.55 167.965 249.58 166.885 250.6C166.195 251.23 165.775 252.22 165.775 253.39C165.775 254.56 166.255 255.4 166.765 255.88C167.665 256.75 169.015 256.87 169.165 256.87L165.295 262ZM172.735 255.19H170.695C170.185 255.19 169.405 255.22 168.775 254.83C168.235 254.5 167.995 253.99 167.995 253.33C167.995 252.52 168.415 252.04 168.775 251.8C169.225 251.53 169.855 251.47 170.725 251.47H172.735V255.19ZM177.541 262H179.761L181.351 254.29L185.641 262.87L189.871 254.29L191.521 262H193.741L190.741 248.59L185.701 258.73L180.541 248.59L177.541 262ZM206.356 239.8C205.756 241.39 205.036 243.64 204.586 245.56C203.896 248.56 203.746 251.35 203.746 253.36C203.746 255.58 203.956 258.1 204.376 260.32C204.466 260.8 205.036 263.65 206.356 267.1L208.246 266.23C207.616 264.49 207.076 262.69 206.686 260.74C206.116 258.04 205.966 255.88 205.966 253.42C205.966 250.81 206.176 248.47 206.716 245.86C207.136 243.82 207.706 242.08 208.246 240.67L206.356 239.8ZM221.444 257.83C221.174 258.43 220.724 259.06 220.154 259.54C219.434 260.14 218.624 260.44 217.604 260.44C215.444 260.44 213.674 258.79 213.644 256.21H223.334C223.394 254.56 222.944 252.64 222.164 251.53C221.414 250.45 219.884 249.25 217.454 249.25C213.704 249.25 211.424 252.13 211.424 255.85C211.424 260.47 214.574 262.36 217.574 262.36C219.164 262.36 220.574 261.85 221.714 260.83C222.344 260.26 222.884 259.51 223.244 258.82L221.444 257.83ZM213.794 254.41C214.124 252.55 215.624 251.17 217.454 251.17C219.284 251.17 220.754 252.46 221.114 254.41H213.794ZM236.397 250.45C235.797 250.03 234.507 249.25 232.527 249.25C228.687 249.25 225.867 252.04 225.867 255.85C225.867 259.6 228.657 262.36 232.527 262.36C233.697 262.36 235.137 262.06 236.487 261.07V258.49C235.347 259.87 233.757 260.44 232.467 260.44C230.247 260.44 228.087 258.85 228.087 255.82C228.087 252.79 230.187 251.17 232.497 251.17C233.607 251.17 235.257 251.59 236.397 253.03V250.45ZM249.222 249.55H240.462V257.14C240.462 257.89 240.432 258.67 240.042 259.27C239.802 259.66 239.292 260.08 238.482 260.08C238.332 260.08 238.152 260.05 238.002 260.02V262C238.212 262.03 238.452 262.06 238.662 262.06C240.342 262.06 241.272 261.22 241.662 260.74C242.622 259.57 242.622 258.19 242.622 257.14V251.53H247.062V262H249.222V249.55ZM253.308 249.55V262.87L261.828 253.69V262H263.988V248.59L255.468 257.77V249.55H253.308ZM275.075 249.55V262.87L283.595 253.69V262H285.755V248.59L277.235 257.77V249.55H275.075ZM288.401 262H290.621L292.211 254.29L296.501 262.87L300.731 254.29L302.381 262H304.601L301.601 248.59L296.561 258.73L291.401 248.59L288.401 262ZM316.483 257.83C316.213 258.43 315.763 259.06 315.193 259.54C314.473 260.14 313.663 260.44 312.643 260.44C310.483 260.44 308.713 258.79 308.683 256.21H318.373C318.433 254.56 317.983 252.64 317.203 251.53C316.453 250.45 314.923 249.25 312.493 249.25C308.743 249.25 306.463 252.13 306.463 255.85C306.463 260.47 309.613 262.36 312.613 262.36C314.203 262.36 315.613 261.85 316.753 260.83C317.383 260.26 317.923 259.51 318.283 258.82L316.483 257.83ZM308.833 254.41C309.163 252.55 310.663 251.17 312.493 251.17C314.323 251.17 315.793 252.46 316.153 254.41H308.833ZM323.846 254.65V249.55H321.686V262H323.846V256.63H325.976C326.126 258.13 326.756 259.27 327.356 260.02C328.286 261.19 329.906 262.36 332.486 262.36C336.296 262.36 339.086 259.6 339.086 255.82C339.086 252.04 336.326 249.25 332.486 249.25C330.506 249.25 328.856 249.97 327.776 251.11C326.996 251.92 326.306 253.15 326.096 254.65H323.846ZM332.486 251.17C334.766 251.17 336.866 252.79 336.866 255.82C336.866 258.85 334.736 260.44 332.486 260.44C330.296 260.44 328.196 258.88 328.196 255.82C328.196 252.85 330.176 251.17 332.486 251.17ZM350.266 251.53V249.55H340.306V251.53H344.206V262H346.366V251.53H350.266ZM361.993 250.45C361.393 250.03 360.103 249.25 358.123 249.25C354.283 249.25 351.463 252.04 351.463 255.85C351.463 259.6 354.253 262.36 358.123 262.36C359.293 262.36 360.733 262.06 362.083 261.07V258.49C360.943 259.87 359.353 260.44 358.063 260.44C355.843 260.44 353.683 258.85 353.683 255.82C353.683 252.79 355.783 251.17 358.093 251.17C359.203 251.17 360.853 251.59 361.993 253.03V250.45ZM363.957 262H366.537L370.077 256.99H371.397V262H373.557V249.55H369.207C367.977 249.55 366.627 249.58 365.547 250.6C364.857 251.23 364.437 252.22 364.437 253.39C364.437 254.56 364.917 255.4 365.427 255.88C366.327 256.75 367.677 256.87 367.827 256.87L363.957 262ZM371.397 255.19H369.357C368.847 255.19 368.067 255.22 367.437 254.83C366.897 254.5 366.657 253.99 366.657 253.33C366.657 252.52 367.077 252.04 367.437 251.8C367.887 251.53 368.517 251.47 369.387 251.47H371.397V255.19ZM377.524 240.67C378.064 242.08 378.634 243.82 379.054 245.86C379.594 248.47 379.804 250.81 379.804 253.42C379.804 255.88 379.654 258.04 379.084 260.74C378.694 262.69 378.154 264.49 377.524 266.23L379.414 267.1C380.734 263.65 381.304 260.8 381.394 260.32C381.814 258.1 382.024 255.58 382.024 253.36C382.024 251.35 381.874 248.56 381.184 245.56C380.734 243.64 380.014 241.39 379.414 239.8L377.524 240.67ZM385.142 265.99L386.552 266.56L389.582 259.78L387.602 259.06L385.142 265.99ZM45.2234 293.83C44.9534 294.43 44.5034 295.06 43.9334 295.54C43.2134 296.14 42.4034 296.44 41.3834 296.44C39.2234 296.44 37.4534 294.79 37.4234 292.21H47.1134C47.1734 290.56 46.7234 288.64 45.9434 287.53C45.1934 286.45 43.6634 285.25 41.2334 285.25C37.4834 285.25 35.2034 288.13 35.2034 291.85C35.2034 296.47 38.3534 298.36 41.3534 298.36C42.9434 298.36 44.3534 297.85 45.4934 296.83C46.1234 296.26 46.6634 295.51 47.0234 294.82L45.2234 293.83ZM37.5734 290.41C37.9034 288.55 39.4034 287.17 41.2334 287.17C43.0634 287.17 44.5334 288.46 44.8934 290.41H37.5734ZM60.1767 286.45C59.5767 286.03 58.2867 285.25 56.3067 285.25C52.4667 285.25 49.6467 288.04 49.6467 291.85C49.6467 295.6 52.4367 298.36 56.3067 298.36C57.4767 298.36 58.9167 298.06 60.2667 297.07V294.49C59.1267 295.87 57.5367 296.44 56.2467 296.44C54.0267 296.44 51.8667 294.85 51.8667 291.82C51.8667 288.79 53.9667 287.17 56.2767 287.17C57.3867 287.17 59.0367 287.59 60.1767 289.03V286.45ZM73.001 285.55H64.241V293.14C64.241 293.89 64.211 294.67 63.821 295.27C63.581 295.66 63.071 296.08 62.261 296.08C62.111 296.08 61.931 296.05 61.781 296.02V298C61.991 298.03 62.231 298.06 62.441 298.06C64.121 298.06 65.051 297.22 65.441 296.74C66.401 295.57 66.401 294.19 66.401 293.14V287.53H70.841V298H73.001V285.55ZM77.0869 285.55V298.87L85.6069 289.69V298H87.7669V284.59L79.2469 293.77V285.55H77.0869ZM98.8545 298H101.014V292.63H106.894V298H109.054V285.55H106.894V290.65H101.014V285.55H98.8545V298ZM122.362 293.83C122.092 294.43 121.642 295.06 121.072 295.54C120.352 296.14 119.542 296.44 118.522 296.44C116.362 296.44 114.592 294.79 114.562 292.21H124.252C124.312 290.56 123.862 288.64 123.082 287.53C122.332 286.45 120.802 285.25 118.372 285.25C114.622 285.25 112.342 288.13 112.342 291.85C112.342 296.47 115.492 298.36 118.492 298.36C120.082 298.36 121.492 297.85 122.632 296.83C123.262 296.26 123.802 295.51 124.162 294.82L122.362 293.83ZM114.712 290.41C115.042 288.55 116.542 287.17 118.372 287.17C120.202 287.17 121.672 288.46 122.032 290.41H114.712ZM135.725 287.53V285.55H125.765V287.53H129.665V298H131.825V287.53H135.725ZM136.968 301.99L138.378 302.56L141.408 295.78L139.428 295.06L136.968 301.99ZM161.682 287.53V285.55H151.722V287.53H155.622V298H157.782V287.53H161.682ZM169.479 298.36C173.259 298.36 176.079 295.6 176.079 291.82C176.079 288.04 173.289 285.25 169.479 285.25C165.669 285.25 162.879 288.04 162.879 291.82C162.879 295.6 165.699 298.36 169.479 298.36ZM169.479 287.17C171.759 287.17 173.859 288.76 173.859 291.82C173.859 294.85 171.729 296.44 169.479 296.44C167.259 296.44 165.099 294.88 165.099 291.82C165.099 288.79 167.199 287.17 169.479 287.17ZM186.394 285.55V298H191.764C192.754 298 193.954 297.73 194.704 297.16C195.394 296.62 195.994 295.66 195.994 294.34C195.994 293.38 195.694 292.6 195.004 291.94C194.404 291.37 193.804 291.19 193.444 291.1C194.194 290.62 194.794 289.84 194.794 288.61C194.794 287.35 194.164 286.63 193.714 286.27C192.844 285.58 191.764 285.55 191.104 285.55H186.394ZM188.554 290.62V287.47H190.474C191.134 287.47 191.704 287.44 192.214 287.77C192.544 288.01 192.814 288.37 192.814 288.97C192.814 289.72 192.454 290.08 192.214 290.26C191.734 290.59 191.044 290.62 190.834 290.62H188.554ZM188.554 296.08V292.42H191.314C191.914 292.42 192.724 292.45 193.264 292.87C193.684 293.2 193.894 293.71 193.894 294.28C193.894 294.85 193.564 295.36 193.174 295.66C192.634 296.05 191.824 296.08 191.224 296.08H188.554ZM212.946 298H215.106V285.55H212.946V291.13C212.016 291.31 211.056 291.4 210.246 291.4C209.586 291.4 208.746 291.34 208.356 290.59C208.146 290.23 208.086 289.57 208.086 289.12V285.55H205.926V289.42C205.926 290.62 206.136 291.73 206.976 292.48C207.936 293.35 209.376 293.38 210.006 293.38C210.876 293.38 212.166 293.23 212.946 293.11V298ZM228.417 293.83C228.147 294.43 227.697 295.06 227.127 295.54C226.407 296.14 225.597 296.44 224.577 296.44C222.417 296.44 220.647 294.79 220.617 292.21H230.307C230.367 290.56 229.917 288.64 229.137 287.53C228.387 286.45 226.857 285.25 224.427 285.25C220.677 285.25 218.397 288.13 218.397 291.85C218.397 296.47 221.547 298.36 224.547 298.36C226.137 298.36 227.547 297.85 228.687 296.83C229.317 296.26 229.857 295.51 230.217 294.82L228.417 293.83ZM220.767 290.41C221.097 288.55 222.597 287.17 224.427 287.17C226.257 287.17 227.727 288.46 228.087 290.41H220.767ZM232.18 298H234.4L235.99 290.29L240.28 298.87L244.51 290.29L246.16 298H248.38L245.38 284.59L240.34 294.73L235.18 284.59L232.18 298ZM258.024 285.55V298.87L266.544 289.69V298H268.704V284.59L260.184 293.77V285.55H258.024ZM271.35 298H273.57L275.16 290.29L279.45 298.87L283.68 290.29L285.33 298H287.55L284.55 284.59L279.51 294.73L274.35 284.59L271.35 298ZM299.432 293.83C299.162 294.43 298.712 295.06 298.142 295.54C297.422 296.14 296.612 296.44 295.592 296.44C293.432 296.44 291.662 294.79 291.632 292.21H301.322C301.382 290.56 300.932 288.64 300.152 287.53C299.402 286.45 297.872 285.25 295.442 285.25C291.692 285.25 289.412 288.13 289.412 291.85C289.412 296.47 292.562 298.36 295.562 298.36C297.152 298.36 298.562 297.85 299.702 296.83C300.332 296.26 300.872 295.51 301.232 294.82L299.432 293.83ZM291.782 290.41C292.112 288.55 293.612 287.17 295.442 287.17C297.272 287.17 298.742 288.46 299.102 290.41H291.782ZM304.636 298H306.796V292.63H312.676V298H314.836V285.55H312.676V290.65H306.796V285.55H304.636V298ZM318.903 298H321.063V292.63H326.943V298H329.103V285.55H326.943V290.65H321.063V285.55H318.903V298ZM338.991 298.36C342.771 298.36 345.591 295.6 345.591 291.82C345.591 288.04 342.801 285.25 338.991 285.25C335.181 285.25 332.391 288.04 332.391 291.82C332.391 295.6 335.211 298.36 338.991 298.36ZM338.991 287.17C341.271 287.17 343.371 288.76 343.371 291.82C343.371 294.85 341.241 296.44 338.991 296.44C336.771 296.44 334.611 294.88 334.611 291.82C334.611 288.79 336.711 287.17 338.991 287.17ZM355.533 289.33C355.533 290.05 355.263 290.89 354.813 291.34C354.483 291.67 353.973 291.88 353.343 291.88C352.623 291.88 352.143 291.61 351.873 291.34C351.573 291.04 351.273 290.56 351.273 289.78C351.273 288.37 352.293 287.89 352.743 287.68C353.463 287.35 354.213 287.17 354.903 286.93C355.803 286.6 356.583 286.15 357.213 285.43C357.993 284.53 358.233 283.57 358.233 282.49C358.233 280.66 357.543 279.58 356.913 278.95C355.923 277.96 354.693 277.66 353.373 277.66C351.603 277.66 350.433 278.26 349.713 279.04C348.753 280.06 348.573 281.32 348.573 282.28C348.573 282.76 348.603 283.18 348.693 283.6H350.913C350.793 283.21 350.733 282.73 350.733 282.34C350.733 281.68 350.973 280.84 351.513 280.33C351.993 279.88 352.713 279.7 353.403 279.7C354.333 279.7 354.903 280.03 355.233 280.33C355.923 280.96 356.013 281.83 356.013 282.43C356.013 283.21 355.863 284.44 354.093 285.07C353.463 285.31 352.623 285.43 351.573 285.91C350.253 286.51 349.053 287.5 349.053 289.63C349.053 291.25 349.773 292.24 350.253 292.72C350.853 293.32 351.843 293.92 353.373 293.92C355.023 293.92 355.983 293.23 356.463 292.72C357.213 291.94 357.693 290.74 357.693 289.33H355.533ZM351.903 296.86C351.903 297.67 352.593 298.36 353.403 298.36C354.213 298.36 354.903 297.67 354.903 296.86C354.903 296.05 354.213 295.36 353.403 295.36C352.593 295.36 351.903 296.05 351.903 296.86Z" fill="#434343"/>
<path d="M48.2714 35.624C51.9794 35.624 54.8954 37.46 54.8954 43.4C54.8954 49.34 51.9794 51.176 48.2714 51.176C44.5634 51.176 41.6474 49.34 41.6474 43.4C41.6474 37.46 44.5634 35.624 48.2714 35.624ZM47.6594 30.656C40.6754 30.656 35.0234 33.716 35.0234 43.4C35.0234 53.084 40.6754 56.144 47.6594 56.144H48.8834C55.8674 56.144 61.5194 53.084 61.5194 43.4C61.5194 33.716 55.8674 30.656 48.8834 30.656H47.6594ZM69.8317 30.8C68.9317 30.8 67.9237 31.016 67.2397 31.628L62.9557 35.336C62.4877 35.732 62.0557 36.2 62.5957 36.92L63.9277 38.612C64.2877 39.044 65.0077 39.224 65.4757 38.864L67.4917 37.388V54.38C67.4917 55.28 68.2477 56 69.1477 56H72.4237C73.3597 56 74.1157 55.244 74.1157 54.344V32.456C74.1157 31.52 73.3597 30.8 72.4237 30.8H69.8317Z" fill="white"/>
<rect x="86.9434" y="40.5" width="314.861" height="2" fill="white"/>
<defs>
<filter id="filter0_d_52_293" x="0" y="0" width="435.75" height="351" filterUnits="userSpaceOnUse" color-interpolation-filters="sRGB">
<feFlood flood-opacity="0" result="BackgroundImageFix"/>
<feColorMatrix in="SourceAlpha" type="matrix" values="0 0 0 0 0 0 0 0 0 0 0 0 0 0 0 0 0 0 127 0" result="hardAlpha"/>
<feOffset dy="4"/>
<feGaussianBlur stdDeviation="8"/>
<feComposite in2="hardAlpha" operator="out"/>
<feColorMatrix type="matrix" values="0 0 0 0 0.262745 0 0 0 0 0.262745 0 0 0 0 0.262745 0 0 0 0.25 0"/>
<feBlend mode="normal" in2="BackgroundImageFix" result="effect1_dropShadow_52_293"/>
<feBlend mode="normal" in="SourceGraphic" in2="effect1_dropShadow_52_293" result="shape"/>
</filter>
</defs>
</svg>
