<svg width="14" height="21" viewBox="0 0 14 21" fill="none" xmlns="http://www.w3.org/2000/svg">
<path d="M7.00264 20.4042C7.85946 20.4042 8.58476 19.8264 8.80793 19.0373H5.19336C5.42052 19.8264 6.14582 20.4042 7.00264 20.4042Z" fill="#EEEEEE"/>
<path d="M3.2041 15.9647C3.2041 17.0009 4.04896 17.8417 5.08113 17.8417H8.92285C9.95901 17.8417 10.7999 16.9969 10.7999 15.9647V15.2832H3.2041V15.9647Z" fill="#EEEEEE"/>
<path d="M7.77445 7.31683C7.66685 7.14148 7.65489 6.92229 7.74655 6.73499L8.5954 5.03729H6.08871L4.76562 7.68346H5.71809C6.04886 7.68346 6.31587 7.95047 6.31587 8.28124V10.0387L8.75879 7.59579H8.28057C8.07334 7.59977 7.88205 7.49217 7.77445 7.31683Z" fill="#EEEEEE"/>
<path d="M7.00199 0C3.14033 0 0 3.14033 0 7.00199C0 8.87902 0.733276 10.6405 2.06433 11.9636C2.64219 12.5374 3.02476 13.2906 3.15229 14.0877H10.8477C10.9752 13.2866 11.3578 12.5374 11.9357 11.9636C13.2667 10.6405 14 8.87902 14 7.00199C14.004 3.14033 10.8636 0 7.00199 0Z" fill="#EEEEEE"/>
</svg>
