<svg width="436" height="351" viewBox="0 0 436 351" fill="none" xmlns="http://www.w3.org/2000/svg">
<g filter="url(#filter0_d_52_303)">
<g filter="url(#filter1_d_52_303)">
<rect x="16.25" y="12" width="403.75" height="319" rx="5" fill="white"/>
</g>
<path d="M16.25 17C16.25 14.2386 18.4886 12 21.25 12H415C417.761 12 420 14.2386 420 17V70H16.25V17Z" fill="#0057B3"/>
<path d="M36.7734 97.99V118H41.7534C43.1334 118 44.9634 117.94 46.5534 116.68C47.6334 115.84 48.5934 114.28 48.5934 112.36C48.5934 110.44 47.5734 108.01 44.7834 107.32C46.5534 106.12 46.7634 104.38 46.7634 103.39C46.7634 100.96 45.5934 99.73 44.9634 99.25C43.4934 98.08 41.4834 97.99 40.3734 97.99H36.7734ZM38.9934 100.09H40.7334C41.3634 100.09 44.6034 100.15 44.6034 103.45C44.6034 106.54 41.8434 106.78 40.6734 106.78H38.9934V100.09ZM38.9934 108.76H41.2734C42.8634 108.76 43.9134 108.94 44.6634 109.36C45.4434 109.78 46.3734 110.71 46.3734 112.3C46.3734 113.5 45.8334 114.49 45.0534 115.06C44.0934 115.81 42.8334 115.9 41.5434 115.9H38.9934V108.76ZM59.1435 105.55V118H61.3035V113.17L61.9635 112.54L66.8235 118H69.6435L63.5835 111.1L68.9835 105.55H66.3435L61.3035 110.65V105.55H59.1435ZM81.3398 107.32C80.7698 106.57 79.4798 105.25 77.0798 105.25C73.8998 105.25 71.0198 107.47 71.0198 111.76C71.0198 116.14 73.9298 118.36 77.0798 118.36C79.2698 118.36 80.6198 117.19 81.3398 116.26V118H83.4998V105.55H81.3398V107.32ZM77.3198 107.17C79.2398 107.17 81.4598 108.58 81.4598 111.79C81.4598 114.25 79.9598 116.44 77.3198 116.44C74.7398 116.44 73.2398 114.43 73.2398 111.76C73.2398 108.73 75.1898 107.17 77.3198 107.17ZM87.5908 105.55V118H89.7508V113.17L90.4108 112.54L95.2708 118H98.0908L92.0308 111.1L97.4308 105.55H94.7908L89.7508 110.65V105.55H87.5908ZM105.481 118.36C109.261 118.36 112.081 115.6 112.081 111.82C112.081 108.04 109.291 105.25 105.481 105.25C101.671 105.25 98.8811 108.04 98.8811 111.82C98.8811 115.6 101.701 118.36 105.481 118.36ZM105.481 107.17C107.761 107.17 109.861 108.76 109.861 111.82C109.861 114.85 107.731 116.44 105.481 116.44C103.261 116.44 101.101 114.88 101.101 111.82C101.101 108.79 103.201 107.17 105.481 107.17ZM115.394 105.55V118.87L123.914 109.69V118H126.074V104.59L117.554 113.77V105.55H115.394ZM116.474 100.18C117.104 101.95 118.724 103.09 120.824 103.09C122.924 103.09 124.544 101.95 125.174 100.18L123.374 99.49C123.074 100.51 122.234 101.29 120.824 101.29C119.414 101.29 118.574 100.51 118.274 99.49L116.474 100.18ZM146.911 106.45C146.311 106.03 145.021 105.25 143.041 105.25C139.201 105.25 136.381 108.04 136.381 111.85C136.381 115.6 139.171 118.36 143.041 118.36C144.211 118.36 145.651 118.06 147.001 117.07V114.49C145.861 115.87 144.271 116.44 142.981 116.44C140.761 116.44 138.601 114.85 138.601 111.82C138.601 108.79 140.701 107.17 143.011 107.17C144.121 107.17 145.771 107.59 146.911 109.03V106.45ZM152.475 116.26C153.405 117.46 154.815 118.36 156.825 118.36C160.605 118.36 162.795 115.27 162.795 111.85C162.795 108.49 160.635 105.25 156.735 105.25C155.835 105.25 153.945 105.46 152.475 107.29V105.55H150.315V124.9H152.475V116.26ZM156.525 116.44C153.975 116.44 152.355 114.37 152.355 111.82C152.355 108.82 154.485 107.17 156.495 107.17C158.505 107.17 160.575 108.79 160.575 111.85C160.575 114.34 159.045 116.44 156.525 116.44ZM171.926 118.36C175.706 118.36 178.526 115.6 178.526 111.82C178.526 108.04 175.736 105.25 171.926 105.25C168.116 105.25 165.326 108.04 165.326 111.82C165.326 115.6 168.146 118.36 171.926 118.36ZM171.926 107.17C174.206 107.17 176.306 108.76 176.306 111.82C176.306 114.85 174.176 116.44 171.926 116.44C169.706 116.44 167.546 114.88 167.546 111.82C167.546 108.79 169.646 107.17 171.926 107.17ZM181.839 105.55V118H183.999V113.17L184.659 112.54L189.519 118H192.339L186.279 111.1L191.679 105.55H189.039L183.999 110.65V105.55H181.839ZM201.497 105.55V118H206.867C207.857 118 209.057 117.73 209.807 117.16C210.497 116.62 211.097 115.66 211.097 114.34C211.097 113.38 210.797 112.6 210.107 111.94C209.507 111.37 208.907 111.19 208.547 111.1C209.297 110.62 209.897 109.84 209.897 108.61C209.897 107.35 209.267 106.63 208.817 106.27C207.947 105.58 206.867 105.55 206.207 105.55H201.497ZM203.657 110.62V107.47H205.577C206.237 107.47 206.807 107.44 207.317 107.77C207.647 108.01 207.917 108.37 207.917 108.97C207.917 109.72 207.557 110.08 207.317 110.26C206.837 110.59 206.147 110.62 205.937 110.62H203.657ZM203.657 116.08V112.42H206.417C207.017 112.42 207.827 112.45 208.367 112.87C208.787 113.2 208.997 113.71 208.997 114.28C208.997 114.85 208.667 115.36 208.277 115.66C207.737 116.05 206.927 116.08 206.327 116.08H203.657ZM214.388 118H218.738C219.968 118 221.318 117.97 222.398 116.95C222.938 116.44 223.508 115.51 223.508 114.16C223.508 112.9 223.028 112.03 222.548 111.55C221.438 110.41 219.878 110.32 218.768 110.32H216.548V105.55H214.388V118ZM216.548 116.08V112.24H218.588C219.278 112.24 219.968 112.24 220.508 112.6C221.138 112.99 221.288 113.62 221.288 114.16C221.288 115.12 220.748 115.57 220.478 115.75C219.968 116.05 219.278 116.08 218.558 116.08H216.548ZM225.008 118H227.168V105.55H225.008V118ZM231.233 105.55V118H233.393V107.53H239.093V118H241.253V105.55H231.233ZM251.145 118.36C254.925 118.36 257.745 115.6 257.745 111.82C257.745 108.04 254.955 105.25 251.145 105.25C247.335 105.25 244.545 108.04 244.545 111.82C244.545 115.6 247.365 118.36 251.145 118.36ZM251.145 107.17C253.425 107.17 255.525 108.76 255.525 111.82C255.525 114.85 253.395 116.44 251.145 116.44C248.925 116.44 246.765 114.88 246.765 111.82C246.765 108.79 248.865 107.17 251.145 107.17ZM270.478 105.55H261.718V113.14C261.718 113.89 261.688 114.67 261.298 115.27C261.058 115.66 260.548 116.08 259.738 116.08C259.588 116.08 259.408 116.05 259.258 116.02V118C259.468 118.03 259.708 118.06 259.918 118.06C261.598 118.06 262.528 117.22 262.918 116.74C263.878 115.57 263.878 114.19 263.878 113.14V107.53H268.318V118H270.478V105.55ZM274.563 118H276.723V112.63H282.603V118H284.763V105.55H282.603V110.65H276.723V105.55H274.563V118ZM298.071 113.83C297.801 114.43 297.351 115.06 296.781 115.54C296.061 116.14 295.251 116.44 294.231 116.44C292.071 116.44 290.301 114.79 290.271 112.21H299.961C300.021 110.56 299.571 108.64 298.791 107.53C298.041 106.45 296.511 105.25 294.081 105.25C290.331 105.25 288.051 108.13 288.051 111.85C288.051 116.47 291.201 118.36 294.201 118.36C295.791 118.36 297.201 117.85 298.341 116.83C298.971 116.26 299.511 115.51 299.871 114.82L298.071 113.83ZM290.421 110.41C290.751 108.55 292.251 107.17 294.081 107.17C295.911 107.17 297.381 108.46 297.741 110.41H290.421ZM303.274 118H305.434V112.63H311.314V118H313.474V105.55H311.314V110.65H305.434V105.55H303.274V118ZM317.542 118H321.892C323.122 118 324.472 117.97 325.552 116.95C326.092 116.44 326.662 115.51 326.662 114.16C326.662 112.9 326.182 112.03 325.702 111.55C324.592 110.41 323.032 110.32 321.922 110.32H319.702V105.55H317.542V118ZM319.702 116.08V112.24H321.742C322.432 112.24 323.122 112.24 323.662 112.6C324.292 112.99 324.442 113.62 324.442 114.16C324.442 115.12 323.902 115.57 323.632 115.75C323.122 116.05 322.432 116.08 321.712 116.08H319.702ZM328.162 118H330.322V105.55H328.162V118ZM38.3934 152.26C39.3234 153.46 40.7334 154.36 42.7434 154.36C46.5234 154.36 48.7134 151.27 48.7134 147.85C48.7134 144.49 46.5534 141.25 42.6534 141.25C41.7534 141.25 39.8634 141.46 38.3934 143.29V141.55H36.2334V160.9H38.3934V152.26ZM42.4434 152.44C39.8934 152.44 38.2734 150.37 38.2734 147.82C38.2734 144.82 40.4034 143.17 42.4134 143.17C44.4234 143.17 46.4934 144.79 46.4934 147.85C46.4934 150.34 44.9634 152.44 42.4434 152.44ZM61.5644 143.32C60.9944 142.57 59.7044 141.25 57.3044 141.25C54.1244 141.25 51.2444 143.47 51.2444 147.76C51.2444 152.14 54.1544 154.36 57.3044 154.36C59.4944 154.36 60.8444 153.19 61.5644 152.26V154H63.7244V141.55H61.5644V143.32ZM57.5444 143.17C59.4644 143.17 61.6844 144.58 61.6844 147.79C61.6844 150.25 60.1844 152.44 57.5444 152.44C54.9644 152.44 53.4644 150.43 53.4644 147.76C53.4644 144.73 55.4144 143.17 57.5444 143.17ZM77.4154 133C77.1454 133.69 76.6054 134.2 74.9254 134.59C73.4854 134.92 71.9254 135.19 70.5754 136.12C67.1254 138.49 67.0354 144.16 67.0354 146.38C67.0354 148.57 67.2454 151.06 69.1354 152.8C69.9454 153.55 71.3254 154.36 73.4254 154.36C77.5054 154.36 80.2354 151.54 80.2354 147.82C80.2354 144.1 77.4754 141.25 73.7554 141.25C71.5354 141.25 70.0354 142.15 69.2254 143.53H69.1654C69.2554 141.25 70.2154 139 71.7754 137.83C72.9754 136.96 74.5654 136.69 75.7354 136.39C77.0554 136.06 79.0954 135.4 79.8154 133H77.4154ZM73.6354 143.17C75.9154 143.17 78.0154 144.76 78.0154 147.82C78.0154 150.85 75.8854 152.44 73.6354 152.44C71.4154 152.44 69.2554 150.88 69.2554 147.82C69.2554 144.79 71.3554 143.17 73.6354 143.17ZM89.3678 154.36C93.1478 154.36 95.9678 151.6 95.9678 147.82C95.9678 144.04 93.1778 141.25 89.3678 141.25C85.5578 141.25 82.7678 144.04 82.7678 147.82C82.7678 151.6 85.5878 154.36 89.3678 154.36ZM89.3678 143.17C91.6478 143.17 93.7478 144.76 93.7478 147.82C93.7478 150.85 91.6178 152.44 89.3678 152.44C87.1478 152.44 84.9878 150.88 84.9878 147.82C84.9878 144.79 87.0878 143.17 89.3678 143.17ZM107.147 143.53V141.55H97.1873V143.53H101.087V154H103.247V143.53H107.147ZM109.417 154H113.767C114.997 154 116.347 153.97 117.427 152.95C117.967 152.44 118.537 151.51 118.537 150.16C118.537 148.9 118.057 148.03 117.577 147.55C116.467 146.41 114.907 146.32 113.797 146.32H111.577V141.55H109.417V154ZM111.577 152.08V148.24H113.617C114.307 148.24 114.997 148.24 115.537 148.6C116.167 148.99 116.317 149.62 116.317 150.16C116.317 151.12 115.777 151.57 115.507 151.75C114.997 152.05 114.307 152.08 113.587 152.08H111.577ZM120.037 154H122.197V141.55H120.037V154ZM133.265 141.55V154H135.425V143.53H141.125V154H143.285V141.55H133.265ZM153.176 154.36C156.956 154.36 159.776 151.6 159.776 147.82C159.776 144.04 156.986 141.25 153.176 141.25C149.366 141.25 146.576 144.04 146.576 147.82C146.576 151.6 149.396 154.36 153.176 154.36ZM153.176 143.17C155.456 143.17 157.556 144.76 157.556 147.82C157.556 150.85 155.426 152.44 153.176 152.44C150.956 152.44 148.796 150.88 148.796 147.82C148.796 144.79 150.896 143.17 153.176 143.17ZM170.091 141.55V154H172.251V143.53H177.951V154H180.111V141.55H170.091ZM186.343 152.26C187.273 153.46 188.683 154.36 190.693 154.36C194.473 154.36 196.663 151.27 196.663 147.85C196.663 144.49 194.503 141.25 190.603 141.25C189.703 141.25 187.813 141.46 186.343 143.29V141.55H184.183V160.9H186.343V152.26ZM190.393 152.44C187.843 152.44 186.223 150.37 186.223 147.82C186.223 144.82 188.353 143.17 190.363 143.17C192.373 143.17 194.443 144.79 194.443 147.85C194.443 150.34 192.913 152.44 190.393 152.44ZM205.794 154.36C209.574 154.36 212.394 151.6 212.394 147.82C212.394 144.04 209.604 141.25 205.794 141.25C201.984 141.25 199.194 144.04 199.194 147.82C199.194 151.6 202.014 154.36 205.794 154.36ZM205.794 143.17C208.074 143.17 210.174 144.76 210.174 147.82C210.174 150.85 208.044 152.44 205.794 152.44C203.574 152.44 201.414 150.88 201.414 147.82C201.414 144.79 203.514 143.17 205.794 143.17ZM215.706 141.55V154.87L224.226 145.69V154H226.386V140.59L217.866 149.77V141.55H215.706ZM232.092 144.73C232.392 144.19 232.782 143.86 233.112 143.65C233.742 143.26 234.342 143.17 234.822 143.17C235.212 143.17 235.902 143.17 236.412 143.62C236.742 143.89 236.952 144.37 236.952 144.91C236.952 145.48 236.622 145.84 236.292 146.05C236.112 146.17 235.662 146.38 234.672 146.38H233.622V148.36H234.882C235.452 148.36 236.292 148.36 236.922 148.78C237.342 149.05 237.672 149.53 237.672 150.22C237.672 151.12 237.222 151.69 236.802 151.96C236.142 152.41 235.182 152.44 234.702 152.44C234.042 152.44 233.352 152.32 232.662 151.81C231.972 151.3 231.672 150.7 231.552 150.4L229.692 151.18C230.052 151.96 230.622 152.77 231.342 153.31C232.392 154.12 233.562 154.36 234.672 154.36C236.022 154.36 237.312 154.06 238.212 153.4C239.232 152.65 239.832 151.48 239.832 150.19C239.832 149.23 239.472 148.45 238.962 147.91C238.662 147.58 238.152 147.25 237.522 147.1C238.152 146.71 238.932 145.96 238.932 144.49C238.932 143.62 238.662 142.81 237.852 142.12C236.922 141.34 235.902 141.25 234.912 141.25C234.102 141.25 233.142 141.37 232.182 141.94C231.582 142.3 231.012 142.9 230.592 143.5L232.092 144.73ZM243.128 141.55V154H248.498C249.488 154 250.688 153.73 251.438 153.16C252.128 152.62 252.728 151.66 252.728 150.34C252.728 149.38 252.428 148.6 251.738 147.94C251.138 147.37 250.538 147.19 250.178 147.1C250.928 146.62 251.528 145.84 251.528 144.61C251.528 143.35 250.898 142.63 250.448 142.27C249.578 141.58 248.498 141.55 247.838 141.55H243.128ZM245.288 146.62V143.47H247.208C247.868 143.47 248.438 143.44 248.948 143.77C249.278 144.01 249.548 144.37 249.548 144.97C249.548 145.72 249.188 146.08 248.948 146.26C248.468 146.59 247.778 146.62 247.568 146.62H245.288ZM245.288 152.08V148.42H248.048C248.648 148.42 249.458 148.45 249.998 148.87C250.418 149.2 250.628 149.71 250.628 150.28C250.628 150.85 250.298 151.36 249.908 151.66C249.368 152.05 248.558 152.08 247.958 152.08H245.288ZM261.839 154.36C265.619 154.36 268.439 151.6 268.439 147.82C268.439 144.04 265.649 141.25 261.839 141.25C258.029 141.25 255.239 144.04 255.239 147.82C255.239 151.6 258.059 154.36 261.839 154.36ZM261.839 143.17C264.119 143.17 266.219 144.76 266.219 147.82C266.219 150.85 264.089 152.44 261.839 152.44C259.619 152.44 257.459 150.88 257.459 147.82C257.459 144.79 259.559 143.17 261.839 143.17ZM272.651 141.55V147.1C272.651 148.36 272.561 149.53 272.141 150.4C271.721 151.27 270.911 151.99 269.831 152.02V157.3H271.811V154H281.291V157.3H283.271V152.02H281.411V141.55H272.651ZM279.251 152.02H273.311C274.481 151 274.811 149.65 274.811 148.21V143.53H279.251V152.02ZM295.3 142.45C294.7 142.03 293.41 141.25 291.43 141.25C287.59 141.25 284.77 144.04 284.77 147.85C284.77 151.6 287.56 154.36 291.43 154.36C292.6 154.36 294.04 154.06 295.39 153.07V150.49C294.25 151.87 292.66 152.44 291.37 152.44C289.15 152.44 286.99 150.85 286.99 147.82C286.99 144.79 289.09 143.17 291.4 143.17C292.51 143.17 294.16 143.59 295.3 145.03V142.45ZM306.864 143.53V141.55H296.904V143.53H300.804V154H302.964V143.53H306.864ZM309.134 141.55V154H314.504C315.494 154 316.694 153.73 317.444 153.16C318.134 152.62 318.734 151.66 318.734 150.34C318.734 149.38 318.434 148.6 317.744 147.94C317.144 147.37 316.544 147.19 316.184 147.1C316.934 146.62 317.534 145.84 317.534 144.61C317.534 143.35 316.904 142.63 316.454 142.27C315.584 141.58 314.504 141.55 313.844 141.55H309.134ZM311.294 146.62V143.47H313.214C313.874 143.47 314.444 143.44 314.954 143.77C315.284 144.01 315.554 144.37 315.554 144.97C315.554 145.72 315.194 146.08 314.954 146.26C314.474 146.59 313.784 146.62 313.574 146.62H311.294ZM311.294 152.08V148.42H314.054C314.654 148.42 315.464 148.45 316.004 148.87C316.424 149.2 316.634 149.71 316.634 150.28C316.634 150.85 316.304 151.36 315.914 151.66C315.374 152.05 314.564 152.08 313.964 152.08H311.294ZM321.994 160.9H324.394L333.544 141.55H331.144L327.094 150.46L322.684 141.55H320.224L325.954 152.83L321.994 160.9ZM45.9834 178.45C45.3834 178.03 44.0934 177.25 42.1134 177.25C38.2734 177.25 35.4534 180.04 35.4534 183.85C35.4534 187.6 38.2434 190.36 42.1134 190.36C43.2834 190.36 44.7234 190.06 46.0734 189.07V186.49C44.9334 187.87 43.3434 188.44 42.0534 188.44C39.8334 188.44 37.6734 186.85 37.6734 183.82C37.6734 180.79 39.7734 179.17 42.0834 179.17C43.1934 179.17 44.8434 179.59 45.9834 181.03V178.45ZM49.3877 177.55V190H51.5477V179.53H57.2477V190H59.4077V177.55H49.3877ZM69.2995 190.36C73.0795 190.36 75.8995 187.6 75.8995 183.82C75.8995 180.04 73.1095 177.25 69.2995 177.25C65.4895 177.25 62.6995 180.04 62.6995 183.82C62.6995 187.6 65.5195 190.36 69.2995 190.36ZM69.2995 179.17C71.5795 179.17 73.6795 180.76 73.6795 183.82C73.6795 186.85 71.5495 188.44 69.2995 188.44C67.0795 188.44 64.9195 186.88 64.9195 183.82C64.9195 180.79 67.0195 179.17 69.2995 179.17ZM81.3719 188.26C82.3019 189.46 83.7119 190.36 85.7219 190.36C89.5019 190.36 91.6919 187.27 91.6919 183.85C91.6919 180.49 89.5319 177.25 85.6319 177.25C84.7319 177.25 82.8419 177.46 81.3719 179.29V177.55H79.2119V196.9H81.3719V188.26ZM85.4219 188.44C82.8719 188.44 81.2519 186.37 81.2519 183.82C81.2519 180.82 83.3819 179.17 85.3919 179.17C87.4019 179.17 89.4719 180.79 89.4719 183.85C89.4719 186.34 87.9419 188.44 85.4219 188.44ZM95.0029 190H97.1629V184.63H103.043V190H105.203V177.55H103.043V182.65H97.1629V177.55H95.0029V190ZM115.09 190.36C118.87 190.36 121.69 187.6 121.69 183.82C121.69 180.04 118.9 177.25 115.09 177.25C111.28 177.25 108.49 180.04 108.49 183.82C108.49 187.6 111.31 190.36 115.09 190.36ZM115.09 179.17C117.37 179.17 119.47 180.76 119.47 183.82C119.47 186.85 117.34 188.44 115.09 188.44C112.87 188.44 110.71 186.88 110.71 183.82C110.71 180.79 112.81 179.17 115.09 179.17ZM125.003 190H127.163V179.53H132.383V177.55H125.003V190ZM139.729 190.36C143.509 190.36 146.329 187.6 146.329 183.82C146.329 180.04 143.539 177.25 139.729 177.25C135.919 177.25 133.129 180.04 133.129 183.82C133.129 187.6 135.949 190.36 139.729 190.36ZM139.729 179.17C142.009 179.17 144.109 180.76 144.109 183.82C144.109 186.85 141.979 188.44 139.729 188.44C137.509 188.44 135.349 186.88 135.349 183.82C135.349 180.79 137.449 179.17 139.729 179.17ZM156.644 177.55V190H158.804V179.53H164.504V190H166.664V177.55H156.644ZM172.895 188.26C173.825 189.46 175.235 190.36 177.245 190.36C181.025 190.36 183.215 187.27 183.215 183.85C183.215 180.49 181.055 177.25 177.155 177.25C176.255 177.25 174.365 177.46 172.895 179.29V177.55H170.735V196.9H172.895V188.26ZM176.945 188.44C174.395 188.44 172.775 186.37 172.775 183.82C172.775 180.82 174.905 179.17 176.915 179.17C178.925 179.17 180.995 180.79 180.995 183.85C180.995 186.34 179.465 188.44 176.945 188.44ZM192.346 190.36C196.126 190.36 198.946 187.6 198.946 183.82C198.946 180.04 196.156 177.25 192.346 177.25C188.536 177.25 185.746 180.04 185.746 183.82C185.746 187.6 188.566 190.36 192.346 190.36ZM192.346 179.17C194.626 179.17 196.726 180.76 196.726 183.82C196.726 186.85 194.596 188.44 192.346 188.44C190.126 188.44 187.966 186.88 187.966 183.82C187.966 180.79 190.066 179.17 192.346 179.17ZM202.259 190H204.419V179.53H209.639V177.55H202.259V190ZM213.97 188.26C214.9 189.46 216.31 190.36 218.32 190.36C222.1 190.36 224.29 187.27 224.29 183.85C224.29 180.49 222.13 177.25 218.23 177.25C217.33 177.25 215.44 177.46 213.97 179.29V177.55H211.81V196.9H213.97V188.26ZM218.02 188.44C215.47 188.44 213.85 186.37 213.85 183.82C213.85 180.82 215.98 179.17 217.99 179.17C220 179.17 222.07 180.79 222.07 183.85C222.07 186.34 220.54 188.44 218.02 188.44ZM237.141 179.32C236.571 178.57 235.281 177.25 232.881 177.25C229.701 177.25 226.821 179.47 226.821 183.76C226.821 188.14 229.731 190.36 232.881 190.36C235.071 190.36 236.421 189.19 237.141 188.26V190H239.301V177.55H237.141V179.32ZM233.121 179.17C235.041 179.17 237.261 180.58 237.261 183.79C237.261 186.25 235.761 188.44 233.121 188.44C230.541 188.44 229.041 186.43 229.041 183.76C229.041 180.73 230.991 179.17 233.121 179.17ZM241.952 190H244.172L245.762 182.29L250.052 190.87L254.282 182.29L255.932 190H258.152L255.152 176.59L250.112 186.73L244.952 176.59L241.952 190ZM259.354 190H261.574L263.164 182.29L267.454 190.87L271.684 182.29L273.334 190H275.554L272.554 176.59L267.514 186.73L262.354 176.59L259.354 190ZM278.196 190H280.356V184.63H286.236V190H288.396V177.55H286.236V182.65H280.356V177.55H278.196V190ZM298.284 190.36C302.064 190.36 304.884 187.6 304.884 183.82C304.884 180.04 302.094 177.25 298.284 177.25C294.474 177.25 291.684 180.04 291.684 183.82C291.684 187.6 294.504 190.36 298.284 190.36ZM298.284 179.17C300.564 179.17 302.664 180.76 302.664 183.82C302.664 186.85 300.534 188.44 298.284 188.44C296.064 188.44 293.904 186.88 293.904 183.82C293.904 180.79 296.004 179.17 298.284 179.17ZM308.196 190H310.356V179.53H315.576V177.55H308.196V190ZM322.923 190.36C326.703 190.36 329.523 187.6 329.523 183.82C329.523 180.04 326.733 177.25 322.923 177.25C319.113 177.25 316.323 180.04 316.323 183.82C316.323 187.6 319.143 190.36 322.923 190.36ZM322.923 179.17C325.203 179.17 327.303 180.76 327.303 183.82C327.303 186.85 325.173 188.44 322.923 188.44C320.703 188.44 318.543 186.88 318.543 183.82C318.543 180.79 320.643 179.17 322.923 179.17ZM42.0534 226.36C45.8334 226.36 48.6534 223.6 48.6534 219.82C48.6534 216.04 45.8634 213.25 42.0534 213.25C38.2434 213.25 35.4534 216.04 35.4534 219.82C35.4534 223.6 38.2734 226.36 42.0534 226.36ZM42.0534 215.17C44.3334 215.17 46.4334 216.76 46.4334 219.82C46.4334 222.85 44.3034 224.44 42.0534 224.44C39.8334 224.44 37.6734 222.88 37.6734 219.82C37.6734 216.79 39.7734 215.17 42.0534 215.17ZM61.5658 205C61.2958 205.69 60.7558 206.2 59.0758 206.59C57.6358 206.92 56.0758 207.19 54.7258 208.12C51.2758 210.49 51.1858 216.16 51.1858 218.38C51.1858 220.57 51.3958 223.06 53.2858 224.8C54.0958 225.55 55.4758 226.36 57.5758 226.36C61.6558 226.36 64.3858 223.54 64.3858 219.82C64.3858 216.1 61.6258 213.25 57.9058 213.25C55.6858 213.25 54.1858 214.15 53.3758 215.53H53.3158C53.4058 213.25 54.3658 211 55.9258 209.83C57.1258 208.96 58.7158 208.69 59.8858 208.39C61.2058 208.06 63.2458 207.4 63.9658 205H61.5658ZM57.7858 215.17C60.0658 215.17 62.1658 216.76 62.1658 219.82C62.1658 222.85 60.0358 224.44 57.7858 224.44C55.5658 224.44 53.4058 222.88 53.4058 219.82C53.4058 216.79 55.5058 215.17 57.7858 215.17ZM76.9382 221.83C76.6682 222.43 76.2182 223.06 75.6482 223.54C74.9282 224.14 74.1182 224.44 73.0982 224.44C70.9382 224.44 69.1682 222.79 69.1382 220.21H78.8282C78.8882 218.56 78.4382 216.64 77.6582 215.53C76.9082 214.45 75.3782 213.25 72.9482 213.25C69.1982 213.25 66.9182 216.13 66.9182 219.85C66.9182 224.47 70.0682 226.36 73.0682 226.36C74.6582 226.36 76.0682 225.85 77.2082 224.83C77.8382 224.26 78.3782 223.51 78.7382 222.82L76.9382 221.83ZM69.2882 218.41C69.6182 216.55 71.1182 215.17 72.9482 215.17C74.7782 215.17 76.2482 216.46 76.6082 218.41H69.2882ZM91.8916 214.45C91.2916 214.03 90.0016 213.25 88.0216 213.25C84.1816 213.25 81.3616 216.04 81.3616 219.85C81.3616 223.6 84.1516 226.36 88.0216 226.36C89.1916 226.36 90.6316 226.06 91.9816 225.07V222.49C90.8416 223.87 89.2516 224.44 87.9616 224.44C85.7416 224.44 83.5816 222.85 83.5816 219.82C83.5816 216.79 85.6816 215.17 87.9916 215.17C89.1016 215.17 90.7516 215.59 91.8916 217.03V214.45ZM95.2959 213.55V226H97.4559V215.53H103.156V226H105.316V213.55H95.2959ZM118.628 221.83C118.358 222.43 117.908 223.06 117.338 223.54C116.618 224.14 115.808 224.44 114.788 224.44C112.628 224.44 110.858 222.79 110.828 220.21H120.518C120.578 218.56 120.128 216.64 119.348 215.53C118.598 214.45 117.068 213.25 114.638 213.25C110.888 213.25 108.608 216.13 108.608 219.85C108.608 224.47 111.758 226.36 114.758 226.36C116.348 226.36 117.758 225.85 118.898 224.83C119.528 224.26 120.068 223.51 120.428 222.82L118.628 221.83ZM110.978 218.41C111.308 216.55 112.808 215.17 114.638 215.17C116.468 215.17 117.938 216.46 118.298 218.41H110.978ZM130.491 226H132.651V213.55H130.491V219.13C129.561 219.31 128.601 219.4 127.791 219.4C127.131 219.4 126.291 219.34 125.901 218.59C125.691 218.23 125.631 217.57 125.631 217.12V213.55H123.471V217.42C123.471 218.62 123.681 219.73 124.521 220.48C125.481 221.35 126.921 221.38 127.551 221.38C128.421 221.38 129.711 221.23 130.491 221.11V226ZM145.962 221.83C145.692 222.43 145.242 223.06 144.672 223.54C143.952 224.14 143.142 224.44 142.122 224.44C139.962 224.44 138.192 222.79 138.162 220.21H147.852C147.912 218.56 147.462 216.64 146.682 215.53C145.932 214.45 144.402 213.25 141.972 213.25C138.222 213.25 135.942 216.13 135.942 219.85C135.942 224.47 139.092 226.36 142.092 226.36C143.682 226.36 145.092 225.85 146.232 224.83C146.862 224.26 147.402 223.51 147.762 222.82L145.962 221.83ZM138.312 218.41C138.642 216.55 140.142 215.17 141.972 215.17C143.802 215.17 145.272 216.46 145.632 218.41H138.312ZM151.165 226H153.325V220.63H159.205V226H161.365V213.55H159.205V218.65H153.325V213.55H151.165V226ZM165.433 213.55V226.87L173.953 217.69V226H176.113V212.59L167.593 221.77V213.55H165.433ZM178.758 226H181.338L184.878 220.99H186.198V226H188.358V213.55H184.008C182.778 213.55 181.428 213.58 180.348 214.6C179.658 215.23 179.238 216.22 179.238 217.39C179.238 218.56 179.718 219.4 180.228 219.88C181.128 220.75 182.478 220.87 182.628 220.87L178.758 226ZM186.198 219.19H184.158C183.648 219.19 182.868 219.22 182.238 218.83C181.698 218.5 181.458 217.99 181.458 217.33C181.458 216.52 181.878 216.04 182.238 215.8C182.688 215.53 183.318 215.47 184.188 215.47H186.198V219.19ZM199.074 217.33C199.074 218.05 198.804 218.89 198.354 219.34C198.024 219.67 197.514 219.88 196.884 219.88C196.164 219.88 195.684 219.61 195.414 219.34C195.114 219.04 194.814 218.56 194.814 217.78C194.814 216.37 195.834 215.89 196.284 215.68C197.004 215.35 197.754 215.17 198.444 214.93C199.344 214.6 200.124 214.15 200.754 213.43C201.534 212.53 201.774 211.57 201.774 210.49C201.774 208.66 201.084 207.58 200.454 206.95C199.464 205.96 198.234 205.66 196.914 205.66C195.144 205.66 193.974 206.26 193.254 207.04C192.294 208.06 192.114 209.32 192.114 210.28C192.114 210.76 192.144 211.18 192.234 211.6H194.454C194.334 211.21 194.274 210.73 194.274 210.34C194.274 209.68 194.514 208.84 195.054 208.33C195.534 207.88 196.254 207.7 196.944 207.7C197.874 207.7 198.444 208.03 198.774 208.33C199.464 208.96 199.554 209.83 199.554 210.43C199.554 211.21 199.404 212.44 197.634 213.07C197.004 213.31 196.164 213.43 195.114 213.91C193.794 214.51 192.594 215.5 192.594 217.63C192.594 219.25 193.314 220.24 193.794 220.72C194.394 221.32 195.384 221.92 196.914 221.92C198.564 221.92 199.524 221.23 200.004 220.72C200.754 219.94 201.234 218.74 201.234 217.33H199.074ZM195.444 224.86C195.444 225.67 196.134 226.36 196.944 226.36C197.754 226.36 198.444 225.67 198.444 224.86C198.444 224.05 197.754 223.36 196.944 223.36C196.134 223.36 195.444 224.05 195.444 224.86Z" fill="#434343"/>
<path d="M48.5214 35.624C52.2294 35.624 55.1454 37.46 55.1454 43.4C55.1454 49.34 52.2294 51.176 48.5214 51.176C44.8134 51.176 41.8974 49.34 41.8974 43.4C41.8974 37.46 44.8134 35.624 48.5214 35.624ZM47.9094 30.656C40.9254 30.656 35.2734 33.716 35.2734 43.4C35.2734 53.084 40.9254 56.144 47.9094 56.144H49.1334C56.1174 56.144 61.7694 53.084 61.7694 43.4C61.7694 33.716 56.1174 30.656 49.1334 30.656H47.9094ZM63.2057 49.916C63.2057 50.816 63.9617 51.572 64.8977 51.572H79.2257V54.38C79.2257 55.28 79.9817 56 80.8817 56H84.1577C85.0937 56 85.8497 55.244 85.8497 54.344V51.572H87.7937C88.7297 51.572 89.4857 50.816 89.4857 49.916V48.26C89.4857 47.324 88.7297 46.604 87.7937 46.604H85.8497V32.456C85.8497 31.52 85.0937 30.8 84.1577 30.8H78.6497C77.4617 30.8 76.5977 31.124 75.9137 31.88L64.2857 45.092C63.6017 45.848 63.2057 46.64 63.2057 47.828V49.916ZM79.2257 46.604H70.2617L79.2257 36.416V46.604Z" fill="white"/>
<rect x="101.193" y="40.5" width="300.861" height="2" fill="white"/>
</g>
<defs>
<filter id="filter0_d_52_303" x="12.25" y="12" width="411.75" height="327" filterUnits="userSpaceOnUse" color-interpolation-filters="sRGB">
<feFlood flood-opacity="0" result="BackgroundImageFix"/>
<feColorMatrix in="SourceAlpha" type="matrix" values="0 0 0 0 0 0 0 0 0 0 0 0 0 0 0 0 0 0 127 0" result="hardAlpha"/>
<feOffset dy="4"/>
<feGaussianBlur stdDeviation="2"/>
<feComposite in2="hardAlpha" operator="out"/>
<feColorMatrix type="matrix" values="0 0 0 0 0 0 0 0 0 0 0 0 0 0 0 0 0 0 0.25 0"/>
<feBlend mode="normal" in2="BackgroundImageFix" result="effect1_dropShadow_52_303"/>
<feBlend mode="normal" in="SourceGraphic" in2="effect1_dropShadow_52_303" result="shape"/>
</filter>
<filter id="filter1_d_52_303" x="0.25" y="0" width="435.75" height="351" filterUnits="userSpaceOnUse" color-interpolation-filters="sRGB">
<feFlood flood-opacity="0" result="BackgroundImageFix"/>
<feColorMatrix in="SourceAlpha" type="matrix" values="0 0 0 0 0 0 0 0 0 0 0 0 0 0 0 0 0 0 127 0" result="hardAlpha"/>
<feOffset dy="4"/>
<feGaussianBlur stdDeviation="8"/>
<feComposite in2="hardAlpha" operator="out"/>
<feColorMatrix type="matrix" values="0 0 0 0 0.262745 0 0 0 0 0.262745 0 0 0 0 0.262745 0 0 0 0.25 0"/>
<feBlend mode="normal" in2="BackgroundImageFix" result="effect1_dropShadow_52_303"/>
<feBlend mode="normal" in="SourceGraphic" in2="effect1_dropShadow_52_303" result="shape"/>
</filter>
</defs>
</svg>
