<svg width="437" height="351" viewBox="0 0 437 351" fill="none" xmlns="http://www.w3.org/2000/svg">
<g filter="url(#filter0_d_52_295)">
<rect x="16.5" y="12" width="403.75" height="319" rx="5" fill="white"/>
</g>
<path d="M16.5 17C16.5 14.2386 18.7386 12 21.5 12H415.25C418.011 12 420.25 14.2386 420.25 17V70H16.5V17Z" fill="#0057B3"/>
<path d="M52.3234 99.64C49.9234 97.81 47.6134 97.66 46.4134 97.66C40.4134 97.66 35.9434 102.1 35.9434 108.07C35.9434 113.86 40.3534 118.36 46.2934 118.36C47.7934 118.36 50.1034 118 52.3234 116.41V113.65C51.9634 114.01 51.1534 114.76 50.0134 115.33C48.9634 115.87 47.6434 116.26 46.2934 116.26C42.6334 116.26 38.2234 113.53 38.2234 108.1C38.2234 103.48 41.6434 99.76 46.2634 99.76C47.4334 99.76 48.6634 100.06 49.7134 100.54C50.7334 101.02 51.6934 101.77 52.3234 102.4V99.64ZM55.8779 105.55V118H58.0379V107.53H63.7379V118H65.8979V105.55H55.8779ZM75.7897 118.36C79.5697 118.36 82.3897 115.6 82.3897 111.82C82.3897 108.04 79.5997 105.25 75.7897 105.25C71.9797 105.25 69.1897 108.04 69.1897 111.82C69.1897 115.6 72.0097 118.36 75.7897 118.36ZM75.7897 107.17C78.0697 107.17 80.1697 108.76 80.1697 111.82C80.1697 114.85 78.0397 116.44 75.7897 116.44C73.5697 116.44 71.4097 114.88 71.4097 111.82C71.4097 108.79 73.5097 107.17 75.7897 107.17ZM95.4521 106.45C94.8521 106.03 93.5621 105.25 91.5821 105.25C87.7421 105.25 84.9221 108.04 84.9221 111.85C84.9221 115.6 87.7121 118.36 91.5821 118.36C92.7521 118.36 94.1921 118.06 95.5421 117.07V114.49C94.4021 115.87 92.8121 116.44 91.5221 116.44C89.3021 116.44 87.1421 114.85 87.1421 111.82C87.1421 108.79 89.2421 107.17 91.5521 107.17C92.6621 107.17 94.3121 107.59 95.4521 109.03V106.45ZM104.354 118.36C108.134 118.36 110.954 115.6 110.954 111.82C110.954 108.04 108.164 105.25 104.354 105.25C100.544 105.25 97.7541 108.04 97.7541 111.82C97.7541 115.6 100.574 118.36 104.354 118.36ZM104.354 107.17C106.634 107.17 108.734 108.76 108.734 111.82C108.734 114.85 106.604 116.44 104.354 116.44C102.134 116.44 99.9741 114.88 99.9741 111.82C99.9741 108.79 102.074 107.17 104.354 107.17ZM123.867 97C123.597 97.69 123.057 98.2 121.377 98.59C119.937 98.92 118.377 99.19 117.027 100.12C113.577 102.49 113.487 108.16 113.487 110.38C113.487 112.57 113.697 115.06 115.587 116.8C116.397 117.55 117.777 118.36 119.877 118.36C123.957 118.36 126.687 115.54 126.687 111.82C126.687 108.1 123.927 105.25 120.207 105.25C117.987 105.25 116.487 106.15 115.677 107.53H115.617C115.707 105.25 116.667 103 118.227 101.83C119.427 100.96 121.017 100.69 122.187 100.39C123.507 100.06 125.547 99.4 126.267 97H123.867ZM120.087 107.17C122.367 107.17 124.467 108.76 124.467 111.82C124.467 114.85 122.337 116.44 120.087 116.44C117.867 116.44 115.707 114.88 115.707 111.82C115.707 108.79 117.807 107.17 120.087 107.17ZM129.999 118H132.159V112.63H138.039V118H140.199V105.55H138.039V110.65H132.159V105.55H129.999V118ZM150.087 118.36C153.867 118.36 156.687 115.6 156.687 111.82C156.687 108.04 153.897 105.25 150.087 105.25C146.277 105.25 143.487 108.04 143.487 111.82C143.487 115.6 146.307 118.36 150.087 118.36ZM150.087 107.17C152.367 107.17 154.467 108.76 154.467 111.82C154.467 114.85 152.337 116.44 150.087 116.44C147.867 116.44 145.707 114.88 145.707 111.82C145.707 108.79 147.807 107.17 150.087 107.17ZM176.421 105.55H167.661V113.14C167.661 113.89 167.631 114.67 167.241 115.27C167.001 115.66 166.491 116.08 165.681 116.08C165.531 116.08 165.351 116.05 165.201 116.02V118C165.411 118.03 165.651 118.06 165.861 118.06C167.541 118.06 168.471 117.22 168.861 116.74C169.821 115.57 169.821 114.19 169.821 113.14V107.53H174.261V118H176.421V105.55ZM180.507 105.55V118.87L189.027 109.69V118H191.187V104.59L182.667 113.77V105.55H180.507ZM212.024 106.45C211.424 106.03 210.134 105.25 208.154 105.25C204.314 105.25 201.494 108.04 201.494 111.85C201.494 115.6 204.284 118.36 208.154 118.36C209.324 118.36 210.764 118.06 212.114 117.07V114.49C210.974 115.87 209.384 116.44 208.094 116.44C205.874 116.44 203.714 114.85 203.714 111.82C203.714 108.79 205.814 107.17 208.124 107.17C209.234 107.17 210.884 107.59 212.024 109.03V106.45ZM215.429 105.55V118H217.589V107.53H223.289V118H225.449V105.55H215.429ZM235.34 118.36C239.12 118.36 241.94 115.6 241.94 111.82C241.94 108.04 239.15 105.25 235.34 105.25C231.53 105.25 228.74 108.04 228.74 111.82C228.74 115.6 231.56 118.36 235.34 118.36ZM235.34 107.17C237.62 107.17 239.72 108.76 239.72 111.82C239.72 114.85 237.59 116.44 235.34 116.44C233.12 116.44 230.96 114.88 230.96 111.82C230.96 108.79 233.06 107.17 235.34 107.17ZM247.413 116.26C248.343 117.46 249.753 118.36 251.763 118.36C255.543 118.36 257.733 115.27 257.733 111.85C257.733 108.49 255.573 105.25 251.673 105.25C250.773 105.25 248.883 105.46 247.413 107.29V105.55H245.253V124.9H247.413V116.26ZM251.463 116.44C248.913 116.44 247.293 114.37 247.293 111.82C247.293 108.82 249.423 107.17 251.433 107.17C253.443 107.17 255.513 108.79 255.513 111.85C255.513 114.34 253.983 116.44 251.463 116.44ZM261.044 118H263.204V112.63H269.084V118H271.244V105.55H269.084V110.65H263.204V105.55H261.044V118ZM281.131 118.36C284.911 118.36 287.731 115.6 287.731 111.82C287.731 108.04 284.941 105.25 281.131 105.25C277.321 105.25 274.531 108.04 274.531 111.82C274.531 115.6 277.351 118.36 281.131 118.36ZM281.131 107.17C283.411 107.17 285.511 108.76 285.511 111.82C285.511 114.85 283.381 116.44 281.131 116.44C278.911 116.44 276.751 114.88 276.751 111.82C276.751 108.79 278.851 107.17 281.131 107.17ZM300.284 113.83C300.014 114.43 299.564 115.06 298.994 115.54C298.274 116.14 297.464 116.44 296.444 116.44C294.284 116.44 292.514 114.79 292.484 112.21H302.174C302.234 110.56 301.784 108.64 301.004 107.53C300.254 106.45 298.724 105.25 296.294 105.25C292.544 105.25 290.264 108.13 290.264 111.85C290.264 116.47 293.414 118.36 296.414 118.36C298.004 118.36 299.414 117.85 300.554 116.83C301.184 116.26 301.724 115.51 302.084 114.82L300.284 113.83ZM292.634 110.41C292.964 108.55 294.464 107.17 296.294 107.17C298.124 107.17 299.594 108.46 299.954 110.41H292.634ZM36.4834 141.55V154H38.6434V143.53H44.3434V154H46.5034V141.55H36.4834ZM52.7352 152.26C53.6652 153.46 55.0752 154.36 57.0852 154.36C60.8652 154.36 63.0552 151.27 63.0552 147.85C63.0552 144.49 60.8952 141.25 56.9952 141.25C56.0952 141.25 54.2052 141.46 52.7352 143.29V141.55H50.5752V160.9H52.7352V152.26ZM56.7852 152.44C54.2352 152.44 52.6152 150.37 52.6152 147.82C52.6152 144.82 54.7452 143.17 56.7552 143.17C58.7652 143.17 60.8352 144.79 60.8352 147.85C60.8352 150.34 59.3052 152.44 56.7852 152.44ZM72.1862 154.36C75.9662 154.36 78.7862 151.6 78.7862 147.82C78.7862 144.04 75.9962 141.25 72.1862 141.25C68.3762 141.25 65.5862 144.04 65.5862 147.82C65.5862 151.6 68.4062 154.36 72.1862 154.36ZM72.1862 143.17C74.4662 143.17 76.5662 144.76 76.5662 147.82C76.5662 150.85 74.4362 152.44 72.1862 152.44C69.9662 152.44 67.8062 150.88 67.8062 147.82C67.8062 144.79 69.9062 143.17 72.1862 143.17ZM82.0986 154H84.2586V143.53H89.4786V141.55H82.0986V154ZM93.8094 152.26C94.7394 153.46 96.1494 154.36 98.1594 154.36C101.939 154.36 104.129 151.27 104.129 147.85C104.129 144.49 101.969 141.25 98.0694 141.25C97.1694 141.25 95.2794 141.46 93.8094 143.29V141.55H91.6494V160.9H93.8094V152.26ZM97.8594 152.44C95.3094 152.44 93.6894 150.37 93.6894 147.82C93.6894 144.82 95.8194 143.17 97.8294 143.17C99.8394 143.17 101.909 144.79 101.909 147.85C101.909 150.34 100.379 152.44 97.8594 152.44ZM116.98 143.32C116.41 142.57 115.12 141.25 112.72 141.25C109.54 141.25 106.66 143.47 106.66 147.76C106.66 152.14 109.57 154.36 112.72 154.36C114.91 154.36 116.26 153.19 116.98 152.26V154H119.14V141.55H116.98V143.32ZM112.96 143.17C114.88 143.17 117.1 144.58 117.1 147.79C117.1 150.25 115.6 152.44 112.96 152.44C110.38 152.44 108.88 150.43 108.88 147.76C108.88 144.73 110.83 143.17 112.96 143.17ZM121.791 154H124.011L125.601 146.29L129.891 154.87L134.121 146.29L135.771 154H137.991L134.991 140.59L129.951 150.73L124.791 140.59L121.791 154ZM139.194 154H141.414L143.004 146.29L147.294 154.87L151.524 146.29L153.174 154H155.394L152.394 140.59L147.354 150.73L142.194 140.59L139.194 154ZM158.036 154H160.196V148.63H166.076V154H168.236V141.55H166.076V146.65H160.196V141.55H158.036V154ZM178.124 154.36C181.904 154.36 184.724 151.6 184.724 147.82C184.724 144.04 181.934 141.25 178.124 141.25C174.314 141.25 171.524 144.04 171.524 147.82C171.524 151.6 174.344 154.36 178.124 154.36ZM178.124 143.17C180.404 143.17 182.504 144.76 182.504 147.82C182.504 150.85 180.374 152.44 178.124 152.44C175.904 152.44 173.744 150.88 173.744 147.82C173.744 144.79 175.844 143.17 178.124 143.17ZM197.276 149.83C197.006 150.43 196.556 151.06 195.986 151.54C195.266 152.14 194.456 152.44 193.436 152.44C191.276 152.44 189.506 150.79 189.476 148.21H199.166C199.226 146.56 198.776 144.64 197.996 143.53C197.246 142.45 195.716 141.25 193.286 141.25C189.536 141.25 187.256 144.13 187.256 147.85C187.256 152.47 190.406 154.36 193.406 154.36C194.996 154.36 196.406 153.85 197.546 152.83C198.176 152.26 198.716 151.51 199.076 150.82L197.276 149.83ZM189.626 146.41C189.956 144.55 191.456 143.17 193.286 143.17C195.116 143.17 196.586 144.46 196.946 146.41H189.626ZM215.301 154.36C219.081 154.36 221.901 151.6 221.901 147.82C221.901 144.04 219.111 141.25 215.301 141.25C211.491 141.25 208.701 144.04 208.701 147.82C208.701 151.6 211.521 154.36 215.301 154.36ZM215.301 143.17C217.581 143.17 219.681 144.76 219.681 147.82C219.681 150.85 217.551 152.44 215.301 152.44C213.081 152.44 210.921 150.88 210.921 147.82C210.921 144.79 213.021 143.17 215.301 143.17ZM234.814 133C234.544 133.69 234.004 134.2 232.324 134.59C230.884 134.92 229.324 135.19 227.974 136.12C224.524 138.49 224.434 144.16 224.434 146.38C224.434 148.57 224.644 151.06 226.534 152.8C227.344 153.55 228.724 154.36 230.824 154.36C234.904 154.36 237.634 151.54 237.634 147.82C237.634 144.1 234.874 141.25 231.154 141.25C228.934 141.25 227.434 142.15 226.624 143.53H226.564C226.654 141.25 227.614 139 229.174 137.83C230.374 136.96 231.964 136.69 233.134 136.39C234.454 136.06 236.494 135.4 237.214 133H234.814ZM231.034 143.17C233.314 143.17 235.414 144.76 235.414 147.82C235.414 150.85 233.284 152.44 231.034 152.44C228.814 152.44 226.654 150.88 226.654 147.82C226.654 144.79 228.754 143.17 231.034 143.17ZM250.186 149.83C249.916 150.43 249.466 151.06 248.896 151.54C248.176 152.14 247.366 152.44 246.346 152.44C244.186 152.44 242.416 150.79 242.386 148.21H252.076C252.136 146.56 251.686 144.64 250.906 143.53C250.156 142.45 248.626 141.25 246.196 141.25C242.446 141.25 240.166 144.13 240.166 147.85C240.166 152.47 243.316 154.36 246.316 154.36C247.906 154.36 249.316 153.85 250.456 152.83C251.086 152.26 251.626 151.51 251.986 150.82L250.186 149.83ZM242.536 146.41C242.866 144.55 244.366 143.17 246.196 143.17C248.026 143.17 249.496 144.46 249.856 146.41H242.536ZM265.14 142.45C264.54 142.03 263.25 141.25 261.27 141.25C257.43 141.25 254.61 144.04 254.61 147.85C254.61 151.6 257.4 154.36 261.27 154.36C262.44 154.36 263.88 154.06 265.23 153.07V150.49C264.09 151.87 262.5 152.44 261.21 152.44C258.99 152.44 256.83 150.85 256.83 147.82C256.83 144.79 258.93 143.17 261.24 143.17C262.35 143.17 264 143.59 265.14 145.03V142.45ZM268.544 141.55V154H270.704V143.53H276.404V154H278.564V141.55H268.544ZM291.876 149.83C291.606 150.43 291.156 151.06 290.586 151.54C289.866 152.14 289.056 152.44 288.036 152.44C285.876 152.44 284.106 150.79 284.076 148.21H293.766C293.826 146.56 293.376 144.64 292.596 143.53C291.846 142.45 290.316 141.25 287.886 141.25C284.136 141.25 281.856 144.13 281.856 147.85C281.856 152.47 285.006 154.36 288.006 154.36C289.596 154.36 291.006 153.85 292.146 152.83C292.776 152.26 293.316 151.51 293.676 150.82L291.876 149.83ZM284.226 146.41C284.556 144.55 286.056 143.17 287.886 143.17C289.716 143.17 291.186 144.46 291.546 146.41H284.226ZM303.739 154H305.899V141.55H303.739V147.13C302.809 147.31 301.849 147.4 301.039 147.4C300.379 147.4 299.539 147.34 299.149 146.59C298.939 146.23 298.879 145.57 298.879 145.12V141.55H296.719V145.42C296.719 146.62 296.929 147.73 297.769 148.48C298.729 149.35 300.169 149.38 300.799 149.38C301.669 149.38 302.959 149.23 303.739 149.11V154ZM319.21 149.83C318.94 150.43 318.49 151.06 317.92 151.54C317.2 152.14 316.39 152.44 315.37 152.44C313.21 152.44 311.44 150.79 311.41 148.21H321.1C321.16 146.56 320.71 144.64 319.93 143.53C319.18 142.45 317.65 141.25 315.22 141.25C311.47 141.25 309.19 144.13 309.19 147.85C309.19 152.47 312.34 154.36 315.34 154.36C316.93 154.36 318.34 153.85 319.48 152.83C320.11 152.26 320.65 151.51 321.01 150.82L319.21 149.83ZM311.56 146.41C311.89 144.55 313.39 143.17 315.22 143.17C317.05 143.17 318.52 144.46 318.88 146.41H311.56ZM324.413 154H326.573V148.63H332.453V154H334.613V141.55H332.453V146.65H326.573V141.55H324.413V154ZM338.681 141.55V154.87L347.201 145.69V154H349.361V140.59L340.841 149.77V141.55H338.681ZM362.686 149.83C362.416 150.43 361.966 151.06 361.396 151.54C360.676 152.14 359.866 152.44 358.846 152.44C356.686 152.44 354.916 150.79 354.886 148.21H364.576C364.636 146.56 364.186 144.64 363.406 143.53C362.656 142.45 361.126 141.25 358.696 141.25C354.946 141.25 352.666 144.13 352.666 147.85C352.666 152.47 355.816 154.36 358.816 154.36C360.406 154.36 361.816 153.85 362.956 152.83C363.586 152.26 364.126 151.51 364.486 150.82L362.686 149.83ZM355.036 146.41C355.366 144.55 356.866 143.17 358.696 143.17C360.526 143.17 361.996 144.46 362.356 146.41H355.036ZM36.4834 177.55V190H41.8534C42.8434 190 44.0434 189.73 44.7934 189.16C45.4834 188.62 46.0834 187.66 46.0834 186.34C46.0834 185.38 45.7834 184.6 45.0934 183.94C44.4934 183.37 43.8934 183.19 43.5334 183.1C44.2834 182.62 44.8834 181.84 44.8834 180.61C44.8834 179.35 44.2534 178.63 43.8034 178.27C42.9334 177.58 41.8534 177.55 41.1934 177.55H36.4834ZM38.6434 182.62V179.47H40.5634C41.2234 179.47 41.7934 179.44 42.3034 179.77C42.6334 180.01 42.9034 180.37 42.9034 180.97C42.9034 181.72 42.5434 182.08 42.3034 182.26C41.8234 182.59 41.1334 182.62 40.9234 182.62H38.6434ZM38.6434 188.08V184.42H41.4034C42.0034 184.42 42.8134 184.45 43.3534 184.87C43.7734 185.2 43.9834 185.71 43.9834 186.28C43.9834 186.85 43.6534 187.36 43.2634 187.66C42.7234 188.05 41.9134 188.08 41.3134 188.08H38.6434ZM49.374 190H53.724C54.954 190 56.304 189.97 57.384 188.95C57.924 188.44 58.494 187.51 58.494 186.16C58.494 184.9 58.014 184.03 57.534 183.55C56.424 182.41 54.864 182.32 53.754 182.32H51.534V177.55H49.374V190ZM51.534 188.08V184.24H53.574C54.264 184.24 54.954 184.24 55.494 184.6C56.124 184.99 56.274 185.62 56.274 186.16C56.274 187.12 55.734 187.57 55.464 187.75C54.954 188.05 54.264 188.08 53.544 188.08H51.534ZM59.994 190H62.154V177.55H59.994V190ZM66.2197 177.55V190H68.3797V179.53H74.0797V190H76.2397V177.55H66.2197ZM86.1315 190.36C89.9115 190.36 92.7315 187.6 92.7315 183.82C92.7315 180.04 89.9415 177.25 86.1315 177.25C82.3215 177.25 79.5315 180.04 79.5315 183.82C79.5315 187.6 82.3515 190.36 86.1315 190.36ZM86.1315 179.17C88.4115 179.17 90.5115 180.76 90.5115 183.82C90.5115 186.85 88.3815 188.44 86.1315 188.44C83.9115 188.44 81.7515 186.88 81.7515 183.82C81.7515 180.79 83.8515 179.17 86.1315 179.17ZM105.464 177.55H96.7039V185.14C96.7039 185.89 96.6739 186.67 96.2839 187.27C96.0439 187.66 95.5339 188.08 94.7239 188.08C94.5739 188.08 94.3939 188.05 94.2439 188.02V190C94.4539 190.03 94.6939 190.06 94.9039 190.06C96.5839 190.06 97.5139 189.22 97.9039 188.74C98.8639 187.57 98.8639 186.19 98.8639 185.14V179.53H103.304V190H105.464V177.55ZM109.55 190H111.71V184.63H117.59V190H119.75V177.55H117.59V182.65H111.71V177.55H109.55V190ZM122.377 190H124.957L128.497 184.99H129.817V190H131.977V177.55H127.627C126.397 177.55 125.047 177.58 123.967 178.6C123.277 179.23 122.857 180.22 122.857 181.39C122.857 182.56 123.337 183.4 123.847 183.88C124.747 184.75 126.097 184.87 126.247 184.87L122.377 190ZM129.817 183.19H127.777C127.267 183.19 126.487 183.22 125.857 182.83C125.317 182.5 125.077 181.99 125.077 181.33C125.077 180.52 125.497 180.04 125.857 179.8C126.307 179.53 126.937 179.47 127.807 179.47H129.817V183.19ZM144.223 179.53V177.55H134.263V179.53H138.163V190H140.323V179.53H144.223ZM146.493 190H150.843C152.073 190 153.423 189.97 154.503 188.95C155.043 188.44 155.613 187.51 155.613 186.16C155.613 184.9 155.133 184.03 154.653 183.55C153.543 182.41 151.983 182.32 150.873 182.32H148.653V177.55H146.493V190ZM148.653 188.08V184.24H150.693C151.383 184.24 152.073 184.24 152.613 184.6C153.243 184.99 153.393 185.62 153.393 186.16C153.393 187.12 152.853 187.57 152.583 187.75C152.073 188.05 151.383 188.08 150.663 188.08H148.653ZM175.107 169C174.837 169.69 174.297 170.2 172.617 170.59C171.177 170.92 169.617 171.19 168.267 172.12C164.817 174.49 164.727 180.16 164.727 182.38C164.727 184.57 164.937 187.06 166.827 188.8C167.637 189.55 169.017 190.36 171.117 190.36C175.197 190.36 177.927 187.54 177.927 183.82C177.927 180.1 175.167 177.25 171.447 177.25C169.227 177.25 167.727 178.15 166.917 179.53H166.857C166.947 177.25 167.907 175 169.467 173.83C170.667 172.96 172.257 172.69 173.427 172.39C174.747 172.06 176.787 171.4 177.507 169H175.107ZM171.327 179.17C173.607 179.17 175.707 180.76 175.707 183.82C175.707 186.85 173.577 188.44 171.327 188.44C169.107 188.44 166.947 186.88 166.947 183.82C166.947 180.79 169.047 179.17 171.327 179.17ZM181.239 177.55V190.87L189.759 181.69V190H191.919V176.59L183.399 185.77V177.55H181.239ZM197.625 180.73C197.925 180.19 198.315 179.86 198.645 179.65C199.275 179.26 199.875 179.17 200.355 179.17C200.745 179.17 201.435 179.17 201.945 179.62C202.275 179.89 202.485 180.37 202.485 180.91C202.485 181.48 202.155 181.84 201.825 182.05C201.645 182.17 201.195 182.38 200.205 182.38H199.155V184.36H200.415C200.985 184.36 201.825 184.36 202.455 184.78C202.875 185.05 203.205 185.53 203.205 186.22C203.205 187.12 202.755 187.69 202.335 187.96C201.675 188.41 200.715 188.44 200.235 188.44C199.575 188.44 198.885 188.32 198.195 187.81C197.505 187.3 197.205 186.7 197.085 186.4L195.225 187.18C195.585 187.96 196.155 188.77 196.875 189.31C197.925 190.12 199.095 190.36 200.205 190.36C201.555 190.36 202.845 190.06 203.745 189.4C204.765 188.65 205.365 187.48 205.365 186.19C205.365 185.23 205.005 184.45 204.495 183.91C204.195 183.58 203.685 183.25 203.055 183.1C203.685 182.71 204.465 181.96 204.465 180.49C204.465 179.62 204.195 178.81 203.385 178.12C202.455 177.34 201.435 177.25 200.445 177.25C199.635 177.25 198.675 177.37 197.715 177.94C197.115 178.3 196.545 178.9 196.125 179.5L197.625 180.73ZM208.661 190H210.821V184.63H216.701V190H218.861V177.55H216.701V182.65H210.821V177.55H208.661V190ZM232.169 185.83C231.899 186.43 231.449 187.06 230.879 187.54C230.159 188.14 229.349 188.44 228.329 188.44C226.169 188.44 224.399 186.79 224.369 184.21H234.059C234.119 182.56 233.669 180.64 232.889 179.53C232.139 178.45 230.609 177.25 228.179 177.25C224.429 177.25 222.149 180.13 222.149 183.85C222.149 188.47 225.299 190.36 228.299 190.36C229.889 190.36 231.299 189.85 232.439 188.83C233.069 188.26 233.609 187.51 233.969 186.82L232.169 185.83ZM224.519 182.41C224.849 180.55 226.349 179.17 228.179 179.17C230.009 179.17 231.479 180.46 231.839 182.41H224.519ZM247.122 178.45C246.522 178.03 245.232 177.25 243.252 177.25C239.412 177.25 236.592 180.04 236.592 183.85C236.592 187.6 239.382 190.36 243.252 190.36C244.422 190.36 245.862 190.06 247.212 189.07V186.49C246.072 187.87 244.482 188.44 243.192 188.44C240.972 188.44 238.812 186.85 238.812 183.82C238.812 180.79 240.912 179.17 243.222 179.17C244.332 179.17 245.982 179.59 247.122 181.03V178.45ZM257.528 177.55V190H259.688V179.53H265.388V190H267.548V177.55H257.528ZM273.78 188.26C274.71 189.46 276.12 190.36 278.13 190.36C281.91 190.36 284.1 187.27 284.1 183.85C284.1 180.49 281.94 177.25 278.04 177.25C277.14 177.25 275.25 177.46 273.78 179.29V177.55H271.62V196.9H273.78V188.26ZM277.83 188.44C275.28 188.44 273.66 186.37 273.66 183.82C273.66 180.82 275.79 179.17 277.8 179.17C279.81 179.17 281.88 180.79 281.88 183.85C281.88 186.34 280.35 188.44 277.83 188.44ZM293.231 190.36C297.011 190.36 299.831 187.6 299.831 183.82C299.831 180.04 297.041 177.25 293.231 177.25C289.421 177.25 286.631 180.04 286.631 183.82C286.631 187.6 289.451 190.36 293.231 190.36ZM293.231 179.17C295.511 179.17 297.611 180.76 297.611 183.82C297.611 186.85 295.481 188.44 293.231 188.44C291.011 188.44 288.851 186.88 288.851 183.82C288.851 180.79 290.951 179.17 293.231 179.17ZM303.144 190H313.104V193.3H315.084V188.02H313.044V177.55H310.884V188.02H305.304V177.55H303.144V190ZM326.593 185.83C326.323 186.43 325.873 187.06 325.303 187.54C324.583 188.14 323.773 188.44 322.753 188.44C320.593 188.44 318.823 186.79 318.793 184.21H328.483C328.543 182.56 328.093 180.64 327.313 179.53C326.563 178.45 325.033 177.25 322.603 177.25C318.853 177.25 316.573 180.13 316.573 183.85C316.573 188.47 319.722 190.36 322.723 190.36C324.313 190.36 325.723 189.85 326.863 188.83C327.493 188.26 328.033 187.51 328.393 186.82L326.593 185.83ZM318.943 182.41C319.272 180.55 320.773 179.17 322.603 179.17C324.433 179.17 325.903 180.46 326.263 182.41H318.943ZM341.546 178.45C340.946 178.03 339.656 177.25 337.676 177.25C333.836 177.25 331.016 180.04 331.016 183.85C331.016 187.6 333.806 190.36 337.676 190.36C338.846 190.36 340.286 190.06 341.636 189.07V186.49C340.496 187.87 338.906 188.44 337.616 188.44C335.396 188.44 333.236 186.85 333.236 183.82C333.236 180.79 335.336 179.17 337.646 179.17C338.756 179.17 340.406 179.59 341.546 181.03V178.45ZM354.7 178.45C354.1 178.03 352.81 177.25 350.83 177.25C346.99 177.25 344.17 180.04 344.17 183.85C344.17 187.6 346.96 190.36 350.83 190.36C352 190.36 353.44 190.06 354.79 189.07V186.49C353.65 187.87 352.06 188.44 350.77 188.44C348.55 188.44 346.39 186.85 346.39 183.82C346.39 180.79 348.49 179.17 350.8 179.17C351.91 179.17 353.56 179.59 354.7 181.03V178.45ZM356.784 193.99L358.194 194.56L361.224 187.78L359.244 187.06L356.784 193.99ZM37.3834 213.55V219.1C37.3834 220.36 37.2934 221.53 36.8734 222.4C36.4534 223.27 35.6434 223.99 34.5634 224.02V229.3H36.5434V226H46.0234V229.3H48.0034V224.02H46.1434V213.55H37.3834ZM43.9834 224.02H38.0434C39.2134 223 39.5434 221.65 39.5434 220.21V215.53H43.9834V224.02ZM60.6104 213.55H51.8504V221.14C51.8504 221.89 51.8204 222.67 51.4304 223.27C51.1904 223.66 50.6804 224.08 49.8704 224.08C49.7204 224.08 49.5404 224.05 49.3904 224.02V226C49.6004 226.03 49.8404 226.06 50.0504 226.06C51.7304 226.06 52.6604 225.22 53.0504 224.74C54.0104 223.57 54.0104 222.19 54.0104 221.14V215.53H58.4504V226H60.6104V213.55ZM63.2563 226H65.8363L69.3763 220.99H70.6963V226H72.8563V213.55H68.5063C67.2763 213.55 65.9263 213.58 64.8463 214.6C64.1563 215.23 63.7363 216.22 63.7363 217.39C63.7363 218.56 64.2163 219.4 64.7263 219.88C65.6263 220.75 66.9763 220.87 67.1263 220.87L63.2563 226ZM70.6963 219.19H68.6563C68.1463 219.19 67.3663 219.22 66.7363 218.83C66.1963 218.5 65.9563 217.99 65.9563 217.33C65.9563 216.52 66.3763 216.04 66.7363 215.8C67.1863 215.53 67.8163 215.47 68.6863 215.47H70.6963V219.19ZM83.9443 213.55V226H86.1043V221.17L86.7643 220.54L91.6243 226H94.4443L88.3843 219.1L93.7843 213.55H91.1443L86.1043 218.65V213.55H83.9443ZM101.835 226.36C105.615 226.36 108.435 223.6 108.435 219.82C108.435 216.04 105.645 213.25 101.835 213.25C98.0246 213.25 95.2346 216.04 95.2346 219.82C95.2346 223.6 98.0546 226.36 101.835 226.36ZM101.835 215.17C104.115 215.17 106.215 216.76 106.215 219.82C106.215 222.85 104.085 224.44 101.835 224.44C99.6146 224.44 97.4546 222.88 97.4546 219.82C97.4546 216.79 99.5546 215.17 101.835 215.17ZM119.614 215.53V213.55H109.654V215.53H113.554V226H115.714V215.53H119.614ZM127.411 226.36C131.191 226.36 134.011 223.6 134.011 219.82C134.011 216.04 131.221 213.25 127.411 213.25C123.601 213.25 120.811 216.04 120.811 219.82C120.811 223.6 123.631 226.36 127.411 226.36ZM127.411 215.17C129.691 215.17 131.791 216.76 131.791 219.82C131.791 222.85 129.661 224.44 127.411 224.44C125.191 224.44 123.031 222.88 123.031 219.82C123.031 216.79 125.131 215.17 127.411 215.17ZM139.483 224.26C140.413 225.46 141.823 226.36 143.833 226.36C147.613 226.36 149.803 223.27 149.803 219.85C149.803 216.49 147.643 213.25 143.743 213.25C142.843 213.25 140.953 213.46 139.483 215.29V213.55H137.323V232.9H139.483V224.26ZM143.533 224.44C140.983 224.44 139.363 222.37 139.363 219.82C139.363 216.82 141.493 215.17 143.503 215.17C145.513 215.17 147.583 216.79 147.583 219.85C147.583 222.34 146.053 224.44 143.533 224.44ZM158.934 226.36C162.714 226.36 165.534 223.6 165.534 219.82C165.534 216.04 162.744 213.25 158.934 213.25C155.124 213.25 152.334 216.04 152.334 219.82C152.334 223.6 155.154 226.36 158.934 226.36ZM158.934 215.17C161.214 215.17 163.314 216.76 163.314 219.82C163.314 222.85 161.184 224.44 158.934 224.44C156.714 224.44 154.554 222.88 154.554 219.82C154.554 216.79 156.654 215.17 158.934 215.17ZM168.847 226H171.007V215.53H176.227V213.55H168.847V226ZM183.573 226.36C187.353 226.36 190.173 223.6 190.173 219.82C190.173 216.04 187.383 213.25 183.573 213.25C179.763 213.25 176.973 216.04 176.973 219.82C176.973 223.6 179.793 226.36 183.573 226.36ZM183.573 215.17C185.853 215.17 187.953 216.76 187.953 219.82C187.953 222.85 185.823 224.44 183.573 224.44C181.353 224.44 179.193 222.88 179.193 219.82C179.193 216.79 181.293 215.17 183.573 215.17ZM206.307 226.36C210.087 226.36 212.907 223.6 212.907 219.82C212.907 216.04 210.117 213.25 206.307 213.25C202.497 213.25 199.707 216.04 199.707 219.82C199.707 223.6 202.527 226.36 206.307 226.36ZM206.307 215.17C208.587 215.17 210.687 216.76 210.687 219.82C210.687 222.85 208.557 224.44 206.307 224.44C204.087 224.44 201.927 222.88 201.927 219.82C201.927 216.79 204.027 215.17 206.307 215.17ZM216.22 226H218.38V220.63H224.26V226H226.42V213.55H224.26V218.65H218.38V213.55H216.22V226ZM236.307 226.36C240.087 226.36 242.907 223.6 242.907 219.82C242.907 216.04 240.117 213.25 236.307 213.25C232.497 213.25 229.707 216.04 229.707 219.82C229.707 223.6 232.527 226.36 236.307 226.36ZM236.307 215.17C238.587 215.17 240.687 216.76 240.687 219.82C240.687 222.85 238.557 224.44 236.307 224.44C234.087 224.44 231.927 222.88 231.927 219.82C231.927 216.79 234.027 215.17 236.307 215.17ZM36.4834 249.55V262H38.6434V251.53H44.3434V262H46.5034V249.55H36.4834ZM52.7352 260.26C53.6652 261.46 55.0752 262.36 57.0852 262.36C60.8652 262.36 63.0552 259.27 63.0552 255.85C63.0552 252.49 60.8952 249.25 56.9952 249.25C56.0952 249.25 54.2052 249.46 52.7352 251.29V249.55H50.5752V268.9H52.7352V260.26ZM56.7852 260.44C54.2352 260.44 52.6152 258.37 52.6152 255.82C52.6152 252.82 54.7452 251.17 56.7552 251.17C58.7652 251.17 60.8352 252.79 60.8352 255.85C60.8352 258.34 59.3052 260.44 56.7852 260.44ZM75.6062 257.83C75.3362 258.43 74.8862 259.06 74.3162 259.54C73.5962 260.14 72.7862 260.44 71.7662 260.44C69.6062 260.44 67.8362 258.79 67.8062 256.21H77.4962C77.5562 254.56 77.1062 252.64 76.3262 251.53C75.5762 250.45 74.0462 249.25 71.6162 249.25C67.8662 249.25 65.5862 252.13 65.5862 255.85C65.5862 260.47 68.7362 262.36 71.7362 262.36C73.3262 262.36 74.7362 261.85 75.8762 260.83C76.5062 260.26 77.0462 259.51 77.4062 258.82L75.6062 257.83ZM67.9562 254.41C68.2862 252.55 69.7862 251.17 71.6162 251.17C73.4462 251.17 74.9162 252.46 75.2762 254.41H67.9562ZM81.7095 249.55V255.1C81.7095 256.36 81.6195 257.53 81.1995 258.4C80.7795 259.27 79.9695 259.99 78.8895 260.02V265.3H80.8695V262H90.3495V265.3H92.3295V260.02H90.4695V249.55H81.7095ZM88.3095 260.02H82.3695C83.5395 259 83.8695 257.65 83.8695 256.21V251.53H88.3095V260.02ZM94.6084 262H96.7684V256.63H102.648V262H104.808V249.55H102.648V254.65H96.7684V249.55H94.6084V262ZM118.416 251.32C117.846 250.57 116.556 249.25 114.156 249.25C110.976 249.25 108.096 251.47 108.096 255.76C108.096 260.14 111.006 262.36 114.156 262.36C116.346 262.36 117.696 261.19 118.416 260.26V262H120.576V249.55H118.416V251.32ZM114.396 251.17C116.316 251.17 118.536 252.58 118.536 255.79C118.536 258.25 117.036 260.44 114.396 260.44C111.816 260.44 110.316 258.43 110.316 255.76C110.316 252.73 112.266 251.17 114.396 251.17ZM126.287 252.73C126.587 252.19 126.977 251.86 127.307 251.65C127.937 251.26 128.537 251.17 129.017 251.17C129.407 251.17 130.097 251.17 130.607 251.62C130.937 251.89 131.147 252.37 131.147 252.91C131.147 253.48 130.817 253.84 130.487 254.05C130.307 254.17 129.857 254.38 128.867 254.38H127.817V256.36H129.077C129.647 256.36 130.487 256.36 131.117 256.78C131.537 257.05 131.867 257.53 131.867 258.22C131.867 259.12 131.417 259.69 130.997 259.96C130.337 260.41 129.377 260.44 128.897 260.44C128.237 260.44 127.547 260.32 126.857 259.81C126.167 259.3 125.867 258.7 125.747 258.4L123.887 259.18C124.247 259.96 124.817 260.77 125.537 261.31C126.587 262.12 127.757 262.36 128.867 262.36C130.217 262.36 131.507 262.06 132.407 261.4C133.427 260.65 134.027 259.48 134.027 258.19C134.027 257.23 133.667 256.45 133.157 255.91C132.857 255.58 132.347 255.25 131.717 255.1C132.347 254.71 133.127 253.96 133.127 252.49C133.127 251.62 132.857 250.81 132.047 250.12C131.117 249.34 130.097 249.25 129.107 249.25C128.297 249.25 127.337 249.37 126.377 249.94C125.777 250.3 125.207 250.9 124.787 251.5L126.287 252.73ZM137.323 262H139.483V256.63H145.363V262H147.523V249.55H145.363V254.65H139.483V249.55H137.323V262ZM161.131 251.32C160.561 250.57 159.271 249.25 156.871 249.25C153.691 249.25 150.811 251.47 150.811 255.76C150.811 260.14 153.721 262.36 156.871 262.36C159.061 262.36 160.411 261.19 161.131 260.26V262H163.291V249.55H161.131V251.32ZM157.111 251.17C159.031 251.17 161.251 252.58 161.251 255.79C161.251 258.25 159.751 260.44 157.111 260.44C154.531 260.44 153.031 258.43 153.031 255.76C153.031 252.73 154.981 251.17 157.111 251.17ZM174.042 262H176.202V249.55H174.042V255.13C173.112 255.31 172.152 255.4 171.342 255.4C170.682 255.4 169.842 255.34 169.452 254.59C169.242 254.23 169.182 253.57 169.182 253.12V249.55H167.022V253.42C167.022 254.62 167.232 255.73 168.072 256.48C169.032 257.35 170.472 257.38 171.102 257.38C171.972 257.38 173.262 257.23 174.042 257.11V262ZM189.812 251.32C189.242 250.57 187.952 249.25 185.552 249.25C182.372 249.25 179.492 251.47 179.492 255.76C179.492 260.14 182.402 262.36 185.552 262.36C187.742 262.36 189.092 261.19 189.812 260.26V262H191.972V249.55H189.812V251.32ZM185.792 251.17C187.712 251.17 189.932 252.58 189.932 255.79C189.932 258.25 188.432 260.44 185.792 260.44C183.212 260.44 181.712 258.43 181.712 255.76C181.712 252.73 183.662 251.17 185.792 251.17ZM205.303 257.83C205.033 258.43 204.583 259.06 204.013 259.54C203.293 260.14 202.483 260.44 201.463 260.44C199.303 260.44 197.533 258.79 197.503 256.21H207.193C207.253 254.56 206.803 252.64 206.023 251.53C205.273 250.45 203.743 249.25 201.313 249.25C197.563 249.25 195.283 252.13 195.283 255.85C195.283 260.47 198.433 262.36 201.433 262.36C203.023 262.36 204.433 261.85 205.573 260.83C206.203 260.26 206.743 259.51 207.103 258.82L205.303 257.83ZM197.653 254.41C197.983 252.55 199.483 251.17 201.313 251.17C203.143 251.17 204.613 252.46 204.973 254.41H197.653ZM218.667 251.53V249.55H208.707V251.53H212.607V262H214.767V251.53H218.667ZM230.394 250.45C229.794 250.03 228.504 249.25 226.524 249.25C222.684 249.25 219.864 252.04 219.864 255.85C219.864 259.6 222.654 262.36 226.524 262.36C227.694 262.36 229.134 262.06 230.484 261.07V258.49C229.344 259.87 227.754 260.44 226.464 260.44C224.244 260.44 222.084 258.85 222.084 255.82C222.084 252.79 224.184 251.17 226.494 251.17C227.604 251.17 229.254 251.59 230.394 253.03V250.45ZM232.358 262H234.938L238.478 256.99H239.798V262H241.958V249.55H237.608C236.378 249.55 235.028 249.58 233.948 250.6C233.258 251.23 232.838 252.22 232.838 253.39C232.838 254.56 233.318 255.4 233.828 255.88C234.728 256.75 236.078 256.87 236.228 256.87L232.358 262ZM239.798 255.19H237.758C237.248 255.19 236.468 255.22 235.838 254.83C235.298 254.5 235.058 253.99 235.058 253.33C235.058 252.52 235.478 252.04 235.838 251.8C236.288 251.53 236.918 251.47 237.788 251.47H239.798V255.19ZM252.674 253.33C252.674 254.05 252.404 254.89 251.954 255.34C251.624 255.67 251.114 255.88 250.484 255.88C249.764 255.88 249.284 255.61 249.014 255.34C248.714 255.04 248.414 254.56 248.414 253.78C248.414 252.37 249.434 251.89 249.884 251.68C250.604 251.35 251.354 251.17 252.044 250.93C252.944 250.6 253.724 250.15 254.354 249.43C255.134 248.53 255.374 247.57 255.374 246.49C255.374 244.66 254.684 243.58 254.054 242.95C253.064 241.96 251.834 241.66 250.514 241.66C248.744 241.66 247.574 242.26 246.854 243.04C245.894 244.06 245.714 245.32 245.714 246.28C245.714 246.76 245.744 247.18 245.834 247.6H248.054C247.934 247.21 247.874 246.73 247.874 246.34C247.874 245.68 248.114 244.84 248.654 244.33C249.134 243.88 249.854 243.7 250.544 243.7C251.474 243.7 252.044 244.03 252.374 244.33C253.064 244.96 253.154 245.83 253.154 246.43C253.154 247.21 253.004 248.44 251.234 249.07C250.604 249.31 249.764 249.43 248.714 249.91C247.394 250.51 246.194 251.5 246.194 253.63C246.194 255.25 246.914 256.24 247.394 256.72C247.994 257.32 248.984 257.92 250.514 257.92C252.164 257.92 253.124 257.23 253.604 256.72C254.354 255.94 254.834 254.74 254.834 253.33H252.674ZM249.044 260.86C249.044 261.67 249.734 262.36 250.544 262.36C251.354 262.36 252.044 261.67 252.044 260.86C252.044 260.05 251.354 259.36 250.544 259.36C249.734 259.36 249.044 260.05 249.044 260.86Z" fill="#434343"/>
<path d="M48.7714 35.624C52.4794 35.624 55.3954 37.46 55.3954 43.4C55.3954 49.34 52.4794 51.176 48.7714 51.176C45.0634 51.176 42.1474 49.34 42.1474 43.4C42.1474 37.46 45.0634 35.624 48.7714 35.624ZM48.1594 30.656C41.1754 30.656 35.5234 33.716 35.5234 43.4C35.5234 53.084 41.1754 56.144 48.1594 56.144H49.3834C56.3674 56.144 62.0194 53.084 62.0194 43.4C62.0194 33.716 56.3674 30.656 49.3834 30.656H48.1594ZM76.5957 35.624C79.6917 35.624 81.0597 36.344 81.0597 38.324C81.0597 40.304 79.6917 41.024 76.5957 41.024H74.0037C73.1397 41.024 72.4197 41.816 72.4197 42.68V44.12C72.4197 45.056 73.1757 45.776 74.0757 45.776H77.2437C80.0157 45.776 81.4197 46.424 81.4197 48.476C81.4197 50.528 80.0157 51.176 77.2437 51.176H74.7237C72.5637 51.176 71.0157 50.42 70.4037 49.124C69.7197 47.648 68.8917 47.18 67.8837 47.18H65.7957C65.3277 47.18 63.9957 47.504 63.9957 49.124C63.9957 53.516 69.2157 56.144 74.1117 56.144H77.8557C84.2277 56.144 88.0437 54.128 88.0437 48.476C88.0437 46.316 87.2877 44.66 85.2717 43.4C86.9277 42.14 87.6837 40.268 87.6837 38.36C87.6837 32.384 82.9677 30.656 77.0997 30.656H74.6877C69.7917 30.656 64.5717 33.284 64.5717 37.496C64.5717 39.116 65.9037 39.44 66.3717 39.44H68.4597C69.4677 39.44 70.2597 38.972 70.8357 37.784C71.6277 36.2 73.1397 35.624 75.2997 35.624H76.5957Z" fill="white"/>
<rect x="99.4434" y="40.5" width="302.861" height="2" fill="white"/>
<defs>
<filter id="filter0_d_52_295" x="0.5" y="0" width="435.75" height="351" filterUnits="userSpaceOnUse" color-interpolation-filters="sRGB">
<feFlood flood-opacity="0" result="BackgroundImageFix"/>
<feColorMatrix in="SourceAlpha" type="matrix" values="0 0 0 0 0 0 0 0 0 0 0 0 0 0 0 0 0 0 127 0" result="hardAlpha"/>
<feOffset dy="4"/>
<feGaussianBlur stdDeviation="8"/>
<feComposite in2="hardAlpha" operator="out"/>
<feColorMatrix type="matrix" values="0 0 0 0 0.262745 0 0 0 0 0.262745 0 0 0 0 0.262745 0 0 0 0.25 0"/>
<feBlend mode="normal" in2="BackgroundImageFix" result="effect1_dropShadow_52_295"/>
<feBlend mode="normal" in="SourceGraphic" in2="effect1_dropShadow_52_295" result="shape"/>
</filter>
</defs>
</svg>
