<svg width="46" height="46" viewBox="0 0 46 46" fill="none" xmlns="http://www.w3.org/2000/svg">
<g opacity="0.5">
<rect x="0.5" y="0.5" width="45" height="45" rx="4.5" stroke="#0057B3"/>
<path d="M16.3258 21.4159L25.4156 12.3263C25.6258 12.1159 25.9065 12 26.2057 12C26.5049 12 26.7856 12.1159 26.9958 12.3263L27.6652 12.9955C28.1008 13.4316 28.1008 14.1404 27.6652 14.5758L20.0323 22.2087L27.6737 29.85C27.8839 30.0604 28 30.3409 28 30.64C28 30.9394 27.8839 31.2199 27.6737 31.4305L27.0043 32.0995C26.7939 32.3099 26.5134 32.4258 26.2142 32.4258C25.9149 32.4258 25.6343 32.3099 25.424 32.0995L16.3258 23.0016C16.1151 22.7906 15.9993 22.5088 16 22.2092C15.9993 21.9084 16.1151 21.6268 16.3258 21.4159Z" fill="#0057B3"/>
</g>
</svg>
