<svg width="125" height="50" viewBox="0 0 125 50" fill="none" xmlns="http://www.w3.org/2000/svg">
<g clip-path="url(#clip0_30_133)">
<path d="M27.808 45.8244H28.8985C29.1141 45.8244 29.2865 45.9978 29.2865 46.2146V48.3261H27.42V46.2146C27.42 45.9978 27.5924 45.8244 27.808 45.8244Z" fill="#0057B3"/>
<path d="M48.3044 13.3148V14.3034C48.3044 14.8497 47.869 15.2919 47.3259 15.2919H47.3216H38.2437V18.3443H46.0629C46.6017 18.3486 47.0414 18.7909 47.0457 19.3329V20.3214C47.0414 20.8634 46.6017 21.3056 46.0629 21.31H38.2437V24.4057H47.3C47.8302 24.4057 48.2613 24.8349 48.2613 25.3639C48.2613 25.3682 48.2613 25.3682 48.2613 25.3726V26.3828C48.2613 26.9291 47.8259 27.3714 47.2828 27.3714H47.2785H35.2953C34.7392 27.3714 34.3125 26.9204 34.3125 26.3611V13.2931C34.3125 12.7555 34.7608 12.3263 35.2953 12.3263H47.3216C47.8647 12.3263 48.3044 12.7642 48.3044 13.3105V13.3148Z" fill="#434343"/>
<path d="M57.0417 12.3263C63.1324 12.3263 65.6928 14.7109 65.6928 19.8488C65.6928 24.9867 63.1281 27.3714 57.0417 27.3714H51.2096C50.6751 27.3714 50.2269 26.9421 50.2269 26.4045V13.3365C50.2269 12.7772 50.6536 12.3263 51.2096 12.3263H57.0417ZM54.158 15.2919V24.4014H56.934C60.7573 24.4014 61.7617 23.0703 61.7617 19.8445C61.7617 16.6187 60.7573 15.2876 56.934 15.2876L54.158 15.2919Z" fill="#434343"/>
<path d="M67.8309 13.3148C67.8309 12.7685 68.2663 12.3263 68.8094 12.3263H68.8137H70.7577C71.3138 12.3263 71.7621 12.7555 71.7621 13.3148V26.3785C71.7621 26.9161 71.3138 27.367 70.7577 27.367H68.8137C68.2792 27.367 67.8309 26.9378 67.8309 26.4001V13.3148Z" fill="#434343"/>
<path d="M80.6503 12.2395H83.297C85.9867 12.2395 88.8747 13.8091 88.8747 16.107C88.8747 17.0739 88.0859 17.269 87.8057 17.269H86.5643C85.9652 17.269 85.4953 16.9915 85.1548 16.2805C84.8143 15.5477 83.9996 15.2052 82.9349 15.2052H79.7925C78.5123 15.2052 77.9563 15.6561 77.9563 16.4106C77.9563 18.9036 89.2584 17.4641 89.2584 23.0703C89.2584 25.6501 87.7626 27.4537 82.6375 27.4537H79.4779C76.7881 27.4537 73.9001 25.8842 73.9001 23.5862C73.9001 22.6194 74.6889 22.4243 74.9691 22.4243H76.2105C76.8097 22.4243 77.2795 22.7017 77.62 23.4128C77.9606 24.1412 78.7752 24.4881 79.8399 24.4881H83.4952C84.7755 24.4881 85.3315 24.0372 85.3315 23.2827C85.3315 20.7897 74.0294 22.1858 74.0294 16.623C74.0294 14.0432 75.5251 12.2395 80.6503 12.2395Z" fill="#434343"/>
<path d="M98.9398 12.0011C104.28 12.0011 107.337 14.2557 107.337 19.8445C107.337 25.4333 104.28 27.6879 98.9398 27.6879C93.599 27.6879 90.5429 25.4333 90.5429 19.8445C90.5429 14.2557 93.599 12.0011 98.9398 12.0011ZM94.4741 19.8445C94.4741 23.0703 95.7327 24.8523 98.9398 24.8523C102.147 24.8523 103.405 23.0703 103.405 19.8445C103.405 16.6187 102.142 14.8367 98.9398 14.8367C95.7371 14.8367 94.4741 16.623 94.4741 19.8445Z" fill="#434343"/>
<path d="M110.453 27.367C109.914 27.3627 109.475 26.9204 109.47 26.3785V13.3148C109.47 12.7772 109.897 12.3263 110.432 12.3263H113.509C114.022 12.3263 114.621 12.8205 114.94 13.3148L121.242 23.0703V13.2931C121.242 12.7555 121.691 12.3263 122.225 12.3263H124.018C124.553 12.3176 124.992 12.7425 125.001 13.2801C125.001 13.2931 125.001 13.3018 125.001 13.3148V26.3785C125.001 26.9248 124.566 27.367 124.022 27.367H124.018H120.557C120.001 27.367 119.38 26.9161 119.04 26.3785L113.268 17.3731V26.3785C113.264 26.9204 112.824 27.3627 112.285 27.367H110.453Z" fill="#434343"/>
<path d="M40.9981 34.5557H43.649C46.3431 34.5557 49.2268 36.1253 49.2268 38.4232C49.2268 39.3901 48.438 39.5852 48.1578 39.5852H46.9164C46.3172 39.5852 45.8474 39.3034 45.5068 38.5966C45.1663 37.8682 44.3516 37.5214 43.2869 37.5214H40.1446C38.8644 37.5214 38.3083 37.9723 38.3083 38.7267C38.3083 41.2198 49.6104 39.7803 49.6104 45.3864C49.6104 47.9662 48.1147 49.7699 42.9895 49.7699H39.8299C37.1359 49.7699 34.2521 48.2003 34.2521 45.9024C34.2521 44.9355 35.041 44.7404 35.3211 44.7404H36.5582C37.1574 44.7404 37.6273 45.0179 37.9678 45.729C38.3083 46.4617 39.123 46.8042 40.1877 46.8042H43.843C45.1232 46.8042 45.6793 46.3533 45.6793 45.5989C45.6793 43.1058 34.3771 44.5019 34.3771 38.9348C34.3771 36.3594 35.8729 34.5557 40.9981 34.5557Z" fill="#434343"/>
<path d="M64.0506 34.6424C64.5851 34.6338 65.0248 35.063 65.0334 35.6006C65.0334 35.6093 65.0334 35.6223 65.0334 35.631V36.6195C65.042 37.1572 64.6153 37.5994 64.0808 37.6081C64.0722 37.6081 64.0592 37.6081 64.0506 37.6081H59.3953V48.7163C59.3953 49.2539 58.947 49.6832 58.4125 49.6832H56.4469C55.9124 49.6832 55.4641 49.2539 55.4641 48.7163V37.6081H50.8088C50.2743 37.6168 49.8346 37.1875 49.826 36.6499C49.826 36.6412 49.826 36.6282 49.826 36.6195V35.631C49.8174 35.0933 50.2441 34.6511 50.7786 34.6424C50.7872 34.6424 50.8001 34.6424 50.8088 34.6424H64.0506Z" fill="#434343"/>
<path d="M74.8829 46.8042C76.7838 46.8042 77.6373 45.8157 77.6373 43.7519V35.631C77.6373 35.0847 78.0726 34.6424 78.6158 34.6424H78.6201H80.5641C81.1202 34.6424 81.5685 35.0717 81.5685 35.631V43.7345C81.5685 47.537 79.3442 49.7742 74.9863 49.7742H73.1069C68.749 49.7742 66.5248 47.537 66.5248 43.7345V35.631C66.5248 35.0717 66.9731 34.6424 67.5292 34.6424H69.4732C70.0163 34.6424 70.456 35.0803 70.456 35.6266V35.631V43.7519C70.456 45.8157 71.3095 46.8042 73.2104 46.8042H74.8829Z" fill="#434343"/>
<path d="M91.1636 34.6424C97.2543 34.6424 99.8148 37.0271 99.8148 42.165C99.8148 47.3028 97.25 49.6875 91.1636 49.6875H85.3315C84.797 49.6875 84.3487 49.2583 84.3487 48.7206V35.6527C84.3487 35.0933 84.7755 34.6424 85.3315 34.6424H91.1636ZM88.2799 37.6081V46.7175H91.0558C94.8793 46.7175 95.8836 45.3864 95.8836 42.1606C95.8836 38.9348 94.8793 37.6038 91.0558 37.6038H88.2799V37.6081Z" fill="#434343"/>
<path d="M101.953 35.631C101.953 35.0847 102.388 34.6424 102.931 34.6424H102.936H104.88C105.436 34.6424 105.884 35.0717 105.884 35.631V48.6946C105.884 49.2323 105.436 49.6832 104.88 49.6832H102.936C102.401 49.6832 101.953 49.2539 101.953 48.7163V35.631Z" fill="#B3B3B3"/>
<path d="M116.419 34.3172C121.759 34.3172 124.816 36.5718 124.816 42.1606C124.816 47.7494 121.759 50.004 116.419 50.004C111.078 50.004 108.022 47.7494 108.022 42.1606C108.022 36.5718 111.074 34.3172 116.419 34.3172ZM111.953 42.1606C111.953 45.3821 113.216 47.1684 116.419 47.1684C119.621 47.1684 120.884 45.3864 120.884 42.1606C120.884 38.9348 119.626 37.1528 116.419 37.1528C113.212 37.1528 111.953 38.9392 111.953 42.1606Z" fill="#434343"/>
<path d="M7.84176 47.6714H31.3383C31.5667 47.6714 31.7564 47.8578 31.7564 48.092V49.2626C31.7564 49.4924 31.571 49.6832 31.3383 49.6832H7.84176C7.61331 49.6832 7.42365 49.4967 7.42365 49.2626V48.092C7.42365 47.8578 7.609 47.6714 7.84176 47.6714Z" fill="#434343"/>
<path d="M27.0148 46.3143H29.6917C29.7994 46.3143 29.8899 46.4053 29.8899 46.5137V48.131C29.8899 48.2394 29.7994 48.3304 29.6917 48.3304H27.0148C26.9071 48.3304 26.8166 48.2394 26.8166 48.131V46.5137C26.8166 46.4053 26.9071 46.3143 27.0148 46.3143Z" fill="#434343"/>
<path d="M9.20388 43.6955H20.381C20.5663 43.6955 20.7172 43.8473 20.7172 44.0337V48.6036C20.7172 48.79 20.5663 48.9418 20.381 48.9418H9.20388C9.01853 48.9418 8.86766 48.79 8.86766 48.6036V44.0337C8.86766 43.8473 9.01853 43.6955 9.20388 43.6955Z" fill="#434343"/>
<path d="M9.16508 36.3377H20.4198C20.5836 36.3377 20.7172 36.4721 20.7172 36.6369V37.4737C20.7172 37.6384 20.5836 37.7728 20.4198 37.7728H9.16508C9.00129 37.7728 8.86766 37.6384 8.86766 37.4737V36.6369C8.86766 36.4721 9.00129 36.3377 9.16508 36.3377Z" fill="#0057B3"/>
<path d="M9.16508 38.6357H16.4843C16.6481 38.6357 16.7817 38.7701 16.7817 38.9348V39.7716C16.7817 39.9364 16.6481 40.0708 16.4843 40.0708H9.16508C9.00129 40.0708 8.86766 39.9364 8.86766 39.7716V38.9348C8.86766 38.7701 9.00129 38.6357 9.16508 38.6357Z" fill="#0057B3"/>
<path d="M9.16508 40.9336H20.4198C20.5836 40.9336 20.7172 41.068 20.7172 41.2328V42.0696C20.7172 42.2343 20.5836 42.3688 20.4198 42.3688H9.16508C9.00129 42.3688 8.86766 42.2343 8.86766 42.0696V41.2328C8.86766 41.068 9.00129 40.9336 9.16508 40.9336Z" fill="#0057B3"/>
<path d="M11.3548 36.3724H9.93236V42.3254H11.3548V36.3724Z" fill="#0057B3"/>
<path d="M9.16508 33.5758H13.5661C13.7299 33.5758 13.8635 33.7102 13.8635 33.875V34.7118C13.8635 34.8766 13.7299 35.011 13.5661 35.011H9.16508C9.00129 35.011 8.86766 34.8766 8.86766 34.7118V33.875C8.86766 33.7102 9.00129 33.5758 9.16508 33.5758Z" fill="#FFAA1A"/>
<path d="M16.0446 33.5758H20.4456C20.6094 33.5758 20.7431 33.7102 20.7431 33.875V34.7118C20.7431 34.8766 20.6094 35.011 20.4456 35.011H16.0446C15.8808 35.011 15.7472 34.8766 15.7472 34.7118V33.875C15.7472 33.7102 15.8808 33.5758 16.0446 33.5758Z" fill="#FFAA1A"/>
<path d="M13.8635 12.1268V34.56C13.8635 34.7248 13.7299 34.8592 13.5661 34.8592H12.7342C12.5704 34.8592 12.4368 34.7248 12.4368 34.56V12.1268C12.4368 11.9621 12.5704 11.8277 12.7342 11.8277H13.5661C13.7299 11.832 13.8635 11.9621 13.8635 12.1268Z" fill="#FFAA1A"/>
<path d="M17.1524 15.6735V25.3205C17.1524 25.4853 17.0188 25.6197 16.855 25.6197H16.0231C15.8593 25.6197 15.7257 25.4853 15.7257 25.3205V15.6735C15.7257 15.5087 15.8593 15.3743 16.0231 15.3743H16.855C17.0188 15.3743 17.1524 15.5087 17.1524 15.6735Z" fill="#FFAA1A"/>
<path d="M11.3678 9.35627V19.0033C11.3678 19.1681 11.2341 19.3025 11.0703 19.3025H10.2384C10.0746 19.3025 9.94098 19.1681 9.94098 19.0033V9.35627C9.94098 9.19151 10.0746 9.0571 10.2384 9.0571H11.0703C11.2341 9.0571 11.3678 9.19151 11.3678 9.35627Z" fill="#FFAA1A"/>
<path d="M11.3678 20.2564V22.8492C11.3678 23.0139 11.2341 23.1483 11.0703 23.1483H10.2384C10.0746 23.1483 9.94098 23.0139 9.94098 22.8492V20.2564C9.94098 20.0916 10.0746 19.9572 10.2384 19.9572H11.0703C11.2341 19.9572 11.3678 20.0916 11.3678 20.2564Z" fill="#FFAA1A"/>
<path d="M17.1524 12.1268V14.7196C17.1524 14.8844 17.0188 15.0188 16.855 15.0188H16.0231C15.8593 15.0188 15.7257 14.8844 15.7257 14.7196V12.1268C15.7257 11.9621 15.8593 11.8277 16.0231 11.8277H16.855C17.0188 11.832 17.1524 11.9621 17.1524 12.1268Z" fill="#FFAA1A"/>
<path d="M29.5839 15.0534C29.5925 18.9339 28.1011 22.6627 25.4243 25.4549C25.4113 25.4679 25.4027 25.4766 25.3941 25.4896C25.1355 25.8365 21.3336 31.0394 20.7 34.6164C20.6655 34.8418 20.4715 35.0066 20.2474 35.0109C19.993 35.0109 19.7905 34.8028 19.7905 34.547V32.4832C19.7905 32.4615 19.7905 32.4398 19.7948 32.4182C20.1612 29.3788 23.6009 24.6615 23.8466 24.3276C23.8553 24.3146 23.8682 24.3016 23.8768 24.2929C26.1571 21.9083 27.433 18.7258 27.4243 15.4176C27.4243 8.4197 21.8638 2.72684 14.9455 2.57076C14.898 2.56642 14.8463 2.56642 14.7989 2.57076C14.7472 2.56642 14.6954 2.56642 14.648 2.57076C7.72538 2.72684 2.16484 8.41537 2.16484 15.4133C2.16053 18.7215 3.43213 21.9039 5.71238 24.2886C5.72531 24.3016 5.73393 24.3103 5.74255 24.3233C5.98825 24.6571 9.42803 29.3744 9.79442 32.4138C9.79873 32.4355 9.79873 32.4572 9.79873 32.4789V34.5427C9.79873 34.7985 9.59182 35.0023 9.34182 35.0023C9.11336 34.9979 8.9237 34.8332 8.88921 34.6077C8.25126 31.035 4.44941 25.8321 4.19509 25.4809C4.18647 25.4679 4.17353 25.4549 4.16491 25.4462C1.4881 22.6627 -0.00764551 18.9339 0.000975476 15.0534C0.000975476 6.85883 6.51413 0.190423 14.6179 0.0083206C14.6782 0.00398484 14.7342 0.00398484 14.7946 0.0083206C14.8506 0.00398484 14.911 0.00398484 14.967 0.0083206C23.0707 0.190423 29.5839 6.85883 29.5839 15.0534Z" fill="#FFAA1A"/>
<path d="M7.94091 17.3774C8.45036 17.3774 8.86335 16.962 8.86335 16.4496C8.86335 15.9371 8.45036 15.5217 7.94091 15.5217C7.43146 15.5217 7.01846 15.9371 7.01846 16.4496C7.01846 16.962 7.43146 17.3774 7.94091 17.3774Z" fill="#FFAA1A"/>
<path d="M19.6482 9.33892V18.986C19.6482 19.1508 19.5146 19.2852 19.3508 19.2852H18.5189C18.3551 19.2852 18.2214 19.1508 18.2214 18.986V9.33892C18.2214 9.17416 18.3551 9.03975 18.5189 9.03975H19.3551C19.5189 9.03975 19.6482 9.17416 19.6482 9.33892Z" fill="#FFAA1A"/>
<path d="M19.6482 20.2347V22.8275C19.6482 22.9922 19.5146 23.1266 19.3508 23.1266H18.5189C18.3551 23.1266 18.2214 22.9922 18.2214 22.8275V20.2347C18.2214 20.0699 18.3551 19.9355 18.5189 19.9355H19.3508C19.5189 19.9399 19.6482 20.0699 19.6482 20.2347Z" fill="#FFAA1A"/>
<path d="M21.6483 17.3601C22.1577 17.3601 22.5707 16.9447 22.5707 16.4322C22.5707 15.9198 22.1577 15.5044 21.6483 15.5044C21.1388 15.5044 20.7258 15.9198 20.7258 16.4322C20.7258 16.9447 21.1388 17.3601 21.6483 17.3601Z" fill="#FFAA1A"/>
<path d="M101.535 35.0413H106.281C106.418 35.0413 106.526 35.154 106.526 35.2885V37.8726C106.526 38.0113 106.414 38.1197 106.281 38.1197H101.535C101.397 38.1197 101.289 38.007 101.289 37.8726V35.2885C101.289 35.154 101.397 35.0413 101.535 35.0413Z" fill="#0057B3"/>
</g>
<defs>
<clipPath id="clip0_30_133">
<rect width="125" height="50" fill="white" transform="translate(0.000976562 0.00402832)"/>
</clipPath>
</defs>
</svg>
