<svg width="26" height="33" viewBox="0 0 26 33" fill="none" xmlns="http://www.w3.org/2000/svg">
<g filter="url(#filter0_d_30_186)">
<rect x="8.00098" y="0.00402832" width="14" height="25" rx="2" fill="#FFAA1A"/>
<path d="M16.5742 0.00402832H5.83203C4.82236 0.00402832 4.00098 0.825415 4.00098 1.83508V23.173C4.00098 24.1826 4.82236 25.004 5.83203 25.004H16.5742C17.5839 25.004 18.4053 24.1826 18.4053 23.173V1.83508C18.4053 0.825415 17.5839 0.00402832 16.5742 0.00402832ZM17.6729 19.8771H7.29688C7.09463 19.8771 6.93066 20.041 6.93066 20.2433C6.93066 20.4455 7.09463 20.6095 7.29688 20.6095H17.6729V23.173C17.6729 23.7788 17.18 24.2716 16.5742 24.2716H5.83203C5.22622 24.2716 4.7334 23.7788 4.7334 23.173V20.6095H5.83203C6.03428 20.6095 6.19824 20.4455 6.19824 20.2433C6.19824 20.041 6.03428 19.8771 5.83203 19.8771H4.7334V3.66614H17.6729V19.8771ZM17.6729 2.93372H4.7334V1.83508C4.7334 1.22927 5.22622 0.73645 5.83203 0.73645H16.5742C17.18 0.73645 17.6729 1.22927 17.6729 1.83508V2.93372Z" fill="#434343"/>
<path d="M12.668 1.46886H11.2031C11.0009 1.46886 10.8369 1.63283 10.8369 1.83508C10.8369 2.03732 11.0009 2.20129 11.2031 2.20129H12.668C12.8702 2.20129 13.0342 2.03732 13.0342 1.83508C13.0342 1.63283 12.8702 1.46886 12.668 1.46886Z" fill="#434343"/>
<path d="M11.2031 21.3419C10.5973 21.3419 10.1045 21.8347 10.1045 22.4405C10.1045 23.0463 10.5973 23.5392 11.2031 23.5392C11.8089 23.5392 12.3018 23.0463 12.3018 22.4405C12.3018 21.8347 11.8089 21.3419 11.2031 21.3419ZM11.2031 22.8067C11.0012 22.8067 10.8369 22.6425 10.8369 22.4405C10.8369 22.2386 11.0012 22.0743 11.2031 22.0743C11.4051 22.0743 11.5693 22.2386 11.5693 22.4405C11.5693 22.6425 11.4051 22.8067 11.2031 22.8067Z" fill="#434343"/>
<path d="M9.73828 2.20129C9.94053 2.20129 10.1045 2.03733 10.1045 1.83508C10.1045 1.63282 9.94053 1.46886 9.73828 1.46886C9.53603 1.46886 9.37207 1.63282 9.37207 1.83508C9.37207 2.03733 9.53603 2.20129 9.73828 2.20129Z" fill="#434343"/>
</g>
<defs>
<filter id="filter0_d_30_186" x="0.000976562" y="0.00402832" width="26" height="33" filterUnits="userSpaceOnUse" color-interpolation-filters="sRGB">
<feFlood flood-opacity="0" result="BackgroundImageFix"/>
<feColorMatrix in="SourceAlpha" type="matrix" values="0 0 0 0 0 0 0 0 0 0 0 0 0 0 0 0 0 0 127 0" result="hardAlpha"/>
<feOffset dy="4"/>
<feGaussianBlur stdDeviation="2"/>
<feComposite in2="hardAlpha" operator="out"/>
<feColorMatrix type="matrix" values="0 0 0 0 0 0 0 0 0 0 0 0 0 0 0 0 0 0 0.25 0"/>
<feBlend mode="normal" in2="BackgroundImageFix" result="effect1_dropShadow_30_186"/>
<feBlend mode="normal" in="SourceGraphic" in2="effect1_dropShadow_30_186" result="shape"/>
</filter>
</defs>
</svg>
