<svg width="69" height="18" viewBox="0 0 69 18" fill="none" xmlns="http://www.w3.org/2000/svg">
<path fill-rule="evenodd" clip-rule="evenodd" d="M3 1H13C14.657 1 16 2.343 16 4V14.001C16 15.658 14.657 17.001 13 17.001H3C1.343 17.001 0 15.658 0 14.001V4C0 2.343 1.343 1 3 1Z" fill="#0057B3"/>
<path fill-rule="evenodd" clip-rule="evenodd" d="M29 1H39C40.657 1 42 2.343 42 4V14.001C42 15.658 40.657 17.001 39 17.001H29C27.343 17.001 26 15.658 26 14.001V4C26 2.343 27.343 1 29 1Z" stroke="#0057B3"/>
<path fill-rule="evenodd" clip-rule="evenodd" d="M55 1H65C66.657 1 68 2.343 68 4V14.001C68 15.658 66.657 17.001 65 17.001H55C53.343 17.001 52 15.658 52 14.001V4C52 2.343 53.343 1 55 1Z" stroke="#0057B3"/>
</svg>
