<svg width="1091" height="343" viewBox="0 0 1091 343" fill="none" xmlns="http://www.w3.org/2000/svg">
<rect width="1091" height="343" rx="5" fill="white"/>
<path d="M438.46 112.99V120.91H447.04V112.99H450.1V133H447.04V123.79H438.46V133H435.4V112.99H438.46ZM463.612 121.84V120.37H466.552V133H463.612V131.68C462.632 132.82 461.372 133.39 459.832 133.39C457.972 133.39 456.482 132.73 455.362 131.41C454.262 130.09 453.712 128.51 453.712 126.67C453.712 124.67 454.302 123.07 455.482 121.87C456.682 120.65 458.142 120.04 459.862 120.04C461.442 120.04 462.692 120.64 463.612 121.84ZM460.222 122.68C459.182 122.68 458.332 123.07 457.672 123.85C457.032 124.63 456.712 125.59 456.712 126.73C456.712 127.85 457.032 128.8 457.672 129.58C458.332 130.36 459.182 130.75 460.222 130.75C461.222 130.75 462.062 130.4 462.742 129.7C463.442 129 463.792 128.02 463.792 126.76C463.792 125.46 463.442 124.46 462.742 123.76C462.062 123.04 461.222 122.68 460.222 122.68ZM470.28 133V120.37H473.22V130.3H477.42V120.37H480.36V130.3H484.56V120.37H487.5V133H470.28ZM491.227 120.37H494.167V127.54L502.807 119.23V133H499.867V125.65L491.227 133.96V120.37ZM523.302 120.94V124.24C522.242 123.2 521.052 122.68 519.732 122.68C518.612 122.68 517.682 123.05 516.942 123.79C516.222 124.51 515.862 125.48 515.862 126.7C515.862 127.96 516.242 128.97 517.002 129.73C517.722 130.41 518.612 130.75 519.672 130.75C521.132 130.75 522.342 130.21 523.302 129.13V132.4C522.242 133.06 520.962 133.39 519.462 133.39C517.442 133.39 515.842 132.77 514.662 131.53C513.462 130.29 512.862 128.71 512.862 126.79C512.862 124.81 513.502 123.18 514.782 121.9C516.022 120.66 517.712 120.04 519.852 120.04C521.072 120.04 522.222 120.34 523.302 120.94ZM526.12 120.37H537.1V133H534.16V123.07H529.06V133H526.12V120.37ZM549.677 128.74L552.137 130.12C551.577 131.12 550.867 131.89 550.007 132.43C549.027 133.07 547.787 133.39 546.287 133.39C544.527 133.39 543.107 132.85 542.027 131.77C540.787 130.53 540.167 128.92 540.167 126.94C540.167 124.86 540.837 123.13 542.177 121.75C543.317 120.61 544.727 120.04 546.407 120.04C548.047 120.04 549.397 120.59 550.457 121.69C551.637 122.91 552.227 124.69 552.227 127.03V127.39H543.167C543.247 128.45 543.607 129.3 544.247 129.94C544.787 130.48 545.537 130.75 546.497 130.75C547.277 130.75 547.947 130.54 548.507 130.12C548.967 129.76 549.357 129.3 549.677 128.74ZM543.377 124.99H549.227C549.107 124.29 548.807 123.72 548.327 123.28C547.807 122.8 547.147 122.56 546.347 122.56C545.507 122.56 544.817 122.83 544.277 123.37C543.837 123.77 543.537 124.31 543.377 124.99ZM555.299 133V120.37H558.239V130.3H563.219V120.37H566.159V130.3H568.259V136.6H565.559V133H555.299ZM570.358 120.37H573.298V127.54L581.938 119.23V133H578.998V125.65L570.358 133.96V120.37ZM594.891 121.84V120.37H597.831V133H594.891V131.68C593.911 132.82 592.651 133.39 591.111 133.39C589.251 133.39 587.761 132.73 586.641 131.41C585.541 130.09 584.991 128.51 584.991 126.67C584.991 124.67 585.581 123.07 586.761 121.87C587.961 120.65 589.421 120.04 591.141 120.04C592.721 120.04 593.971 120.64 594.891 121.84ZM591.501 122.68C590.461 122.68 589.611 123.07 588.951 123.85C588.311 124.63 587.991 125.59 587.991 126.73C587.991 127.85 588.311 128.8 588.951 129.58C589.611 130.36 590.461 130.75 591.501 130.75C592.501 130.75 593.341 130.4 594.021 129.7C594.721 129 595.071 128.02 595.071 126.76C595.071 125.46 594.721 124.46 594.021 123.76C593.341 123.04 592.501 122.68 591.501 122.68ZM611.939 120.37V133H608.999V123.07H605.279V128.08C605.279 129.64 604.879 130.85 604.079 131.71C603.059 132.85 601.679 133.28 599.939 133V130.3C600.799 130.5 601.489 130.31 602.009 129.73C602.309 129.37 602.459 128.82 602.459 128.08V120.37H611.939ZM615.651 120.37H618.591V127.54L627.231 119.23V133H624.291V125.65L615.651 133.96V120.37ZM640.724 120.94V124.24C639.664 123.2 638.474 122.68 637.154 122.68C636.034 122.68 635.104 123.05 634.364 123.79C633.644 124.51 633.284 125.48 633.284 126.7C633.284 127.96 633.664 128.97 634.424 129.73C635.144 130.41 636.034 130.75 637.094 130.75C638.554 130.75 639.764 130.21 640.724 129.13V132.4C639.664 133.06 638.384 133.39 636.884 133.39C634.864 133.39 633.264 132.77 632.084 131.53C630.884 130.29 630.284 128.71 630.284 126.79C630.284 124.81 630.924 123.18 632.204 121.9C633.444 120.66 635.134 120.04 637.274 120.04C638.494 120.04 639.644 120.34 640.724 120.94ZM652.535 123.07H648.845V133H645.905V123.07H642.215V120.37H652.535V123.07ZM654.645 133V120.37H657.585V124.84H659.265C659.805 124.84 660.245 124.86 660.585 124.9C660.925 124.92 661.335 125.03 661.815 125.23C662.295 125.43 662.715 125.73 663.075 126.13C663.735 126.87 664.065 127.79 664.065 128.89C664.065 130.15 663.685 131.16 662.925 131.92C662.585 132.26 662.175 132.52 661.695 132.7C661.235 132.86 660.845 132.95 660.525 132.97C660.225 132.99 659.795 133 659.235 133H654.645ZM657.585 130.48H658.935C659.655 130.48 660.165 130.39 660.465 130.21C660.905 129.89 661.125 129.46 661.125 128.92C661.125 128.36 660.915 127.94 660.495 127.66C660.175 127.46 659.665 127.36 658.965 127.36H657.585V130.48ZM665.385 133V120.37H668.325V133H665.385ZM679.049 120.37H690.029V133H687.089V123.07H681.989V133H679.049V120.37ZM696.696 131.53V139.87H693.756V120.37H696.696V121.75C697.656 120.61 698.906 120.04 700.446 120.04C702.166 120.04 703.616 120.65 704.796 121.87C705.996 123.07 706.596 124.65 706.596 126.61C706.596 128.63 705.976 130.27 704.736 131.53C703.496 132.77 702.076 133.39 700.476 133.39C698.976 133.39 697.716 132.77 696.696 131.53ZM700.086 122.68C699.086 122.68 698.236 123.04 697.536 123.76C696.856 124.46 696.516 125.46 696.516 126.76C696.516 128.02 696.856 129 697.536 129.7C698.236 130.4 699.086 130.75 700.086 130.75C701.126 130.75 701.966 130.36 702.606 129.58C703.266 128.8 703.596 127.85 703.596 126.73C703.596 125.59 703.266 124.63 702.606 123.85C701.966 123.07 701.126 122.68 700.086 122.68ZM710.925 121.93C712.225 120.67 713.835 120.04 715.755 120.04C717.675 120.04 719.275 120.67 720.555 121.93C721.855 123.17 722.505 124.76 722.505 126.7C722.505 128.62 721.855 130.22 720.555 131.5C719.275 132.76 717.675 133.39 715.755 133.39C713.835 133.39 712.225 132.76 710.925 131.5C709.645 130.22 709.005 128.62 709.005 126.7C709.005 124.76 709.645 123.17 710.925 121.93ZM713.025 129.67C713.705 130.39 714.615 130.75 715.755 130.75C716.895 130.75 717.805 130.39 718.485 129.67C719.165 128.93 719.505 127.95 719.505 126.73C719.505 125.39 719.135 124.38 718.395 123.7C717.675 123.02 716.795 122.68 715.755 122.68C714.715 122.68 713.825 123.02 713.085 123.7C712.365 124.38 712.005 125.39 712.005 126.73C712.005 127.95 712.345 128.93 713.025 129.67ZM725.573 120.37H730.523C731.783 120.37 732.743 120.62 733.403 121.12C734.183 121.74 734.573 122.55 734.573 123.55C734.573 124.69 734.073 125.51 733.073 126.01C733.713 126.13 734.283 126.41 734.783 126.85C735.443 127.45 735.773 128.26 735.773 129.28C735.773 130.5 735.313 131.46 734.393 132.16C733.633 132.72 732.663 133 731.483 133H725.573V120.37ZM728.513 125.29H730.013C730.533 125.29 730.923 125.2 731.183 125.02C731.563 124.78 731.753 124.44 731.753 124C731.753 123.58 731.583 123.25 731.243 123.01C731.003 122.85 730.573 122.77 729.953 122.77H728.513V125.29ZM728.513 130.6H730.703C731.363 130.6 731.873 130.48 732.233 130.24C732.633 129.98 732.833 129.61 732.833 129.13C732.833 128.61 732.643 128.24 732.263 128.02C731.923 127.8 731.433 127.69 730.793 127.69H728.513V130.6ZM740.104 121.93C741.404 120.67 743.014 120.04 744.934 120.04C746.854 120.04 748.454 120.67 749.734 121.93C751.034 123.17 751.684 124.76 751.684 126.7C751.684 128.62 751.034 130.22 749.734 131.5C748.454 132.76 746.854 133.39 744.934 133.39C743.014 133.39 741.404 132.76 740.104 131.5C738.824 130.22 738.184 128.62 738.184 126.7C738.184 124.76 738.824 123.17 740.104 121.93ZM742.204 129.67C742.884 130.39 743.794 130.75 744.934 130.75C746.074 130.75 746.984 130.39 747.664 129.67C748.344 128.93 748.684 127.95 748.684 126.73C748.684 125.39 748.314 124.38 747.574 123.7C746.854 123.02 745.974 122.68 744.934 122.68C743.894 122.68 743.004 123.02 742.264 123.7C741.544 124.38 741.184 125.39 741.184 126.73C741.184 127.95 741.524 128.93 742.204 129.67ZM755.833 120.37H765.313V130.3H767.233V136.6H764.533V133H755.713V136.6H753.013V130.3C754.033 130.24 754.803 129.69 755.323 128.65C755.663 127.91 755.833 126.8 755.833 125.32V120.37ZM762.373 130.3V123.07H758.653V126.43C758.653 128.25 758.163 129.54 757.183 130.3H762.373ZM767.722 133L771.682 127.99C770.902 127.87 770.232 127.55 769.672 127.03C768.972 126.35 768.622 125.48 768.622 124.42C768.622 123.22 769.012 122.25 769.792 121.51C770.592 120.75 771.812 120.37 773.452 120.37H778.162V133H775.222V128.35H774.622L771.172 133H767.722ZM775.222 125.95V122.89H773.512C772.812 122.89 772.302 122.98 771.982 123.16C771.502 123.46 771.262 123.88 771.262 124.42C771.262 124.96 771.462 125.37 771.862 125.65C772.162 125.85 772.702 125.95 773.482 125.95H775.222ZM790.581 123.07H786.891V133H783.951V123.07H780.261V120.37H790.581V123.07ZM799.694 120.37H802.634V124.87L806.834 120.37H810.734L805.214 125.89L811.034 133H807.314L803.114 127.81L802.634 128.29V133H799.694V120.37ZM813.933 121.93C815.233 120.67 816.843 120.04 818.763 120.04C820.683 120.04 822.283 120.67 823.563 121.93C824.863 123.17 825.513 124.76 825.513 126.7C825.513 128.62 824.863 130.22 823.563 131.5C822.283 132.76 820.683 133.39 818.763 133.39C816.843 133.39 815.233 132.76 813.933 131.5C812.653 130.22 812.013 128.62 812.013 126.7C812.013 124.76 812.653 123.17 813.933 121.93ZM816.033 129.67C816.713 130.39 817.623 130.75 818.763 130.75C819.903 130.75 820.813 130.39 821.493 129.67C822.173 128.93 822.513 127.95 822.513 126.73C822.513 125.39 822.143 124.38 821.403 123.7C820.683 123.02 819.803 122.68 818.763 122.68C817.723 122.68 816.833 123.02 816.093 123.7C815.373 124.38 815.013 125.39 815.013 126.73C815.013 127.95 815.353 128.93 816.033 129.67ZM828.581 133V120.37H831.521V125.05H836.741V120.37H839.681V133H836.741V127.75H831.521V133H828.581ZM853.185 120.94V124.24C852.125 123.2 850.935 122.68 849.615 122.68C848.495 122.68 847.565 123.05 846.825 123.79C846.105 124.51 845.745 125.48 845.745 126.7C845.745 127.96 846.125 128.97 846.885 129.73C847.605 130.41 848.495 130.75 849.555 130.75C851.015 130.75 852.225 130.21 853.185 129.13V132.4C852.125 133.06 850.845 133.39 849.345 133.39C847.325 133.39 845.725 132.77 844.545 131.53C843.345 130.29 842.745 128.71 842.745 126.79C842.745 124.81 843.385 123.18 844.665 121.9C845.905 120.66 847.595 120.04 849.735 120.04C850.955 120.04 852.105 120.34 853.185 120.94ZM855.073 139.87L859.723 131.02L854.323 120.37H857.863L861.463 127.75L865.123 120.37H868.423L858.373 139.87H855.073ZM880.855 120.37V133H877.915V123.07H874.195V128.08C874.195 129.64 873.795 130.85 872.995 131.71C871.975 132.85 870.595 133.28 868.855 133V130.3C869.715 130.5 870.405 130.31 870.925 129.73C871.225 129.37 871.375 128.82 871.375 128.08V120.37H880.855ZM884.567 133V120.37H887.507V124.84H889.187C889.727 124.84 890.167 124.86 890.507 124.9C890.847 124.92 891.257 125.03 891.737 125.23C892.217 125.43 892.637 125.73 892.997 126.13C893.657 126.87 893.987 127.79 893.987 128.89C893.987 130.15 893.607 131.16 892.847 131.92C892.507 132.26 892.097 132.52 891.617 132.7C891.157 132.86 890.767 132.95 890.447 132.97C890.147 132.99 889.717 133 889.157 133H884.567ZM887.507 130.48H888.857C889.577 130.48 890.087 130.39 890.387 130.21C890.827 129.89 891.047 129.46 891.047 128.92C891.047 128.36 890.837 127.94 890.417 127.66C890.097 127.46 889.587 127.36 888.887 127.36H887.507V130.48ZM904.634 123.07H900.944V133H898.004V123.07H894.314V120.37H904.634V123.07ZM915.663 121.84V120.37H918.603V133H915.663V131.68C914.683 132.82 913.423 133.39 911.883 133.39C910.023 133.39 908.533 132.73 907.413 131.41C906.313 130.09 905.763 128.51 905.763 126.67C905.763 124.67 906.353 123.07 907.533 121.87C908.733 120.65 910.193 120.04 911.913 120.04C913.493 120.04 914.743 120.64 915.663 121.84ZM912.272 122.68C911.233 122.68 910.383 123.07 909.723 123.85C909.083 124.63 908.763 125.59 908.763 126.73C908.763 127.85 909.083 128.8 909.723 129.58C910.383 130.36 911.233 130.75 912.272 130.75C913.273 130.75 914.113 130.4 914.793 129.7C915.493 129 915.843 128.02 915.843 126.76C915.843 125.46 915.493 124.46 914.793 123.76C914.113 123.04 913.273 122.68 912.272 122.68ZM922.331 133V120.37H925.271V130.3H930.251V120.37H933.191V130.3H935.291V136.6H932.591V133H922.331ZM937.389 120.37H940.329V127.54L948.969 119.23V133H946.029V125.65L937.389 133.96V120.37ZM955.622 125.05H957.632C957.832 123.87 958.382 122.82 959.282 121.9C960.522 120.66 962.092 120.04 963.992 120.04C965.872 120.04 967.442 120.67 968.702 121.93C969.982 123.17 970.622 124.76 970.622 126.7C970.622 128.62 969.982 130.22 968.702 131.5C967.442 132.76 965.872 133.39 963.992 133.39C961.992 133.39 960.372 132.72 959.132 131.38C958.212 130.38 957.692 129.17 957.572 127.75H955.622V133H952.682V120.37H955.622V125.05ZM966.572 123.7C965.872 123.02 965.012 122.68 963.992 122.68C962.972 122.68 962.112 123.02 961.412 123.7C960.712 124.38 960.362 125.39 960.362 126.73C960.362 128.07 960.712 129.08 961.412 129.76C962.112 130.42 962.972 130.75 963.992 130.75C965.012 130.75 965.872 130.42 966.572 129.76C967.272 129.08 967.622 128.07 967.622 126.73C967.622 125.39 967.272 124.38 966.572 123.7ZM980.69 120.37H983.63V127.54L992.27 119.23V133H989.33V125.65L980.69 133.96V120.37ZM434.86 157.37H445.84V170H442.9V160.07H437.8V170H434.86V157.37ZM452.507 168.53V176.87H449.567V157.37H452.507V158.75C453.467 157.61 454.717 157.04 456.257 157.04C457.977 157.04 459.427 157.65 460.607 158.87C461.807 160.07 462.407 161.65 462.407 163.61C462.407 165.63 461.787 167.27 460.547 168.53C459.307 169.77 457.887 170.39 456.287 170.39C454.787 170.39 453.527 169.77 452.507 168.53ZM455.897 159.68C454.897 159.68 454.047 160.04 453.347 160.76C452.667 161.46 452.327 162.46 452.327 163.76C452.327 165.02 452.667 166 453.347 166.7C454.047 167.4 454.897 167.75 455.897 167.75C456.937 167.75 457.777 167.36 458.417 166.58C459.077 165.8 459.407 164.85 459.407 163.73C459.407 162.59 459.077 161.63 458.417 160.85C457.777 160.07 456.937 159.68 455.897 159.68ZM474.325 165.74L476.785 167.12C476.225 168.12 475.515 168.89 474.655 169.43C473.675 170.07 472.435 170.39 470.935 170.39C469.175 170.39 467.755 169.85 466.675 168.77C465.435 167.53 464.815 165.92 464.815 163.94C464.815 161.86 465.485 160.13 466.825 158.75C467.965 157.61 469.375 157.04 471.055 157.04C472.695 157.04 474.045 157.59 475.105 158.69C476.285 159.91 476.875 161.69 476.875 164.03V164.39H467.815C467.895 165.45 468.255 166.3 468.895 166.94C469.435 167.48 470.185 167.75 471.145 167.75C471.925 167.75 472.595 167.54 473.155 167.12C473.615 166.76 474.005 166.3 474.325 165.74ZM468.025 161.99H473.875C473.755 161.29 473.455 160.72 472.975 160.28C472.455 159.8 471.795 159.56 470.995 159.56C470.155 159.56 469.465 159.83 468.925 160.37C468.485 160.77 468.185 161.31 468.025 161.99ZM481.028 157.37H490.508V167.3H492.428V173.6H489.728V170H480.908V173.6H478.208V167.3C479.228 167.24 479.998 166.69 480.518 165.65C480.858 164.91 481.028 163.8 481.028 162.32V157.37ZM487.568 167.3V160.07H483.848V163.43C483.848 165.25 483.358 166.54 482.378 167.3H487.568ZM505.562 157.37V170H502.622V160.07H498.902V165.08C498.902 166.64 498.502 167.85 497.702 168.71C496.682 169.85 495.302 170.28 493.562 170V167.3C494.422 167.5 495.112 167.31 495.632 166.73C495.932 166.37 496.082 165.82 496.082 165.08V157.37H505.562ZM518.514 158.84V157.37H521.454V170H518.514V168.68C517.534 169.82 516.274 170.39 514.734 170.39C512.874 170.39 511.384 169.73 510.264 168.41C509.164 167.09 508.614 165.51 508.614 163.67C508.614 161.67 509.204 160.07 510.384 158.87C511.584 157.65 513.044 157.04 514.764 157.04C516.344 157.04 517.594 157.64 518.514 158.84ZM515.124 159.68C514.084 159.68 513.234 160.07 512.574 160.85C511.934 161.63 511.614 162.59 511.614 163.73C511.614 164.85 511.934 165.8 512.574 166.58C513.234 167.36 514.084 167.75 515.124 167.75C516.124 167.75 516.964 167.4 517.644 166.7C518.344 166 518.694 165.02 518.694 163.76C518.694 162.46 518.344 161.46 517.644 160.76C516.964 160.04 516.124 159.68 515.124 159.68ZM525.182 170V157.37H532.922V160.07H528.122V170H525.182ZM543.973 158.84V157.37H546.913V170H543.973V168.68C542.993 169.82 541.733 170.39 540.193 170.39C538.333 170.39 536.843 169.73 535.723 168.41C534.623 167.09 534.073 165.51 534.073 163.67C534.073 161.67 534.663 160.07 535.843 158.87C537.043 157.65 538.503 157.04 540.223 157.04C541.803 157.04 543.053 157.64 543.973 158.84ZM540.583 159.68C539.543 159.68 538.693 160.07 538.033 160.85C537.393 161.63 537.073 162.59 537.073 163.73C537.073 164.85 537.393 165.8 538.033 166.58C538.693 167.36 539.543 167.75 540.583 167.75C541.583 167.75 542.423 167.4 543.103 166.7C543.803 166 544.153 165.02 544.153 163.76C544.153 162.46 543.803 161.46 543.103 160.76C542.423 160.04 541.583 159.68 540.583 159.68ZM553.581 162.05H555.591C555.791 160.87 556.341 159.82 557.241 158.9C558.481 157.66 560.051 157.04 561.951 157.04C563.831 157.04 565.401 157.67 566.661 158.93C567.941 160.17 568.581 161.76 568.581 163.7C568.581 165.62 567.941 167.22 566.661 168.5C565.401 169.76 563.831 170.39 561.951 170.39C559.951 170.39 558.331 169.72 557.091 168.38C556.171 167.38 555.651 166.17 555.531 164.75H553.581V170H550.641V157.37H553.581V162.05ZM564.531 160.7C563.831 160.02 562.971 159.68 561.951 159.68C560.931 159.68 560.071 160.02 559.371 160.7C558.671 161.38 558.321 162.39 558.321 163.73C558.321 165.07 558.671 166.08 559.371 166.76C560.071 167.42 560.931 167.75 561.951 167.75C562.971 167.75 563.831 167.42 564.531 166.76C565.231 166.08 565.581 165.07 565.581 163.73C565.581 162.39 565.231 161.38 564.531 160.7ZM580.347 160.07H576.657V170H573.717V160.07H570.027V157.37H580.347V160.07ZM592.4 168.53V176.87H589.46V157.37H592.4V158.75C593.36 157.61 594.61 157.04 596.15 157.04C597.87 157.04 599.32 157.65 600.5 158.87C601.7 160.07 602.3 161.65 602.3 163.61C602.3 165.63 601.68 167.27 600.44 168.53C599.2 169.77 597.78 170.39 596.18 170.39C594.68 170.39 593.42 169.77 592.4 168.53ZM595.79 159.68C594.79 159.68 593.94 160.04 593.24 160.76C592.56 161.46 592.22 162.46 592.22 163.76C592.22 165.02 592.56 166 593.24 166.7C593.94 167.4 594.79 167.75 595.79 167.75C596.83 167.75 597.67 167.36 598.31 166.58C598.97 165.8 599.3 164.85 599.3 163.73C599.3 162.59 598.97 161.63 598.31 160.85C597.67 160.07 596.83 159.68 595.79 159.68ZM614.218 165.74L616.678 167.12C616.118 168.12 615.408 168.89 614.548 169.43C613.568 170.07 612.328 170.39 610.828 170.39C609.068 170.39 607.648 169.85 606.568 168.77C605.328 167.53 604.708 165.92 604.708 163.94C604.708 161.86 605.378 160.13 606.718 158.75C607.858 157.61 609.268 157.04 610.948 157.04C612.588 157.04 613.938 157.59 614.998 158.69C616.178 159.91 616.768 161.69 616.768 164.03V164.39H607.708C607.788 165.45 608.148 166.3 608.788 166.94C609.328 167.48 610.078 167.75 611.038 167.75C611.818 167.75 612.488 167.54 613.048 167.12C613.508 166.76 613.898 166.3 614.218 165.74ZM607.918 161.99H613.768C613.648 161.29 613.348 160.72 612.868 160.28C612.348 159.8 611.688 159.56 610.888 159.56C610.048 159.56 609.358 159.83 608.818 160.37C608.378 160.77 608.078 161.31 607.918 161.99ZM619.84 170V157.37H622.78V167.3H626.98V157.37H629.92V167.3H634.12V157.37H637.06V170H619.84ZM649.638 165.74L652.098 167.12C651.538 168.12 650.828 168.89 649.968 169.43C648.988 170.07 647.748 170.39 646.248 170.39C644.488 170.39 643.068 169.85 641.988 168.77C640.748 167.53 640.128 165.92 640.128 163.94C640.128 161.86 640.798 160.13 642.138 158.75C643.278 157.61 644.688 157.04 646.368 157.04C648.008 157.04 649.358 157.59 650.418 158.69C651.598 159.91 652.188 161.69 652.188 164.03V164.39H643.128C643.208 165.45 643.568 166.3 644.208 166.94C644.748 167.48 645.498 167.75 646.458 167.75C647.238 167.75 647.908 167.54 648.468 167.12C648.928 166.76 649.318 166.3 649.638 165.74ZM643.338 161.99H649.188C649.068 161.29 648.768 160.72 648.288 160.28C647.768 159.8 647.108 159.56 646.308 159.56C645.468 159.56 644.778 159.83 644.238 160.37C643.798 160.77 643.498 161.31 643.338 161.99ZM655.26 170V157.37H658.2V162.05H663.42V157.37H666.36V170H663.42V164.75H658.2V170H655.26ZM670.085 157.37H673.025V164.54L681.665 156.23V170H678.725V162.65L670.085 170.96V157.37ZM694.228 165.74L696.688 167.12C696.128 168.12 695.418 168.89 694.558 169.43C693.578 170.07 692.338 170.39 690.838 170.39C689.078 170.39 687.658 169.85 686.578 168.77C685.338 167.53 684.718 165.92 684.718 163.94C684.718 161.86 685.388 160.13 686.728 158.75C687.868 157.61 689.278 157.04 690.958 157.04C692.598 157.04 693.948 157.59 695.008 158.69C696.188 159.91 696.778 161.69 696.778 164.03V164.39H687.718C687.798 165.45 688.158 166.3 688.798 166.94C689.338 167.48 690.088 167.75 691.048 167.75C691.828 167.75 692.498 167.54 693.058 167.12C693.518 166.76 693.908 166.3 694.228 165.74ZM687.928 161.99H693.778C693.658 161.29 693.358 160.72 692.878 160.28C692.358 159.8 691.698 159.56 690.898 159.56C690.058 159.56 689.368 159.83 688.828 160.37C688.388 160.77 688.088 161.31 687.928 161.99ZM708.562 160.64L706.672 158.99C707.152 158.41 707.792 157.94 708.592 157.58C709.432 157.22 710.422 157.04 711.562 157.04C712.882 157.04 713.952 157.33 714.772 157.91C715.652 158.55 716.092 159.41 716.092 160.49C716.092 161.19 715.912 161.77 715.552 162.23C715.252 162.63 714.852 162.93 714.352 163.13C715.112 163.29 715.722 163.6 716.182 164.06C716.722 164.6 716.992 165.3 716.992 166.16C716.992 167.3 716.632 168.23 715.912 168.95C714.952 169.91 713.472 170.39 711.472 170.39C710.132 170.39 709.032 170.14 708.172 169.64C707.272 169.12 706.612 168.37 706.192 167.39L708.532 166.19C708.812 166.79 709.182 167.23 709.642 167.51C710.142 167.83 710.772 167.99 711.532 167.99C712.452 167.99 713.122 167.78 713.542 167.36C713.842 167.02 713.992 166.65 713.992 166.25C713.992 165.83 713.862 165.49 713.602 165.23C713.262 164.87 712.562 164.69 711.502 164.69H710.182V162.29H711.292C711.932 162.29 712.412 162.18 712.732 161.96C713.092 161.68 713.272 161.31 713.272 160.85C713.272 160.37 713.092 160.01 712.732 159.77C712.432 159.55 711.962 159.44 711.322 159.44C710.722 159.44 710.172 159.56 709.672 159.8C709.252 160 708.882 160.28 708.562 160.64ZM729.305 158.84V157.37H732.245V170H729.305V168.68C728.325 169.82 727.065 170.39 725.525 170.39C723.665 170.39 722.175 169.73 721.055 168.41C719.955 167.09 719.405 165.51 719.405 163.67C719.405 161.67 719.995 160.07 721.175 158.87C722.375 157.65 723.835 157.04 725.555 157.04C727.135 157.04 728.385 157.64 729.305 158.84ZM725.915 159.68C724.875 159.68 724.025 160.07 723.365 160.85C722.725 161.63 722.405 162.59 722.405 163.73C722.405 164.85 722.725 165.8 723.365 166.58C724.025 167.36 724.875 167.75 725.915 167.75C726.915 167.75 727.755 167.4 728.435 166.7C729.135 166 729.485 165.02 729.485 163.76C729.485 162.46 729.135 161.46 728.435 160.76C727.755 160.04 726.915 159.68 725.915 159.68ZM737.053 157.37H746.533V167.3H748.453V173.6H745.753V170H736.933V173.6H734.233V167.3C735.253 167.24 736.023 166.69 736.543 165.65C736.883 164.91 737.053 163.8 737.053 162.32V157.37ZM743.593 167.3V160.07H739.873V163.43C739.873 165.25 739.383 166.54 738.403 167.3H743.593ZM759.803 158.84V157.37H762.743V170H759.803V168.68C758.823 169.82 757.563 170.39 756.023 170.39C754.163 170.39 752.673 169.73 751.553 168.41C750.453 167.09 749.903 165.51 749.903 163.67C749.903 161.67 750.493 160.07 751.673 158.87C752.873 157.65 754.333 157.04 756.053 157.04C757.633 157.04 758.883 157.64 759.803 158.84ZM756.413 159.68C755.373 159.68 754.523 160.07 753.863 160.85C753.223 161.63 752.903 162.59 752.903 163.73C752.903 164.85 753.223 165.8 753.863 166.58C754.523 167.36 755.373 167.75 756.413 167.75C757.413 167.75 758.253 167.4 758.933 166.7C759.633 166 759.983 165.02 759.983 163.76C759.983 162.46 759.633 161.46 758.933 160.76C758.253 160.04 757.413 159.68 756.413 159.68ZM773.311 170V165.11C772.411 165.29 771.551 165.38 770.731 165.38C769.291 165.38 768.181 165.07 767.401 164.45C766.581 163.79 766.171 162.78 766.171 161.42V157.37H769.111V160.82C769.111 161.68 769.361 162.26 769.861 162.56C770.201 162.76 770.691 162.86 771.331 162.86C772.051 162.86 772.711 162.75 773.311 162.53V157.37H776.251V170H773.311ZM779.977 157.37H782.917V164.54L791.557 156.23V170H788.617V162.65L779.977 170.96V157.37ZM803.982 160.64L802.092 158.99C802.572 158.41 803.212 157.94 804.012 157.58C804.852 157.22 805.842 157.04 806.982 157.04C808.302 157.04 809.372 157.33 810.192 157.91C811.072 158.55 811.512 159.41 811.512 160.49C811.512 161.19 811.332 161.77 810.972 162.23C810.672 162.63 810.272 162.93 809.772 163.13C810.532 163.29 811.142 163.6 811.602 164.06C812.142 164.6 812.412 165.3 812.412 166.16C812.412 167.3 812.052 168.23 811.332 168.95C810.372 169.91 808.892 170.39 806.892 170.39C805.552 170.39 804.452 170.14 803.592 169.64C802.692 169.12 802.032 168.37 801.612 167.39L803.952 166.19C804.232 166.79 804.602 167.23 805.062 167.51C805.562 167.83 806.192 167.99 806.952 167.99C807.872 167.99 808.542 167.78 808.962 167.36C809.262 167.02 809.412 166.65 809.412 166.25C809.412 165.83 809.282 165.49 809.022 165.23C808.682 164.87 807.982 164.69 806.922 164.69H805.602V162.29H806.712C807.352 162.29 807.832 162.18 808.152 161.96C808.512 161.68 808.692 161.31 808.692 160.85C808.692 160.37 808.512 160.01 808.152 159.77C807.852 159.55 807.382 159.44 806.742 159.44C806.142 159.44 805.592 159.56 805.092 159.8C804.672 160 804.302 160.28 803.982 160.64ZM824.725 158.84V157.37H827.665V170H824.725V168.68C823.745 169.82 822.485 170.39 820.945 170.39C819.085 170.39 817.595 169.73 816.475 168.41C815.375 167.09 814.825 165.51 814.825 163.67C814.825 161.67 815.415 160.07 816.595 158.87C817.795 157.65 819.255 157.04 820.975 157.04C822.555 157.04 823.805 157.64 824.725 158.84ZM821.335 159.68C820.295 159.68 819.445 160.07 818.785 160.85C818.145 161.63 817.825 162.59 817.825 163.73C817.825 164.85 818.145 165.8 818.785 166.58C819.445 167.36 820.295 167.75 821.335 167.75C822.335 167.75 823.175 167.4 823.855 166.7C824.555 166 824.905 165.02 824.905 163.76C824.905 162.46 824.555 161.46 823.855 160.76C823.175 160.04 822.335 159.68 821.335 159.68ZM844.035 170V152.81H840.555L842.235 149.99H847.095V170H844.035ZM864.498 149.99V152.81H858.318L857.328 156.14C857.728 156.1 858.038 156.08 858.258 156.08C860.138 156.08 861.678 156.67 862.878 157.85C864.178 159.11 864.828 160.82 864.828 162.98C864.828 165.16 864.148 166.93 862.788 168.29C861.408 169.65 859.558 170.33 857.238 170.33C855.718 170.33 854.438 170.03 853.398 169.43C852.438 168.85 851.648 168.08 851.028 167.12L853.338 165.2C853.618 165.88 854.128 166.46 854.868 166.94C855.548 167.4 856.418 167.63 857.478 167.63C858.738 167.63 859.758 167.26 860.538 166.52C861.398 165.66 861.828 164.53 861.828 163.13C861.828 161.73 861.428 160.65 860.628 159.89C859.848 159.15 858.758 158.78 857.358 158.78C856.558 158.78 855.778 158.92 855.018 159.2C854.338 159.46 853.748 159.76 853.248 160.1L856.218 149.99H864.498ZM874.66 170L877.72 156.23L882.94 165.86L888.16 156.23L891.22 170H888.22L886.96 163.67L882.94 170.96L878.92 163.67L877.66 170H874.66ZM893.503 157.37H896.443V164.54L905.083 156.23V170H902.143V162.65L893.503 170.96V157.37ZM908.796 170V157.37H911.736V162.05H916.956V157.37H919.896V170H916.956V164.75H911.736V170H908.796ZM922.69 176.87L927.34 168.02L921.94 157.37H925.48L929.08 164.75L932.74 157.37H936.04L925.99 176.87H922.69ZM947.378 160.07H943.688V170H940.748V160.07H937.058V157.37H947.378V160.07Z" fill="#434343"/>
<path d="M0 5C0 2.23858 2.23858 0 5 0H398V343H5C2.23858 343 0 340.761 0 338V5Z"/>
<path d="M441.172 40.989V50.997L449.38 40.989H456.148L446.428 52.365L456.904 65.001H449.776L441.172 54.345V65.001H435.628V40.989H441.172ZM470.257 40.449C474.049 40.449 477.145 41.613 479.545 43.941C482.041 46.365 483.289 49.389 483.289 53.013C483.289 56.589 482.041 59.589 479.545 62.013C477.121 64.365 474.025 65.541 470.257 65.541C466.465 65.541 463.345 64.365 460.897 62.013C459.721 60.909 458.797 59.589 458.125 58.053C457.477 56.493 457.153 54.837 457.153 53.085C457.153 51.405 457.489 49.749 458.161 48.117C458.857 46.461 459.757 45.081 460.861 43.977C463.213 41.625 466.345 40.449 470.257 40.449ZM470.221 45.561C468.085 45.561 466.333 46.245 464.965 47.613C463.549 48.981 462.841 50.793 462.841 53.049C462.841 55.209 463.573 57.009 465.037 58.449C466.429 59.769 468.145 60.429 470.185 60.429C472.369 60.429 474.145 59.745 475.513 58.377C476.905 57.033 477.601 55.245 477.601 53.013C477.601 50.805 476.905 49.005 475.513 47.613C474.097 46.245 472.333 45.561 470.221 45.561ZM492.957 40.989V50.133H502.533V40.989H508.077V65.001H502.533V54.813H492.957V65.001H487.413V40.989H492.957ZM530.675 57.873V64.245C528.971 65.109 527.207 65.541 525.383 65.541C521.471 65.541 518.327 64.377 515.951 62.049C513.455 59.625 512.207 56.589 512.207 52.941C512.207 49.341 513.455 46.329 515.951 43.905C518.327 41.601 521.315 40.449 524.915 40.449C526.691 40.449 528.611 40.893 530.675 41.781V48.189C529.067 46.485 527.195 45.633 525.059 45.633C523.091 45.633 521.459 46.257 520.163 47.505C518.651 48.969 517.895 50.817 517.895 53.049C517.895 55.233 518.591 56.997 519.983 58.341C521.327 59.685 523.055 60.357 525.167 60.357C527.159 60.357 528.995 59.529 530.675 57.873ZM532.636 40.989H538.828L543.868 52.077L548.692 40.989H554.668L543.688 65.001H537.712L541.204 58.089L532.636 40.989ZM558.414 40.989H575.874V65.001H570.33V45.669H563.814V53.913C563.814 58.593 563.01 61.749 561.402 63.381C560.13 64.653 558.33 65.289 556.002 65.289C555.234 65.289 554.49 65.193 553.77 65.001V60.033C554.154 60.177 554.61 60.249 555.138 60.249C556.074 60.249 556.806 59.985 557.334 59.457C558.054 58.737 558.414 57.057 558.414 54.417V40.989ZM581.14 65.001V40.989H586.684V50.349H590.068C593.044 50.349 595.24 51.021 596.656 52.365C598 53.637 598.672 55.413 598.672 57.693C598.672 59.973 598.024 61.737 596.728 62.985C595.312 64.329 593.032 65.001 589.888 65.001H581.14ZM586.684 54.813V60.537H589.132C590.452 60.537 591.412 60.321 592.012 59.889C592.708 59.433 593.056 58.689 593.056 57.657C593.056 56.553 592.72 55.797 592.048 55.389C591.52 55.005 590.56 54.813 589.168 54.813H586.684ZM614.999 45.669H609.743V65.001H604.199V45.669H599.015V40.989H614.999V45.669ZM631.962 65.001L630.162 60.465H621.09L619.254 65.001H613.494L623.178 40.989H628.254L637.722 65.001H631.962ZM622.71 56.217H628.65L625.698 48.153L622.71 56.217ZM640.413 65.001V40.989H645.957V60.321H654.849V40.989H660.393V60.321H663.633V70.401H658.665V65.001H640.413ZM666.605 40.989H672.149V56.685L683.273 40.701H688.169V65.001H682.625V49.269L671.501 65.289H666.605V40.989ZM709.845 40.989V65.001H704.301V56.253H703.581L697.929 65.001H691.521L698.433 55.605C697.065 55.365 695.925 54.801 695.013 53.913C693.669 52.665 692.997 50.889 692.997 48.585C692.997 46.449 693.645 44.697 694.941 43.329C696.453 41.769 698.673 40.989 701.601 40.989H709.845ZM704.301 52.005V45.525H703.005C701.517 45.525 700.425 45.813 699.729 46.389C699.033 47.013 698.685 47.817 698.685 48.801C698.685 49.761 698.997 50.529 699.621 51.105C700.293 51.705 701.421 52.005 703.005 52.005H704.301Z" fill="#0057B3"/>
<g filter="url(#filter0_d_60_323)">
<rect x="433" y="229" width="367" height="64" rx="5" fill="#0057B3" shape-rendering="crispEdges"/>
<path d="M476.503 256.616L474.895 255.056C475.487 254.272 476.175 253.696 476.959 253.328C477.759 252.928 478.727 252.728 479.863 252.728C481.463 252.728 482.703 253.152 483.583 254C484.351 254.752 484.735 255.688 484.735 256.808C484.735 257.576 484.559 258.24 484.207 258.8C483.871 259.376 483.391 259.84 482.767 260.192C483.647 260.416 484.367 260.888 484.927 261.608C485.471 262.296 485.743 263.2 485.743 264.32C485.743 265.76 485.207 266.952 484.135 267.896C483.047 268.824 481.607 269.288 479.815 269.288C478.295 269.288 476.983 268.872 475.879 268.04C475.015 267.368 474.335 266.504 473.839 265.448L475.999 264.344C476.319 265.16 476.815 265.808 477.487 266.288C478.191 266.784 479.071 267.032 480.127 267.032C481.183 267.032 481.999 266.744 482.575 266.168C483.087 265.656 483.343 265 483.343 264.2C483.343 263.368 483.031 262.744 482.407 262.328C481.815 261.912 480.847 261.704 479.503 261.704H478.063V259.4H479.359C480.383 259.4 481.151 259.184 481.663 258.752C482.143 258.352 482.383 257.808 482.383 257.12C482.383 256.4 482.127 255.848 481.615 255.464C481.199 255.144 480.583 254.984 479.767 254.984C478.999 254.984 478.351 255.136 477.823 255.44C477.311 255.728 476.871 256.12 476.503 256.616ZM495.782 260.072V258.896H498.134V269H495.782V267.944C494.998 268.856 493.99 269.312 492.758 269.312C491.27 269.312 490.078 268.784 489.182 267.728C488.302 266.672 487.862 265.408 487.862 263.936C487.862 262.336 488.334 261.056 489.278 260.096C490.238 259.12 491.406 258.632 492.782 258.632C494.046 258.632 495.046 259.112 495.782 260.072ZM493.07 260.744C492.238 260.744 491.558 261.056 491.03 261.68C490.518 262.304 490.262 263.072 490.262 263.984C490.262 264.88 490.518 265.64 491.03 266.264C491.558 266.888 492.238 267.2 493.07 267.2C493.87 267.2 494.542 266.92 495.086 266.36C495.646 265.8 495.926 265.016 495.926 264.008C495.926 262.968 495.646 262.168 495.086 261.608C494.542 261.032 493.87 260.744 493.07 260.744ZM501.117 258.896H509.901V269H507.549V261.056H503.469V269H501.117V258.896ZM512.883 258.896H515.235V264.632L522.147 257.984V269H519.795V263.12L512.883 269.768V258.896ZM532.941 259.352V261.992C532.093 261.16 531.141 260.744 530.085 260.744C529.189 260.744 528.445 261.04 527.853 261.632C527.277 262.208 526.989 262.984 526.989 263.96C526.989 264.968 527.293 265.776 527.901 266.384C528.477 266.928 529.189 267.2 530.037 267.2C531.205 267.2 532.173 266.768 532.941 265.904V268.52C532.093 269.048 531.069 269.312 529.869 269.312C528.253 269.312 526.973 268.816 526.029 267.824C525.069 266.832 524.589 265.568 524.589 264.032C524.589 262.448 525.101 261.144 526.125 260.12C527.117 259.128 528.469 258.632 530.181 258.632C531.157 258.632 532.077 258.872 532.941 259.352ZM542.587 260.072V258.896H544.939V269H542.587V267.944C541.803 268.856 540.795 269.312 539.563 269.312C538.075 269.312 536.883 268.784 535.987 267.728C535.107 266.672 534.667 265.408 534.667 263.936C534.667 262.336 535.139 261.056 536.083 260.096C537.043 259.12 538.211 258.632 539.587 258.632C540.851 258.632 541.851 259.112 542.587 260.072ZM539.875 260.744C539.043 260.744 538.363 261.056 537.835 261.68C537.323 262.304 537.067 263.072 537.067 263.984C537.067 264.88 537.323 265.64 537.835 266.264C538.363 266.888 539.043 267.2 539.875 267.2C540.675 267.2 541.347 266.92 541.891 266.36C542.451 265.8 542.731 265.016 542.731 264.008C542.731 262.968 542.451 262.168 541.891 261.608C541.347 261.032 540.675 260.744 539.875 260.744ZM554.882 261.056H551.93V269H549.578V261.056H546.626V258.896H554.882V261.056ZM556.57 269V258.896H558.922V262.472H560.266C560.698 262.472 561.05 262.488 561.322 262.52C561.594 262.536 561.922 262.624 562.306 262.784C562.69 262.944 563.026 263.184 563.314 263.504C563.842 264.096 564.106 264.832 564.106 265.712C564.106 266.72 563.802 267.528 563.194 268.136C562.922 268.408 562.594 268.616 562.21 268.76C561.842 268.888 561.53 268.96 561.274 268.976C561.034 268.992 560.69 269 560.242 269H556.57ZM558.922 266.984H560.002C560.578 266.984 560.986 266.912 561.226 266.768C561.578 266.512 561.754 266.168 561.754 265.736C561.754 265.288 561.586 264.952 561.25 264.728C560.994 264.568 560.586 264.488 560.026 264.488H558.922V266.984ZM574.003 259.352V261.992C573.155 261.16 572.203 260.744 571.147 260.744C570.251 260.744 569.507 261.04 568.915 261.632C568.339 262.208 568.051 262.984 568.051 263.96C568.051 264.968 568.355 265.776 568.963 266.384C569.539 266.928 570.251 267.2 571.099 267.2C572.267 267.2 573.235 266.768 574.003 265.904V268.52C573.155 269.048 572.131 269.312 570.931 269.312C569.315 269.312 568.035 268.816 567.091 267.824C566.131 266.832 565.651 265.568 565.651 264.032C565.651 262.448 566.163 261.144 567.187 260.12C568.179 259.128 569.531 258.632 571.243 258.632C572.219 258.632 573.139 258.872 574.003 259.352ZM574.962 269L578.13 264.992C577.506 264.896 576.97 264.64 576.522 264.224C575.962 263.68 575.682 262.984 575.682 262.136C575.682 261.176 575.994 260.4 576.618 259.808C577.258 259.2 578.234 258.896 579.546 258.896H583.314V269H580.962V265.28H580.482L577.722 269H574.962ZM580.962 263.36V260.912H579.594C579.034 260.912 578.626 260.984 578.37 261.128C577.986 261.368 577.794 261.704 577.794 262.136C577.794 262.568 577.954 262.896 578.274 263.12C578.514 263.28 578.946 263.36 579.57 263.36H580.962ZM591.89 269V258.896H594.242V262.64H598.418V258.896H600.77V269H598.418V264.8H594.242V269H591.89ZM611.142 260.072V258.896H613.494V269H611.142V267.944C610.358 268.856 609.35 269.312 608.118 269.312C606.63 269.312 605.438 268.784 604.542 267.728C603.662 266.672 603.222 265.408 603.222 263.936C603.222 262.336 603.694 261.056 604.638 260.096C605.598 259.12 606.766 258.632 608.142 258.632C609.406 258.632 610.406 259.112 611.142 260.072ZM608.43 260.744C607.598 260.744 606.918 261.056 606.39 261.68C605.878 262.304 605.622 263.072 605.622 263.984C605.622 264.88 605.878 265.64 606.39 266.264C606.918 266.888 607.598 267.2 608.43 267.2C609.23 267.2 609.902 266.92 610.446 266.36C611.006 265.8 611.286 265.016 611.286 264.008C611.286 262.968 611.006 262.168 610.446 261.608C609.902 261.032 609.23 260.744 608.43 260.744ZM622.078 258.896H624.43V262.496L627.79 258.896H630.91L626.494 263.312L631.15 269H628.174L624.814 264.848L624.43 265.232V269H622.078V258.896ZM633.469 260.144C634.509 259.136 635.797 258.632 637.333 258.632C638.869 258.632 640.149 259.136 641.173 260.144C642.213 261.136 642.733 262.408 642.733 263.96C642.733 265.496 642.213 266.776 641.173 267.8C640.149 268.808 638.869 269.312 637.333 269.312C635.797 269.312 634.509 268.808 633.469 267.8C632.445 266.776 631.933 265.496 631.933 263.96C631.933 262.408 632.445 261.136 633.469 260.144ZM635.149 266.336C635.693 266.912 636.421 267.2 637.333 267.2C638.245 267.2 638.973 266.912 639.517 266.336C640.061 265.744 640.333 264.96 640.333 263.984C640.333 262.912 640.037 262.104 639.445 261.56C638.869 261.016 638.165 260.744 637.333 260.744C636.501 260.744 635.789 261.016 635.197 261.56C634.621 262.104 634.333 262.912 634.333 263.984C634.333 264.96 634.605 265.744 635.149 266.336ZM645.187 269V258.896H647.539V262.64H651.715V258.896H654.067V269H651.715V264.8H647.539V269H645.187ZM664.871 259.352V261.992C664.023 261.16 663.071 260.744 662.015 260.744C661.119 260.744 660.375 261.04 659.783 261.632C659.207 262.208 658.919 262.984 658.919 263.96C658.919 264.968 659.223 265.776 659.831 266.384C660.407 266.928 661.119 267.2 661.967 267.2C663.135 267.2 664.103 266.768 664.871 265.904V268.52C664.023 269.048 662.999 269.312 661.799 269.312C660.183 269.312 658.903 268.816 657.959 267.824C656.999 266.832 656.519 265.568 656.519 264.032C656.519 262.448 657.031 261.144 658.055 260.12C659.047 259.128 660.399 258.632 662.111 258.632C663.087 258.632 664.007 258.872 664.871 259.352ZM666.381 274.496L670.101 267.416L665.781 258.896H668.613L671.493 264.8L674.421 258.896H677.061L669.021 274.496H666.381ZM687.007 258.896V269H684.655V261.056H681.679V265.064C681.679 266.312 681.359 267.28 680.719 267.968C679.903 268.88 678.799 269.224 677.407 269V266.84C678.095 267 678.647 266.848 679.063 266.384C679.303 266.096 679.423 265.656 679.423 265.064V258.896H687.007ZM689.976 269V258.896H692.328V262.472H693.672C694.104 262.472 694.456 262.488 694.728 262.52C695 262.536 695.328 262.624 695.712 262.784C696.096 262.944 696.432 263.184 696.72 263.504C697.248 264.096 697.512 264.832 697.512 265.712C697.512 266.72 697.208 267.528 696.6 268.136C696.328 268.408 696 268.616 695.616 268.76C695.248 268.888 694.936 268.96 694.68 268.976C694.44 268.992 694.096 269 693.648 269H689.976ZM692.328 266.984H693.408C693.984 266.984 694.392 266.912 694.632 266.768C694.984 266.512 695.16 266.168 695.16 265.736C695.16 265.288 694.992 264.952 694.656 264.728C694.4 264.568 693.992 264.488 693.432 264.488H692.328V266.984ZM706.03 261.056H703.078V269H700.726V261.056H697.774V258.896H706.03V261.056ZM714.853 260.072V258.896H717.205V269H714.853V267.944C714.069 268.856 713.061 269.312 711.829 269.312C710.341 269.312 709.149 268.784 708.253 267.728C707.373 266.672 706.933 265.408 706.933 263.936C706.933 262.336 707.405 261.056 708.349 260.096C709.309 259.12 710.477 258.632 711.853 258.632C713.117 258.632 714.117 259.112 714.853 260.072ZM712.141 260.744C711.309 260.744 710.629 261.056 710.101 261.68C709.589 262.304 709.333 263.072 709.333 263.984C709.333 264.88 709.589 265.64 710.101 266.264C710.629 266.888 711.309 267.2 712.141 267.2C712.941 267.2 713.613 266.92 714.157 266.36C714.717 265.8 714.997 265.016 714.997 264.008C714.997 262.968 714.717 262.168 714.157 261.608C713.613 261.032 712.941 260.744 712.141 260.744ZM720.187 269V258.896H722.539V266.84H726.523V258.896H728.875V266.84H730.555V271.88H728.395V269H720.187ZM732.234 258.896H734.586V264.632L741.498 257.984V269H739.146V263.12L732.234 269.768V258.896ZM746.82 262.64H748.428C748.588 261.696 749.028 260.856 749.748 260.12C750.74 259.128 751.996 258.632 753.516 258.632C755.02 258.632 756.276 259.136 757.284 260.144C758.308 261.136 758.82 262.408 758.82 263.96C758.82 265.496 758.308 266.776 757.284 267.8C756.276 268.808 755.02 269.312 753.516 269.312C751.916 269.312 750.62 268.776 749.628 267.704C748.892 266.904 748.476 265.936 748.38 264.8H746.82V269H744.468V258.896H746.82V262.64ZM755.58 261.56C755.02 261.016 754.332 260.744 753.516 260.744C752.7 260.744 752.012 261.016 751.452 261.56C750.892 262.104 750.612 262.912 750.612 263.984C750.612 265.056 750.892 265.864 751.452 266.408C752.012 266.936 752.7 267.2 753.516 267.2C754.332 267.2 755.02 266.936 755.58 266.408C756.14 265.864 756.42 265.056 756.42 263.984C756.42 262.912 756.14 262.104 755.58 261.56Z" fill="white"/>
</g>
<defs>
<filter id="filter0_d_60_323" x="425" y="225" width="383" height="80" filterUnits="userSpaceOnUse" color-interpolation-filters="sRGB">
<feFlood flood-opacity="0" result="BackgroundImageFix"/>
<feColorMatrix in="SourceAlpha" type="matrix" values="0 0 0 0 0 0 0 0 0 0 0 0 0 0 0 0 0 0 127 0" result="hardAlpha"/>
<feOffset dy="4"/>
<feGaussianBlur stdDeviation="4"/>
<feComposite in2="hardAlpha" operator="out"/>
<feColorMatrix type="matrix" values="0 0 0 0 0 0 0 0 0 0 0 0 0 0 0 0 0 0 0.15 0"/>
<feBlend mode="normal" in2="BackgroundImageFix" result="effect1_dropShadow_60_323"/>
<feBlend mode="normal" in="SourceGraphic" in2="effect1_dropShadow_60_323" result="shape"/>
</filter>
</defs>
</svg>
