<svg width="18" height="25" viewBox="0 0 18 25" fill="none" xmlns="http://www.w3.org/2000/svg">
<ellipse cx="11.001" cy="12.504" rx="7" ry="6.5" fill="#FFAA1A"/>
<path d="M12.7128 6.35996C12.7128 2.8553 9.86157 0.00402832 6.35691 0.00402832C2.85225 0.00402832 0.000976562 2.8553 0.000976562 6.35996C0.000976562 9.72183 2.62598 12.4748 5.93318 12.6943V24.5803C5.93318 24.8146 6.12301 25.004 6.35691 25.004C6.59081 25.004 6.78064 24.8146 6.78064 24.5803V12.6943C10.0878 12.4748 12.7128 9.72183 12.7128 6.35996ZM6.35691 11.8684C3.31962 11.8684 0.848434 9.39725 0.848434 6.35996C0.848434 3.32267 3.31962 0.851486 6.35691 0.851486C9.3942 0.851486 11.8654 3.32267 11.8654 6.35996C11.8654 9.39725 9.3942 11.8684 6.35691 11.8684Z" fill="#434343"/>
<path d="M4.23825 2.97013C3.3035 2.97013 2.54333 3.7303 2.54333 4.66505C2.54333 5.59979 3.3035 6.35996 4.23825 6.35996C5.173 6.35996 5.93317 5.59979 5.93317 4.66505C5.93317 3.7303 5.173 2.97013 4.23825 2.97013ZM4.23825 5.5125C3.77088 5.5125 3.39079 5.13242 3.39079 4.66505C3.39079 4.19767 3.77088 3.81759 4.23825 3.81759C4.70562 3.81759 5.08571 4.19767 5.08571 4.66505C5.08571 5.13242 4.70562 5.5125 4.23825 5.5125Z" fill="#434343"/>
</svg>
