<svg width="46" height="46" viewBox="0 0 46 46" fill="none" xmlns="http://www.w3.org/2000/svg">
<g opacity="0.5">
<rect x="0.5" y="0.5" width="45" height="45" rx="4.5" stroke="#0057B3"/>
<path d="M27.6742 21.4159L18.5844 12.3263C18.3742 12.1159 18.0935 12 17.7943 12C17.4951 12 17.2144 12.1159 17.0042 12.3263L16.3348 12.9955C15.8992 13.4316 15.8992 14.1404 16.3348 14.5758L23.9677 22.2087L16.3263 29.85C16.1161 30.0604 16 30.3409 16 30.64C16 30.9394 16.1161 31.2199 16.3263 31.4305L16.9957 32.0995C17.2061 32.3099 17.4866 32.4258 17.7858 32.4258C18.0851 32.4258 18.3657 32.3099 18.576 32.0995L27.6742 23.0016C27.8849 22.7906 28.0007 22.5088 28 22.2092C28.0007 21.9084 27.8849 21.6268 27.6742 21.4159Z" fill="#0057B3"/>
</g>
</svg>
