<svg width="29" height="24" viewBox="0 0 29 24" fill="none" xmlns="http://www.w3.org/2000/svg">
<path d="M13.2032 16.2842L12.7731 22.3337C13.3884 22.3337 13.6549 22.0694 13.9745 21.7519L16.8595 18.9948L22.8375 23.3727C23.9338 23.9837 24.7063 23.6619 25.002 22.364L28.926 3.97727L28.927 3.97618C29.2748 2.35548 28.3409 1.72171 27.2728 2.1193L4.20803 10.9498C2.63391 11.5608 2.65774 12.4383 3.94044 12.8359L9.83717 14.67L23.5341 6.09957C24.1787 5.67272 24.7648 5.9089 24.2827 6.33574L13.2032 16.2842Z" fill="#FFAA1A"/>
<path d="M0.432416 10.6277L6.54596 13.6746C6.78241 13.7912 7.06158 13.7829 7.28762 13.6506L12.7293 10.4871L9.43554 13.4058C9.26783 13.5548 9.172 13.7673 9.172 13.9912V21.1006C9.172 21.8506 10.1293 22.1662 10.5782 21.5704L13.221 18.0569L19.7564 21.7787C20.2147 22.0423 20.8022 21.7777 20.9085 21.2537L24.9845 0.941246C25.1064 0.330829 24.4991 -0.167087 23.9345 0.0599961L0.496999 9.20062C-0.132168 9.44645 -0.172793 10.3267 0.432416 10.6277ZM23.172 2.035L19.5897 19.886L13.397 16.3589C13.0595 16.1662 12.6251 16.2517 12.3855 16.5683L10.7345 18.7631V14.3423L19.6418 6.45062C20.347 5.82666 19.5366 4.71729 18.7314 5.1902L6.86679 12.0881L2.70846 10.0162L23.172 2.035Z" fill="#434343"/>
</svg>
