<svg width="16" height="9" viewBox="0 0 16 9" fill="none" xmlns="http://www.w3.org/2000/svg">
<path d="M8.6253 8.75967L15.7454 1.94235C15.9102 1.78467 16.001 1.57419 16.001 1.34976C16.001 1.12532 15.9102 0.914839 15.7454 0.757163L15.2211 0.255115C14.8796 -0.0715715 14.3244 -0.0715715 13.9833 0.255115L8.00429 5.97978L2.01865 0.248763C1.85384 0.0910865 1.63413 0.00402832 1.39986 0.00402832C1.16533 0.00402832 0.94562 0.0910865 0.780678 0.248763L0.256584 0.750811C0.091773 0.908611 0.000977516 1.11897 0.000977516 1.3434C0.000977516 1.56784 0.091773 1.77832 0.256584 1.936L7.38316 8.75967C7.54849 8.91772 7.76924 9.00452 8.0039 9.00403C8.23948 9.00452 8.46009 8.91772 8.6253 8.75967Z" fill="#B3B3B3"/>
</svg>
